<svg xmlns="http://www.w3.org/2000/svg" width="526.567" height="91.453" viewBox="0 0 526.567 91.453">
  <g id="Grupo_629" data-name="Grupo 629" transform="translate(-2046 -10135)">
    <g id="Grupo_2" data-name="Grupo 2" transform="translate(-4791 6033)">
      <circle id="Elipse_3" data-name="Elipse 3" cx="45.5" cy="45.5" r="45.5" transform="translate(6946 4102)"/>
      <circle id="Elipse_5" data-name="Elipse 5" cx="41.5" cy="41.5" r="41.5" transform="translate(7170 4106)" fill="#fff"/>
      <g id="nuevo-sobre-de-correo-electronico" transform="translate(6963.022 4129.987)">
        <path id="Trazado_11" data-name="Trazado 11" d="M45.62,104.547,19.744,81.824H71.495Z" transform="translate(-17.178 -81.824)" fill="#fff"/>
        <path id="Trazado_12" data-name="Trazado 12" d="M18.134,112.177,0,128.1V96.252Z" transform="translate(0 -94.377)" fill="#fff"/>
        <path id="Trazado_13" data-name="Trazado 13" d="M37.554,234.665l7.957,6.987,7.956-6.987L71.4,250.415H19.619Z" transform="translate(-17.069 -214.801)" fill="#fff"/>
        <path id="Trazado_14" data-name="Trazado 14" d="M298.141,112.177l18.135-15.925V128.1Z" transform="translate(-259.393 -94.377)" fill="#fff"/>
      </g>
      <circle id="Elipse_4" data-name="Elipse 4" cx="45.5" cy="45.5" r="45.5" transform="translate(7055 4102)" fill="#fff"/>
      <path id="linkedin" d="M45.726,0A45.726,45.726,0,1,0,91.453,45.726,45.731,45.731,0,0,0,45.726,0ZM32.439,69.125H21.3v-33.5H32.439ZM26.871,31.046H26.8c-3.737,0-6.154-2.573-6.154-5.788,0-3.288,2.491-5.789,6.3-5.789s6.154,2.5,6.227,5.789C33.171,28.474,30.754,31.046,26.871,31.046ZM72.594,69.125H61.459V51.2c0-4.5-1.612-7.577-5.642-7.577A6.1,6.1,0,0,0,50.1,47.7a7.626,7.626,0,0,0-.366,2.718v18.71H38.6s.146-30.361,0-33.5H49.738v4.744a11.056,11.056,0,0,1,10.036-5.53c7.327,0,12.821,4.789,12.821,15.079Zm0,0" transform="translate(7163.336 4102)"/>
      <path id="facebook" d="M91.453,45.726A45.726,45.726,0,1,0,45.726,91.453c.268,0,.536,0,.8-.018V55.854H36.706V44.4H46.53V35.974c0-9.77,5.966-15.093,14.682-15.093a79.8,79.8,0,0,1,8.806.447V31.544h-6c-4.733,0-5.662,2.251-5.662,5.555v7.288H69.7L68.214,55.836h-9.86V89.684A45.74,45.74,0,0,0,91.453,45.726Z" transform="translate(7054.557 4102)"/>
      <circle id="Elipse_6" data-name="Elipse 6" cx="37.5" cy="37.5" r="37.5" transform="translate(7280 4113)" fill="#fff"/>
      <path id="gorjeo" d="M45.726,0A45.726,45.726,0,1,0,91.453,45.726,45.731,45.731,0,0,0,45.726,0ZM66.6,35.653q.03.675.03,1.356c0,13.869-10.557,29.861-29.862,29.862h0a29.708,29.708,0,0,1-16.088-4.715,21.347,21.347,0,0,0,2.5.145,21.059,21.059,0,0,0,13.036-4.493,10.507,10.507,0,0,1-9.805-7.29,10.46,10.46,0,0,0,4.74-.18,10.5,10.5,0,0,1-8.42-10.288c0-.047,0-.09,0-.134a10.423,10.423,0,0,0,4.754,1.312,10.5,10.5,0,0,1-3.249-14.012A29.8,29.8,0,0,0,45.878,38.184a10.5,10.5,0,0,1,17.885-9.571,21.051,21.051,0,0,0,6.665-2.547,10.537,10.537,0,0,1-4.615,5.805,20.932,20.932,0,0,0,6.027-1.653A21.329,21.329,0,0,1,66.6,35.653Zm0,0" transform="translate(7272.114 4102)"/>
      <circle id="Elipse_7" data-name="Elipse 7" cx="38.5" cy="38.5" r="38.5" transform="translate(6843 4106)" fill="#fff"/>
      <g id="instagram" transform="translate(6837 4102)">
        <path id="Trazado_15" data-name="Trazado 15" d="M224.5,215.752A8.752,8.752,0,1,1,215.752,207,8.752,8.752,0,0,1,224.5,215.752Zm0,0" transform="translate(-170.026 -170.026)"/>
        <path id="Trazado_16" data-name="Trazado 16" d="M177.479,141.529a8.7,8.7,0,0,0-4.983-4.983,14.527,14.527,0,0,0-4.875-.9c-2.769-.126-3.6-.154-10.61-.154s-7.842.027-10.61.153a14.536,14.536,0,0,0-4.875.9,8.7,8.7,0,0,0-4.984,4.983,14.532,14.532,0,0,0-.9,4.876c-.126,2.769-.154,3.6-.154,10.61s.027,7.841.154,10.61a14.527,14.527,0,0,0,.9,4.875,8.695,8.695,0,0,0,4.983,4.983,14.51,14.51,0,0,0,4.876.9c2.769.126,3.6.153,10.61.153s7.842-.027,10.61-.153a14.51,14.51,0,0,0,4.876-.9,8.7,8.7,0,0,0,4.983-4.983,14.541,14.541,0,0,0,.9-4.875c.126-2.769.153-3.6.153-10.61s-.027-7.842-.153-10.61A14.51,14.51,0,0,0,177.479,141.529ZM157.011,170.5a13.483,13.483,0,1,1,13.483-13.483A13.483,13.483,0,0,1,157.011,170.5Zm14.016-24.348A3.151,3.151,0,1,1,174.178,143,3.151,3.151,0,0,1,171.027,146.149Zm0,0" transform="translate(-111.284 -111.288)"/>
        <path id="Trazado_17" data-name="Trazado 17" d="M45.726,0A45.726,45.726,0,1,0,91.453,45.726,45.731,45.731,0,0,0,45.726,0Zm26.1,56.552a19.264,19.264,0,0,1-1.22,6.374A13.426,13.426,0,0,1,62.925,70.6a19.277,19.277,0,0,1-6.373,1.22c-2.8.128-3.694.158-10.825.158S37.7,71.953,34.9,71.825a19.277,19.277,0,0,1-6.373-1.22,13.426,13.426,0,0,1-7.679-7.679,19.259,19.259,0,0,1-1.22-6.373c-.129-2.8-.159-3.7-.159-10.826s.03-8.025.158-10.825a19.266,19.266,0,0,1,1.22-6.374,13.435,13.435,0,0,1,7.68-7.679,19.282,19.282,0,0,1,6.374-1.22c2.8-.128,3.694-.158,10.825-.158s8.025.031,10.825.159a19.286,19.286,0,0,1,6.374,1.219,13.43,13.43,0,0,1,7.679,7.68A19.262,19.262,0,0,1,71.826,34.9c.128,2.8.158,3.694.158,10.825S71.953,53.752,71.825,56.552Zm0,0"/>
      </g>
    </g>
  </g>
</svg>
