<svg xmlns="http://www.w3.org/2000/svg" width="2620.489" height="1495.981" viewBox="0 0 2620.489 1495.981">
  <g id="Grupo_628" data-name="Grupo 628" transform="translate(907.035 -1026.764)">
    <path id="Trazado_1087" data-name="Trazado 1087" d="M0,673.15S300.029,345.115,368.3,0" transform="translate(1333.228 1039) rotate(2)" fill="none" stroke="#808080" stroke-linecap="round" stroke-miterlimit="10" stroke-width="20" stroke-dasharray="40"/>
    <g id="Grupo_602" data-name="Grupo 602" transform="translate(1098.299 1743.847) rotate(2)">
      <path id="Trazado_1088" data-name="Trazado 1088" d="M174.458,1.383c-6.522-5.527-26.111,6.858-31.638,13.391L120.679,40.928,10.817,50.036A5.458,5.458,0,0,0,9.692,60.7L84.714,83.383,43.861,131.624l-42.13,3.494a1.894,1.894,0,0,0-.389,3.7l36.614,11.065a15.831,15.831,0,0,0,1.071,2.542l-1.417,1.687a5.675,5.675,0,0,0,8.664,7.333l1.385-1.644a14.887,14.887,0,0,0,2.715.681L66.943,194.37a1.9,1.9,0,0,0,3.591-1l-3.429-41.243,41.5-49,34.483,70.523a5.465,5.465,0,0,0,10.351-2.855L144.324,60.96l22.152-26.154C172,28.273,180.991,6.911,174.458,1.383Z" fill="#808080"/>
    </g>
    <path id="Trazado_1086" data-name="Trazado 1086" d="M0,571.173s845.34,72.353,1203.28-217.04,53.3-376.982-30.472-304.629,3.817,266.544,304.629,220.856S1983.88,0,1983.88,0" transform="translate(-875.661 1864.125) rotate(2)" fill="none" stroke="#808080" stroke-linecap="round" stroke-miterlimit="10" stroke-width="20" stroke-dasharray="40"/>
  </g>
</svg>
