<svg xmlns="http://www.w3.org/2000/svg" width="2024.5" height="713.807" viewBox="0 0 2024.5 713.807">
  <g id="Grupo_620" data-name="Grupo 620" transform="translate(188.171 -564.166)">
    <g id="Grupo_619" data-name="Grupo 619" transform="translate(-188.171 564.166)">
      <path id="Trazado_1111" data-name="Trazado 1111" d="M843.524,785.529c7.144-4.8,14.705-9.919,22.307-14.972a46.294,46.294,0,0,1,6.18-3.637c4.457-2.042,6.518-.482,6.063,4.422a27.611,27.611,0,0,1-.817,3.115c2.943-1.492,5.075-2.753,7.346-3.681a32.525,32.525,0,0,1,7.975-2.6c3.8-.474,5.233,1.767,3.755,5.2a36.358,36.358,0,0,1-1.846,3.4c2.426,1.29,4.569,2.428,6.711,3.569l-3.983,6.246c2.083,1.364,4.449,3.349,2.015,6.744-.28.389-.041,1.206.071,1.805,1.01,5.535.637,7.014-4.163,9.053-3.891,1.653-8.168,2.4-13.167,3.8,1.511,14.975,4.642,30.586,6.853,46.6,3.659-.31,6.869-.667,10.087-.836,6.861-.354,13.48.653,19.579,4.005,9.322,5.127,13.512,14.5,10.978,24.852a63.109,63.109,0,0,1-15.231,28.452q-20.449,22.013-40.581,44.319a66.091,66.091,0,0,0-7.583,10.594c-4.748,8.024-3.237,13.867,4.569,18.816,2.57,1.628,5.276,3.041,7.879,4.62,6.118,3.717,9.619,9.159,8.639,16.32-1.026,7.5-2.929,14.9-4.6,22.3-1.106,4.876-2.508,9.685-3.736,14.534-1.688,6.679.232,12.462,4.517,17.607,1.114,1.34,2.377,2.551,3.5,3.885,7.82,9.336,16.047,18.364,23.33,28.1a123.079,123.079,0,0,0,45.006,36.946c11.86,5.851,24.719,8.255,37.842,9.189,18.8,1.334,37.377-1.323,56-3.251a174.038,174.038,0,0,1,35.629-.294c-1.634,3.294-4.239,3.1-6.325,3.4-13.774,2.015-27.534,4.214-41.368,5.7a323.119,323.119,0,0,1-35.8,2.347c-40.549-.18-72.254-17.91-96.711-49.751a359.666,359.666,0,0,0-23.409-28.027c-9-9.527-11.931-19.881-7.9-32.315,1.879-5.794,3.556-11.653,5.274-17.5a66.568,66.568,0,0,0,1.781-6.951c1.925-10.722.449-13.831-8.906-19.2-2.075-1.19-4.256-2.227-6.2-3.6-7.893-5.579-10.251-13.679-5.965-22.315a62.576,62.576,0,0,1,8.522-13.069c8.83-10.2,18.024-20.088,27.2-29.987,5.178-5.59,10.61-10.948,15.917-16.42a54.741,54.741,0,0,0,13.526-24.27c2.758-10.188-.912-17.368-10.738-21.46-7.5-3.128-15.236-2.6-23.959-1.688.479,3.6.765,6.744,1.331,9.834,1.438,7.844.76,8.56-7.019,6.493-.517,5.549-4.089,6.265-9.036,6.63-15.394,1.13-30.722,3.1-46.1,4.5-10.365.937-20.768,2.17-31.1.283-9.957-18.212-19.848-36.3-30.015-54.905-2.976,0-5.987.03-9-.005-5.094-.06-8.585-2.263-10.33-7.272-2.431-6.981-5.132-13.869-7.683-20.809-3.066-8.35-6.1-16.714-9.409-25.805-3.8,4.37-5.165,8.789-6.681,13.352A62.159,62.159,0,0,1,729.867,796c3.488,3.294,3.9,6.129,1.694,10.52-.967,1.933-2.2,3.738-3.1,5.7a10.472,10.472,0,0,0-.727,3.51c-.128,1.707.536,3.768-.2,5.07a7.124,7.124,0,0,0-.368,7.185c1.282,2.94-.526,5.519-2.584,7.575a54.118,54.118,0,0,1-4.868,3.918c-.871,4.4,1.527,5.876,4.969,7.21a43.582,43.582,0,0,1,9.513,5.383c2.554,1.835,4.37,4.525,2.886,7.912-1.511,3.46-4.46,4.522-8.084,3.98-.607-.09-1.231-.065-2.568-.125,1.756,5.018,3.286,9.693,5.021,14.291,3.305,8.756,6.916,17.4,10.047,26.214,4.432,12.483,7.188,25.315,2.725,38.316-4.446,12.949-9.4,25.737-14.566,38.419-8.124,19.946-16.614,39.745-24.942,59.61-.417.991-.768,2.007-1.2,3.145,4.479,7.792,11.7,12.287,19.524,15.6,2.625,1.114,6.529.449,9.412-.6,3.6-1.31,6.812-3.76,10.079-5.892,10.589-6.907,21.833-11.767,34.8-11.223,13.311.561,26.53,15.2,25.217,28.384a14.376,14.376,0,0,1-4.133,8.459,27.836,27.836,0,0,1-10.567,6.11c-12.728,3.8-20.654,13.268-28.493,22.941a11.148,11.148,0,0,0-1.909,4.122c-2.736,10.419-.264,17.855,9.949,20.545,7.76,2.042,15.759,3.177,23.644,4.746,4.054.806,8.149,1.47,12.121,2.564,3.94,1.087,7.751,2.636,12.459,4.272,5.952-2.657,12.658-5.756,19.462-8.623A13.312,13.312,0,0,1,841.12,1134c28.642,2.6,56.775,8.372,84.963,13.8a15.348,15.348,0,0,1,3.134.9c2.883,1.233,3.48,2.788,1.846,5.633-2.935,5.113-6.227,9.916-11.242,13.374-5.723,3.945-10.91,8.778-16.935,12.146a103.434,103.434,0,0,1-21.512,9.216c-3.553,1.029-8.073-.776-12.037-1.767-14.558-3.648-29.064-7.512-43.6-11.261-8.625-2.227-17.264-4.391-25.9-6.573a22.177,22.177,0,0,0-3.823-.841c-4.106-.283-8.3-.106-9.837-5.334-.283-.955-1.955-1.5-3.542-2.625,4.62-7.95,13.665-8.138,21.011-13.012-3.512-.986-6.262-1.952-9.094-2.51-7.259-1.429-14.563-2.614-21.825-4.027a80.74,80.74,0,0,1-8.184-2.186c-16.205-4.966-17.414-18.394-14.185-29.628a13.93,13.93,0,0,1,2.17-4.724c8.544-10.877,17.754-20.945,31.689-25.051a37.947,37.947,0,0,0,7.286-2.793c5.247-2.834,6.573-6.161,5.189-11.95-2.554-10.7-13.815-20.64-28.087-17.044-8.045,2.026-15.718,5.064-22.4,10.248a56.444,56.444,0,0,1-8.149,5.38c-7.3,3.861-14.591,3.692-21.7-.681-1.8-1.105-3.624-2.159-6.308-3.755a56.261,56.261,0,0,1,1.8,5.756c1.084,5.816-1.546,9.309-7.417,9.8a74.765,74.765,0,0,1-10.433.4c-3.616-.2-4.484,1.721-4.77,4.969,2.881,1.424,5.971,2.551,8.6,4.353,3,2.056,6.1,4.335,8.247,7.2,3.8,5.062,2.238,9.894-3.812,11.691-5.176,1.538-10.635,2.151-15.987,3.063-2.339.4-4.724.525-7.291.8-.613,3.853.809,6.542,3.4,9.2,6.559,6.73,14.675,10.79,23.164,14.28,7.041,2.894,14.166,5.582,21.22,8.438,5.955,2.41,11.49,5.366,13.42,11.781,6.447.7,12.516,1.075,18.47,2.11a26.224,26.224,0,0,1,9.042,3.5c4.446,2.739,4.231,6.594-.441,8.9-3.684,1.824-7.73,2.908-11.539,4.5-3.12,1.307-6.73,1.944-8.62,5.241,2.867,3.937,3.213,4.133,10,5.647,2.216-4.288,5.7-4.857,10.169-3.164,4.242,1.607,8.745,2.516,13.012,4.062,3.278,1.19,5.44,3.507,4.65,7.365a56.072,56.072,0,0,1,7.152,3.648c1.051.727,2.11,2.554,1.917,3.667a4.279,4.279,0,0,1-3.006,2.8,30.841,30.841,0,0,1-8.868-.825c-2.521-.624-4.506-1.691-7.313.008-1.625.986-4.688.31-6.834-.42-4.52-1.541-8.879-3.564-13.262-5.483-1.969-.86-4.019-1.663-4.054-4.5-.008-.752-1.133-1.661-1.944-2.189-1.266-.828-2.783-1.266-4.057-2.085-6.877-4.43-6.867-11.482.223-15.547,2.979-1.707,6.412-2.63,9.671-3.828,2.99-1.1,6.02-2.091,10.479-3.63a48.937,48.937,0,0,0-23.48-5.034c-6.311,10.521-16.663,15.881-27.412,20.64a11.411,11.411,0,0,1-4.5.485c-19.168-.079-38.332-.1-57.5-.327-26.116-.313-52.231-.665-78.339-1.274-8.244-.193-16.458-1.424-24.705-1.892-5.192-.294-10.414-.055-16.162-.055.517,1.367.907,2.685,1.5,3.9a48.1,48.1,0,0,1,4.471,19.592c.248,6.859-3.537,11.909-10.518,13.981-7.969,2.366-15.952,2.668-23.328-2-8.642-5.467-17.047-11.321-25.775-16.646a186.094,186.094,0,0,0-21.122-11.574c-10.316-4.582-19.611-.6-28.062,5.391-3.621,2.565-4.16,7.019-4.373,11.209a48.56,48.56,0,0,1-4.7,18.206c-3.316,7.12-8.636,11.19-16.559,9.818-9.175-1.587-18.264-3.8-27.292-6.112-14.112-3.616-28.065-7.871-42.228-11.253a65.535,65.535,0,0,0-41.58,3.469c-8.217,3.474-16.317,7.248-24.646,10.43-7.681,2.932-15.6,5.252-24.267,4.512v-6.3a7.835,7.835,0,0,1,2.121-1.029c13.3-.98,25.288-6.183,37.194-11.588,8.993-4.084,18.326-7.349,28.139-7.882a85.917,85.917,0,0,1,23.309,1.587c14.615,3.3,28.964,7.792,43.421,11.8,6.284,1.742,12.486,3.91,18.863,5.179,12.889,2.565,17.422-.553,20.286-13.36a97.613,97.613,0,0,0,1.37-9.69c.956-7.967,4.781-13.668,12.249-17.166,11.718-5.494,23.363-7.035,34.943-.12,10.828,6.469,21.441,13.3,32.171,19.938,3.33,2.061,6.744,3.986,10.1,6.006,5.426,3.265,11.157,3.278,17.025,1.585,4.645-1.34,7.027-4.283,6.782-9.1-.509-10.028-2.886-19.3-10.779-26.464-2.064-1.876-3.812-2.622-6.325-1.786-1.653.547-3.273,1.2-4.942,1.686-6.039,1.743-8,.768-10.561-5.089-.335-.762-.811-1.462-1.359-2.431-1.606.512-3.009.964-4.416,1.4-5.045,1.571-8.124.084-10.692-4.615-11.677-21.37-23.48-42.669-35.166-64.031-5.538-10.117-10.891-20.338-16.393-30.475-1.2-2.2-1.849-4.746-5.042-5.475-2.287-.52-2.635-2.72-1.487-4.776a15.334,15.334,0,0,1,2.306-3.134c15.454-16,31.5-31.31,50.217-43.562a134.373,134.373,0,0,0,11.56-8.533c2.034-1.669,3.594-3.91,6.036-6.638,1.5-.321,3.049,1.029,4.013,3.174,3.981,8.879,10.689,15.832,16.39,23.507,5.184,6.976,10.117,14.139,15.424,21.593l3.934-2.374c.044-.893.223-1.391.063-1.726-3.341-6.989-3.191-6.837,1.988-12.355,3.714-3.959,6.989-8.334,10.362-12.6q26.113-33.051,52.177-66.141c2.132-2.7,4.277-5.394,7.144-9.009a53.758,53.758,0,0,0-18.01-1.694,73.7,73.7,0,0,0-25.508,7.651c-6.6,3.24-13.02,6.88-19.35,10.632-4.5,2.665-9.159.754-13.725.974-.686.033-2.312-2.246-2.058-2.8,1.38-3.019,1.105-6.875,4.609-8.906,2.813-1.631,5.375-3.695,8.043-5.576,5.13-3.618,6.412-3.425,10.755,1.753,7.024-2.649,14.071-5.4,21.185-7.967a57.411,57.411,0,0,1,30.864-2.524c.855.166,1.745.158,2.586.37,4.59,1.154,8.016-.292,10.439-4.381a33.754,33.754,0,0,1,3.066-3.771c-1.157-1.849-2.276-3.635-3.327-5.307-6.1-.632-11.931-1.07-17.705-1.895a47.838,47.838,0,0,1-9.418-2.429c-3.278-1.187-4.345-4.008-4.291-7.346.057-3.534,2.448-5.14,5.339-5.644,4.435-.773,8.969-1,14.288-1.541-1.859-3.646-3.591-7.038-5.666-11.1-8.184.389-16.393.623-24.575,1.239-3.994.3-7.956,1.064-10.61-2.853-1.952-2.878-.994-7.005,3.333-10.959,3.316-3.025,7.365-5.312,11.275-7.6,2.4-1.408,5.159-2.2,8.418-3.542-1.258-3.937-2.475-7.751-3.678-11.517a76.582,76.582,0,0,1-8.541-2.083c-4.686-1.723-6.265-5.66-3.687-9.943,1.753-2.908,4.414-5.271,6.965-8.217-1.274-.392-2.554-.9-3.883-1.179-8.378-1.792-12.584-6.929-12.3-15.111.25-7.324,4.457-11.432,13.072-12.783a36.512,36.512,0,0,1,5.143-.817c5.426-.065,7.928-3.115,9.646-7.953,1.938-5.462,4.7-10.632,7.275-16.306-2.3-2.641-4.887-5.532-7.384-8.5-2.38-2.834-4.438-5.976-7.052-8.565-2.584-2.559-2.366-7.455-7.52-8.762,0,2.627.153,4.743-.027,6.828-.553,6.455-4.923,9.867-11.264,8.255-4.166-1.059-8.078-3.107-12.129-4.639-1.6-.607-3.281-1.018-4.925-1.519l-.618,1.133c1.824,2.641,3.989,5.11,5.4,7.956,2.3,4.648,4.865,9.374,5.949,14.365,1.729,7.972-3.248,12.649-11.255,11.283-9.908-1.688-18.65-5.456-25.3-13.559-5.826-7.106-8.873-6.45-12.59,2.078-2.6,5.963-5.1,11.966-7.79,18.283.28.291.863.9,1.438,1.5,4.879,5.143,4.844,6.711.34,12.1-3.338,3.994-6.428,8.192-9.657,12.279-6.093,7.711-7.547,8.075-16.88,4.16-10.817-4.539-21.74-8.857-32.383-13.777-4.887-2.257-9.265-5.65-13.782-8.661-2.056-1.369-4.579-9.115-3.937-11.672.367-1.465,1.021-2.859,1.683-4.664a41.287,41.287,0,0,1-2.51-4.157,35.242,35.242,0,0,1-1.421-4.457c-9.845-3.858-18.146-10.106-25.939-17.169-7.956-7.2-13.148-16-16.671-26.1-2.636-7.561-.065-13.613,3.863-19.562a7.065,7.065,0,0,1,3.583-2.687c7.672-2.287,15.075-5.407,23.374-5.532,10.676-.163,20.042,3.588,29.143,8.353a255.788,255.788,0,0,1,37.017,23.2c5.505,4.212,10.814,8.677,16.257,13.066,7.732-3.708,9.557-12.361,16.586-16.2-1.655-1.941-3.18-3.259-4.1-4.914-1.348-2.428-2.864-5.01-3.245-7.678-.942-6.632,3.793-11.963,10.343-10.9,6.532,1.062,12.821,3.616,20.485,5.895,2.989-1.6,7.37-3.934,12.17-6.5-1.269-3.038-2.546-5.758-3.545-8.574-1.282-3.613-1.756-7.264,1.1-10.458s6.551-3.147,10.281-2.273c6.5,1.525,11.051,5.786,14.795,11.128,8.565-2.516,17.038-5.1,25.566-7.482,12.6-3.526,25.522-3.226,38.272-1.832,15.767,1.726,31.411,4.571,47.113,6.91a45.409,45.409,0,0,0,4.547.427c8.533.389,9.17-.033,13.159-8.713-7.381-2.173-10.011-8.968-12.783-14.811-8.745-18.44-8.092-37.853,5.582-53.31,16.322-18.452,36.772-31.1,62.6-32.092.637-.025,1.28.084,2.627.18,1.947,6.853-2.595,11.688-5.81,17.2,3.708,2.521,7.577,4.557,10.684,7.422,3.147,2.908,5.543,6.633,8.688,10.518,3.36-.621,7.329-1.647,11.359-2.02,4.005-.368,8.07-.079,13.009-.079-2.214,10.493-10.575,14.264-17.03,19.5.476,3.134.569,6.012,1.391,8.666,1.511,4.893-.256,8.579-3.733,11.658-3.077,2.726-6.406,5.162-9.344,8.416,2.317-.926,4.667-1.778,6.94-2.8,2.415-1.086,4.661-1.04,6.69.727a5.334,5.334,0,0,1,1.2,6.616c-3.646,7.424-7.43,14.863-15.677,18.413-2.8,1.206-5.625,2.339-8.427,3.539-9.861,4.237-12.745,6.374-19.914,14.811,2.067,1.792,4.237,3.5,6.208,5.4,10.319,10,15.838,22.674,20.229,36.048,3.18,9.687,6.755,19.249,10.289,28.817a22.358,22.358,0,0,0,2.992,5.037c2.066,2.889,4.8,4.234,8.467,3.444,6.581-1.421,13.208-2.633,19.777-4.1,10.591-2.371,21.117-5.056,31.752-7.2C837.678,784,840.5,785.113,843.524,785.529Zm-53.146,75.823c1.312,4.92,4.1,8.988,7.771,14.046-.414-6.967-5.059-9.919-7.879-13.954a5.032,5.032,0,0,0-.079-1.9c-4.329-8.947-8.653-17.9-13.169-26.75-.444-.874-2.143-1.111-3.259-1.642a286.907,286.907,0,0,0,14.781,28.555C788.926,860.386,789.754,860.811,790.378,861.352Zm35.245,283.627q-2.573,1.307-5.146,2.608-12.909,5.162-25.816,10.33l.2,1.516c3.066.765,6.11,1.631,9.2,2.274,18.092,3.771,36.018,8.127,53.367,14.613,2.439.912,4.988,1.527,7.422,2.453,5.56,2.116,10.134,1.378,15.587-1.876,13.2-7.869,25.713-17.136,40.734-22.07a13.788,13.788,0,0,0-4.694-1.941c-24.311-4.7-48.621-9.4-72.965-13.923a14.794,14.794,0,0,0-7.572.651C832.339,1140.977,829.047,1143.15,825.622,1144.98ZM436.432,782.039c2-1.675,4.141-3.207,5.963-5.053,2.668-2.706,5.69-2.951,9-1.762a36.39,36.39,0,0,1,3.956,1.96L486,759.675c-4.476-4.108-8.293-7.939-12.445-11.359-11.637-9.589-24.474-17.349-37.91-24.117-8.228-4.144-16.758-7.642-26.236-6.172a105.4,105.4,0,0,0-14.433,3.73c-7.5,2.287-10.06,7.569-7.569,15.125,3.06,9.284,7.877,17.455,15.527,23.7,5.391,4.4,10.915,8.642,16.469,12.835,2.785,2.1,5.68,3.635,9.578,3.21,3.765-.414,6.616,1.568,7.542,5.543-5.59-2.045-5.59-2.045-7.512,2.709C432.19,785.23,432.19,785.23,436.432,782.039ZM754.18,623.155l-.044-.038c-1.4-3.877-4.9-5.2-8.22-7.112-9.007,7.514-17.814,14.923-28.035,18.879.31,8.315.681,16.08.839,23.851a21.661,21.661,0,0,1-.89,6.436c-1.261,4.315-3.147,5.031-7.207,2.992-2.282-1.146-4.5-2.426-6.725-3.635-2.328,3.924-2.219,5.963-.713,9.979,1.361,3.626,4.264,4.114,8.3,3.874-2.244,3.251-4.315,5.516-5.505,8.173-1.225,2.736-1.046,6.15-2.448,8.742A104.869,104.869,0,0,1,694.3,709.39c-1.056,1.367-3.76,2.222-5.611,2.072-5.179-.417-10.319-1.43-15.456-2.3-18.868-3.2-37.693-6.651-56.939-6.79-21.03-.152-39.857,7.572-58.673,15.429,5.543,8.22,10.831,16.058,16.5,24.458-.558-.073-.114.09.286.019,1.067-.191,2.118-.482,3.172-.735,18.291-4.411,36.81-6.649,55.637-5.617a42.814,42.814,0,0,1,9.584,1.653c1.054.308,2.557,2.636,2.252,3.264a6.425,6.425,0,0,1-3.618,2.783c-1.1.362-2.527-.384-3.823-.5-3.03-.27-6.069-.441-9.1-.686-3.24-.259-4.89,1.081-4.656,4.117,3.749,3.017,7.787,5.421,10.725,8.783,10.322,11.808,22.987,20.564,36.132,28.738a15.046,15.046,0,0,0,6.074,1.906c13.951,1.612,28.212-.92,42.163,3.629,2.973-6.2,5.7-12.1,8.631-17.9a77.746,77.746,0,0,1,5.334-8.944c.49-.711,2.02-.705,4.492-1.465-1.77,4.375-3.028,7.482-3.746,9.257,4.743,11.961,9.113,22.835,13.36,33.753,2.981,7.672,4.9,15.805,9.984,22.985,11.136.566,21.724-2.723,32.47-4.751,1.642-7.757-3.493-14.795-.348-22.563-2.486.256-5.176-.272-6.6.83-4.1,3.186-6.956,1.19-9.616-1.609a41.184,41.184,0,0,1-5.459-7.242c-5.4-9.05-8.707-18.977-11.2-29.127a92.864,92.864,0,0,0-12.557-28.525c-3.319-5.119-7.359-9.63-12.859-12.649-9.979,6.115-19.731,12.233-29.631,18.1-5.919,3.507-13.167,1.985-16.791-3.493-3.951-5.968-3.85-12.93-5.007-19.511,3.583-1.149,4.313.839,4.871,2.714.871,2.913,1.4,5.933,2.3,8.841,2.567,8.375,7.384,9.848,14.727,4.884,6.121-4.138,12.475-7.926,18.65-11.985,3.251-2.135,6.747-4.119,9.42-6.866a78.827,78.827,0,0,1,31.027-19.826,12.819,12.819,0,0,0,2.393-1.037c5.6-3.368,8.16-8.862,10.531-14.593-3.632.855-6.752,2.3-9.987,3.4a4.732,4.732,0,0,1-6.123-2.293,4.875,4.875,0,0,1,.757-6.526,45.355,45.355,0,0,1,5.6-4.452c9.012-6.4,9.257-6.888,8.105-17.784a5,5,0,0,0-.169-1.291c-2.056-5.206.477-8.026,4.874-10.371,2.832-1.511,6.066-2.94,7.828-7.073-5.993,1.119-11.484.577-15.693,5.132-2.02,2.183-4.313,1.315-5.562-1.557-.6-1.389-.795-2.965-1.473-4.307C759.748,628.328,758.563,624.364,754.18,623.155Zm-59.648,424.337c.912-1.62,1.41-2.325,1.732-3.1,10.349-25.144,20.79-50.249,30.959-75.467a264.213,264.213,0,0,0,9.265-26.464c1.576-5.551,2.657-11.618,2.148-17.289-.613-6.834-2.7-13.648-4.944-20.2-4.865-14.2-10.262-28.21-15.383-42.318-1.478-4.07-2.761-8.212-4.231-12.614-5.315-1.269-10.624-2.369-15.83-3.836a9.994,9.994,0,0,0-8.658,1.133c-6.336,3.97-13.409,6.017-20.627,7.849-21.166,5.366-42.8,7.659-64.38,10.414-1.832.237-3.621.828-6.072,1.4,3.964,8.045,8.157,15.231,11.078,22.9,2.4,6.286,6.7,8.01,12.524,8.059q22.495.188,44.989.248a25.646,25.646,0,0,0,4.392-.879c0-8.035-.1-15.841.049-23.644a57.341,57.341,0,0,1,1.141-9.674c.177-.926,1.517-1.625,3.218-3.321,2.159,8.9-.2,16.973,1.323,23.848,6.265,1.119,12.3,1.683,18.008,3.362,5.914,1.74,6.619,5.35,2.946,10.477A14.421,14.421,0,0,1,686.5,904.55c-2.783.128-5.576.025-8.064.025-1.963,4.215,1.157,6.044,2.5,8.644,2.154,4.174,5.276,5.01,9.638,4.593a117.413,117.413,0,0,1,15.01-.212,18.069,18.069,0,0,1,13.379,5.873c3.983,4.441,3.586,8.756-1.146,12.247a18.128,18.128,0,0,1-4.555,2.513c-6.714,2.4-13.483,4.642-20.945,7.188-.18.455-.359,2.241-1.342,3.218-5.192,5.173-6.586,12.129-9.015,18.571-6.366,16.894-12.565,33.851-18.838,50.777-2.385,6.431-4.792,12.854-7.354,19.728C668.955,1041.176,682.422,1040.661,694.532,1047.492Zm-59.991,32.081c-5.693-2.235-10.7-3.8-15.318-6.123-4.893-2.467-5.7-6.782-2.949-11.541a10.845,10.845,0,0,1,8.323-5.655c6.183-.787,12.394-1.364,19.07-2.08.937-2.88,2.047-6.295,3.294-10.125-2.282-.395-3.722-.746-5.179-.877a40.659,40.659,0,0,1-16.611-5.462c-4.179-2.388-4.6-4.419-4.492-9.159.174-8.119,13.76-17.948,21.773-15.162,4.443,1.544,8.914,3.006,13.967,4.708,8.862-24.123,17.724-48.254,26.679-72.624-4.928-.476-8.7-.509-12.01,3.771-26.81,34.657-57.238,66.1-87.4,97.779-6.246,6.559-12.4,11.841-21.645,6.583-5.211,5.053-7.354,10.817-8.446,17.194a8.271,8.271,0,0,0,1.231,6.75c1.841,2.584,4.5,5.225.381,8.225-.389.286,0,1.623.011,2.469.025,3.45,1.7,6.11,3.727,8.783,6.39,8.41,13.654,16.3,17.2,27.425-4.7,2.668-9.224,5.579-14.046,7.868-3.575,1.7-5.116,3.961-5.385,7.931-.555,8.231-9.4,13.687-17.123,10.7-4.378-1.7-8.566-3.877-13.6-6.189,3,6.4-3.169,6.592-6.025,9.777,4.427,2.548,6.308,6.259,5.116,10.912,34.507-4.879,68.674-6.676,103.8-4.236.506-8.28.961-15.7,1.443-23.568-2.366.637-4.013,1.184-5.7,1.517-8.8,1.731-17.678,2.834-26.546.773-8.337-1.936-10.515-8.3-5.486-15.277a29.159,29.159,0,0,1,15.073-10.945c10.569-3.357,21.239-6.344,32.517-6.21,2.284.027,4.58-.716,7.084-1.141.735-4.955,1.4-9.393,2.053-13.8C643.36,1088.648,636.469,1086.5,634.541,1079.573Zm-85.53-.251c-16.445-26.905-33.271-54.031-53.536-78.935-21.822,16.635-43.3,33.932-61.878,55.716q25.827,44.814,52.016,90.24C506.685,1124.07,527.538,1102.024,549.011,1079.323Zm117.537-134.1C648.7,942.057,631.7,939.052,614.5,936c-24.713,32.021-49.133,63.664-73.808,95.633a69.753,69.753,0,0,0,4.746,5.609c6.7,6.406,15.269,8.938,23.9,11.34,2.744.762,4.411-.55,6.156-2.483q21.649-23.969,43.443-47.813,22.168-24.385,44.306-48.8C664.218,948.412,665.035,947.181,666.548,945.218ZM793.392,805.157c2.148,12.225,4.092,23.753,6.216,35.25,2.143,11.623,2.227,23.605,5.688,35.944,26.361-2.072,52.272-4.106,79-6.208-2.679-22.073-5.279-43.522-7.882-64.987ZM588.215,821.4c1.206.289,1.693.583,2,.452,9.527-3.956,19.549-5.726,29.72-7,12.165-1.525,24.335-1.813,36.418.27a209.785,209.785,0,0,1,49.237,14.585,25.487,25.487,0,0,0,4.617,1.1c.381-6.161.727-11.713,1.029-16.546-7.378-3.964-14.114-7.474-20.741-11.182q-7.4-4.141-14.547-8.721a12.138,12.138,0,0,0-8.655-1.876c-15.925,2.181-31.866,4.255-47.8,6.341-7.112.931-14.242,1.734-21.343,2.742-2.478.351-5.505.185-6.295,3.548C590.581,810.539,589.418,815.987,588.215,821.4ZM750.959,600.075c-8.906.128-16.339,2.812-23.325,5.84a58.72,58.72,0,0,0-29.282,27.028l-4.729-4.076c-9.3,13.883-10.572,28.419-4.781,43.633,2.257,5.93,5.271,11.479,11.291,15.59.912-2.723,1.511-4.514,2.118-6.325-4.253-4.3-6.665-9.3-6.406-15.288.286-6.619,5.3-10.03,11.669-8.135,1.182.351,2.366.683,3.662,1.059,2.053-7.438,1.272-14.6.58-21.705-.133-1.375-1.8-2.682-2.932-3.85-1.233-1.271-2.7-2.333-1.059-4.77a12.487,12.487,0,0,0,12.061-.3c10.322-5.788,19.859-12.532,27.232-21.936C748.476,605.033,749.391,602.831,750.959,600.075ZM595.416,858.956c2.635-.267,5.01-.441,7.362-.762,8.827-1.2,17.667-2.3,26.461-3.7q21.228-3.39,42.389-7.169c4.087-.735,8.3-1.574,12.747-4.759-12.464-3.275-24.087-4.59-35.686-5.63-11.228-1-22.56-.882-33.614-3.569-1.468-.357-3.028-.308-4.528-.553a4.831,4.831,0,0,0-5.413,2.584c-1.683,2.788-3.559,5.462-5.44,8.125-1.04,1.476-2.622,3.03-4.234,1.5-.893-.847-1.062-3.213-.607-4.577a88.48,88.48,0,0,1,4.231-9.178l-10.828-.931C587.749,838.087,590.6,849.411,595.416,858.956Zm76.37,46.334h-52.83c0,.191-.152.7.022,1.026,1.732,3.264,3.343,6.608,5.336,9.706,1.674,2.606,1.6,4.748-.357,7.093-1.438,1.723-2.633,3.654-4.081,5.693,15.688,4.669,48.33,9.126,54.116,7.427a75.525,75.525,0,0,0-3.191-14.947C669.375,916.579,671.308,910.848,671.787,905.291ZM595.032,796.444l66.893-10.166c-1.307-1.04-1.925-1.587-2.6-2.058-10.509-7.389-20.733-15.064-29.5-24.607-2.973-3.232-7.166-5.342-11.065-8.154C609.416,765.853,600.943,779.618,595.032,796.444Zm47.361,276.821c13.491,5.6,27.4,1.443,40.557,5.688,3.3-8.843,6.3-16.9,9.445-25.329-12.492-7.082-26.067-6.79-39.318-9.17C649.377,1054.435,645.924,1063.741,642.393,1073.265ZM477.621,805.347l1.3.792c6.714-5.5,7.661-15.372,14.34-20.719,5.045,2.45,1.1,5.753,1.979,8.879,5.8-7.523,5.347-17.855,12.641-23.859-2.279-4.707-4.405-9.1-6.5-13.417-15.966,9.189-31.539,18.152-47.113,27.118l.7,1.323c1.459-.7,2.973-1.321,4.373-2.129,3.956-2.281,7.855-4.664,11.8-6.959,1.574-.912,3.224-1.7,4.487,1.451-6,6.156-15.922,8.258-19.835,17.194,5.581-3.251,10.8-6.995,16.023-10.725a25.985,25.985,0,0,1,4.324-2.864,3.01,3.01,0,0,1,2.823.471,2.959,2.959,0,0,1-.1,2.886,37.682,37.682,0,0,1-5.437,4.64c-3.515,2.529-6.488,5.432-7.773,9.823,5.3-3.7,10.3-7.729,15.271-11.789,1.516-1.239,2.946-2.856,4.778-.321Q481.647,796.273,477.621,805.347Zm87.6-60.881c-1.99-10.041-9.527-15.906-15.086-23.26a126,126,0,0,0-29.884,17.784c6.172,4.6,11.852,8.919,17.665,13.058a4.639,4.639,0,0,0,3.607.525C549.352,750.017,557.117,747.268,565.222,744.466Zm47.8,79.88.528,2c9.633,1.206,19.233,2.883,28.9,3.509a233.031,233.031,0,0,1,46.138,7.64c6.692,1.816,13.472,3.324,20.229,4.89a14.667,14.667,0,0,0,3.226.033,70.211,70.211,0,0,0-21.493-10.882c-9.984-2.9-20.009-5.682-30.077-8.274-14.572-3.749-29.3-2.913-44-.863C615.262,822.571,614.175,823.676,613.026,824.346Zm24.417,287.363c-13.246,2.251-25.552,4.364-35.719,12.644-2.227,1.811-4.471,4.049-4.468,8.073,2.5.43,4.819,1.252,7.079,1.127,6.276-.351,12.532-1.076,18.792-1.7,2.725-.27,5.44-.648,8.672-1.04C633.457,1125.2,635.281,1119.022,637.443,1111.709Zm18.149-16.671c-.349.517-.719.839-.8,1.22-1.217,5.821-.509,12.2-5.195,17.03-.52.536-.3,2.129.025,3.082.874,2.587,1.982,5.094,3.164,8.046,2.268-.683,4.065-.841,5.415-1.7,5.015-3.2,9.883-6.632,15.236-10.27-.732-4.6-1.568-9.856-2.4-15.067C665.658,1096.563,660.586,1095.795,655.592,1095.038ZM539.351,761.747c-8.938,3.275-12.81,5.527-16.066,9.17,8.985,11.623,18.748,16.91,27.847,14.686C551,775.839,545.534,768.807,539.351,761.747Zm306.471,27.591c.909,3.469,1.633,6.227,2.429,9.268l28.419-1.315c-.654-4.373-1.19-7.95-1.707-11.392,3.888-4.462,9.649-6.537,13.158-11.225-3.645,1.1-6.888,2.913-10.36,4-6.412,2.009-9.578,7.109-12.7,12.353-.427.721-.278,1.917-.828,2.4-.877.771-2.42,1.816-3.134,1.5-1.13-.5-2.586-2.091-2.5-3.1a12.277,12.277,0,0,1,2.165-5.274c1.949-3.009,4.182-5.838,6.295-8.74l-.92-1.04Zm-190.88,232.678c-4.269-1.391-7.624-2.769-11.114-3.558-5.938-1.345-10.52,1.233-14.161,5.764-2.935,3.651-2.352,6.785,1.748,8.816a32.521,32.521,0,0,0,18.239,3.646C651.323,1032.057,652.916,1027.633,654.942,1022.016ZM533.56,755.939c-6.646-4.811-12.38-8.96-18.481-13.379-3.381,3.025-6.532,5.843-9.812,8.775,3.158,5.522,4.266,11.522,9.829,15.032Zm-17.006,368.852c-7.988,7.727-15.508,15.242-21.825,25.138,10.245-2.807,19.78-4.356,28.376-8.38C520.894,1135.889,518.861,1130.686,516.555,1124.791ZM687.243,792.1c3.687,5.293,17.469,12.824,25.936,14.163.953-3.542,1.925-7.15,2.935-10.9C706.542,790.354,696.819,793.425,687.243,792.1ZM797.1,799.581c15.048-.417,30.093-.836,46.075-1.282-2.567-3.431-4.465-5.968-6.265-8.375C822.971,791.783,809.749,794.5,797.1,799.581ZM547.549,1066.075c3.093-4.994,5.783-9.344,8.443-13.641l-17.61-11.2-4.03,4.511C538.831,1052.641,543.054,1059.151,547.549,1066.075ZM599.9,743.758c-6.406,1.334-11.822,2.464-18.179,3.792,5.184,8.83,11.62,15.013,18.62,21.136C600.753,760.483,595.667,752.746,599.9,743.758ZM713.384,928.937c-5.625-5.187-15.192-6.518-25.359-3.6,1.217,3.616,2.426,7.207,3.553,10.558C699.724,935.831,706.155,933.759,713.384,928.937Zm-69.523,152.292c11.089,7.732,22.015,10.286,33.971,8.375,3.047-.487,3.608-2.655,1.579-6.26ZM431.545,797.182c3.874,2,7.49,3.877,11.122,5.723,3.793,1.93,7.6,3.825,11.577,5.818.487-2.747.855-4.827,1.146-6.461-2.548-.923-5.742-1.138-6.908-2.785-1.056-1.495.1-4.552.242-6.5l-12.012-2.7a42.137,42.137,0,0,0-2.9,3.1A34.248,34.248,0,0,0,431.545,797.182Zm210.121,262.772c-5.554-.844-15.113.354-17.989,2.407-1.408,1-2.257,2.794-3.474,4.378,5.453,4.343,11.2,5.138,17.411,6.224C638.957,1068.656,640.22,1064.59,641.666,1059.954ZM583.608,804.321c-3.7.534-6.671.836-9.586,1.421-2.687.536-5.031,1.873-5.489,4.846-.485,3.153.261,6.213,2.911,8.174a8.471,8.471,0,0,0,8.68,1.337C581.245,815.024,582.348,810.028,583.608,804.321Zm-28.239,295.142c-3.085,9.886-.1,17.833,1.438,25.59l10.978-7.547C564.073,1112.115,560.071,1106.3,555.369,1099.463Zm121.36-1.5c5.584,2.861,19.745,1.854,25.416-1.928-3.515-6.006-9.1-8.413-15.835-10.267,1.7,6.444.988,7.877-4.04,9.6C680.352,1096.021,677.9,1095.588,676.728,1097.962ZM458.066,811.024c7.163,3.39,13.706,6.632,20.385,9.567,2.527,1.113,4.511-.411,4.4-2.872-.114-2.557-.305-5.108-.444-7.395-1.925,1.438-3.839,3.275-6.1,4.443-3.153,1.634-5.1.471-5.227-3.115a35.455,35.455,0,0,1,.961-7.044c.212-1.271.58-2.516.98-4.2Zm57.309-75.9c4.405-3.335,8.429-6.382,12.911-9.777-4.865-3.294-9.551-3.961-14.2-4.348-3.509-.291-5.1,1.712-4.871,5.255C509.462,730.107,512.073,732.339,515.376,735.125Zm289.2,145.945.106,1.217a10.837,10.837,0,0,0,3.017.681q33.8-2.323,67.587-4.792a4.387,4.387,0,0,0,1.7-.82c.136-.079.155-.4.174-.61a4.048,4.048,0,0,0-.106-.754Q840.827,878.528,804.574,881.07Zm-11.609-28.721,1.6-.536c-1.462-7.751-2.927-15.5-4.465-23.657-3.471.811-6.276,1.465-9.93,2.32C784.791,838.373,788.877,845.359,792.964,852.349Zm-239.452-140.2L565.426,707c-5.7-6.371-10.226-8.119-16.554-6.627C548.883,705.29,549.422,706.684,553.512,712.153Zm18.922,165.7h23.058c-1.742-3.382-3.39-6.572-5.168-10.017C583.6,870.405,576.924,871.658,572.434,877.854Zm199.59,315.684c2.11-2.815,3.719-4.963,5.916-7.893l-14.242-4.593c-1.522,2.954-2.657,5.162-4.049,7.86C764.058,1190.56,767.818,1191.965,772.024,1193.538ZM693.971,893.226c-3.97-1.1-7-2.23-10.139-2.733-6.11-.983-7.444.757-5.769,7.261C683.317,897.678,689.133,900.025,693.971,893.226ZM667.51,1159.72c11.718,1.786,21.912,3.5,32.155,4.814,3.376.433,6.888-.191,10.338-.332-.019-.555-.038-1.11-.057-1.663C696.31,1161.093,682.7,1159.277,667.51,1159.72Zm-133.922-20.2q-3.149-5.288-6.3-10.58c-1.939-3.243-1.331-7.975-6.518-10.687C522.128,1127.993,524.306,1135.924,533.587,1139.524Zm164.032-81.805c-1.31,3.153-2.5,6.017-3.872,9.331h11.185C703.933,1062.589,701.273,1060.253,697.619,1057.719ZM484.759,806.651l.781.678c1.527-1.291,3.055-2.578,5.315-4.484v7.139c2.57-2.69,4.285-4.49,6.66-6.973l-8.615-3.695C487.264,802.214,486.012,804.432,484.759,806.651Zm22.122,356.358,11.291-2.941c-4.62-4.775-4.62-4.775-12.418-.585Zm98.4-404.788,1.514.36,5.328-10.793c-3.689.757-5.816,1.192-8.212,1.685C604.434,752.819,604.856,755.52,605.278,758.221Zm116.151,40.11c-.681,3.251-1.277,6.085-1.873,8.93,4.776,1.557,5.44-2.015,6.352-4.272C726.951,800.4,724.911,799.172,721.429,798.331Zm159.117,4.237c4.786-1.353,9.567-.645,13.681-3.956C887.484,796.8,883.4,797.9,880.547,802.568Zm-285.3,101.163c6.521,2.584,10.616,2.668,14.607.49C604.733,902.446,599.939,903.181,595.245,903.731Zm85.491,21.177-1.179.335c.417,3.591.73,7.2,1.372,10.746.082.457,1.876.6,4.016,1.228C683.287,932.37,682.01,928.64,680.736,924.907Zm36.87-101.936,6.831-5.413c-2.614-1.451-4.326-2.4-6.831-3.8ZM567.082,751.431c-2.987,1.367-5.737.825-7.645,4.024,2.867.542,5.192.98,8.065,1.525C567.338,754.826,567.248,753.636,567.082,751.431Zm162.97,105.612c-2.6-2.064-4.032-4.3-7.441-3.341.917,2.227,1.7,4.125,2.578,6.273C726.793,859.008,728,858.281,730.052,857.042Zm-150.664-23.11c-1.617,2.608-2.641,4.261-4.163,6.719,2.513.346,3.98.547,5.952.817C580.559,838.871,580.123,837.031,579.388,833.932Zm310.293-49.778-.542-1.495q-4.578,1.728-9.156,3.458l.425,1.141Zm-6.036,7.947c.065.5.131.988.2,1.481l7.825-1.359-.185-1.165Zm-209.6,340.749c-.408-1.083-.536-2.083-.86-2.151a5.791,5.791,0,0,0-2.162.373c.147.542.147,1.413.468,1.555A8.53,8.53,0,0,0,674.049,1132.85Z" transform="translate(933.47 -512.27)" fill="#006cff"/>
      <path id="Trazado_1112" data-name="Trazado 1112" d="M249.453,914.568c-7.547-8-17.166-11.928-27.812-12.677a236.113,236.113,0,0,0-45.575.8c-12.742,1.574-25.539,2.7-38.3,4.147s-25.484,3.079-38.232,4.552c-2.886.332-4.656,1.642-6.9,3.733-8.261,7.7-9.292,17.417-9.184,27.564a292.544,292.544,0,0,0,4.275,46.065c3.463,20.346,5.9,40.864,9.118,61.257,1.625,10.308,4.043,20.488,5.968,30.753.411,2.189,1.762,5.557-1.378,6.172-3.814.749-3.254-3.1-3.727-5.478q-7.4-37.107-14.765-74.225c-.585-2.951-1.059-5.927-1.764-9.9-4.588,3.294-8.606,6.042-12.478,8.977q-43.976,33.346-87.9,66.757c-5.415,4.117-7.43,3.921-12.116-1.285-1.574-1.751-3.1-3.55-4.974-5.71a50.152,50.152,0,0,0-4.348,4.177c-5.358,6.556-10.52,13.27-15.933,19.777-6.79,8.162-13.981,8.655-21.73,1.173a49.572,49.572,0,0,1-7.751-10.321c-2.107-3.529-3.5-7.482-5.206-11.245a33.1,33.1,0,0,0-16.508-16.761c-6.679-3.243-12.407-8.437-19.023-13.1,3.676,11.152,7.61,22.16,10.9,33.353,3.251,11.049,5.587,22.364,8.821,33.418,3.292,11.245,7.191,22.312,10.9,33.693,6.317,0,12.394.082,18.465-.019,13.932-.229,27.861-.555,41.79-.82a9.447,9.447,0,0,1,3.866.291c1.024.463,2.276,1.7,2.331,2.668.052.893-1.168,2.2-2.148,2.723a8.508,8.508,0,0,1-3.806.6c-31.566.1-63.144,1.331-94.689-.863q-27.293-1.9-54.584-3.932a31.821,31.821,0,0,1-3.232-.632c.466-5.513,3.768-9.668,6.033-14.169,2.448-4.86,5.227-9.549,7.7-14.395,2.371-4.65,4.4-9.478,6.828-14.1,2.382-4.536,5.072-8.909,8.212-14.37-4.683-22.342-9.671-46.133-14.683-70.035,3.983-2.284,7.438-4.525,11.125-6.276a13.467,13.467,0,0,1,6.246-1.217c7.15.381,14.283,1.07,21.419,1.707a4.45,4.45,0,0,1,2.363.9c2.712,2.309,5.238,2.644,8.075.079a4.261,4.261,0,0,1,3.588-.9,93.983,93.983,0,0,1,12.772,5.854c1.413.814,2.412,3.15,2.706,4.936.7,4.261,3.117,7.161,6.488,9.355,10.1,6.578,20.771,12.031,32.805,13.864,3.618.553,7.506-.662,11.991-1.143-1.315-4.046-2.339-7.043-3.262-10.071-.942-3.1-.569-4.966,2.616-7.458,14.893-11.658,29.127-24.158,43.838-36.062,27.42-22.179,55-44.153,82.524-66.212,2.491-2,5-3.97,8.574-6.807-5.031,0-8.6-.152-12.143.041-3.9.212-7.781.833-11.683,1.111-4.408.31-4.871-.155-5.168-4.452-.106-1.508-.155-3.019-.223-4.392-.509-.4-.836-.888-1.19-.909C42.67,904.76,39.3,900.4,36.228,895.022,25.1,875.571,13.379,856.461,2.518,836.868c-4.936-8.9-8.634-18.528-12.369-28.033a29.541,29.541,0,0,1-1.718-11.481c.226-6.9,6.488-9.8,11.944-5.519a21.824,21.824,0,0,1,5.816,7.675c12.532,26.317,24.82,52.754,37.325,79.085,3.439,7.237,7.365,14.242,11.285,21.77,12.415-1.122,24.24-2.189,35.942-3.248l3.8-8.173a34.6,34.6,0,0,1-5.916-.732c-3.4-1.013-4.03-4.394-1.067-6.379a27.74,27.74,0,0,1,7.713-3.382c9.6-2.772,19.17-5.775,28.939-7.784,4.966-1.024,10.371-.487,15.506.035,5.173.528,10.259,1.9,15.378,2.924,4.419.888,8.519.937,12.227-2.456,1.68-1.536,4.174-2.186,6.66-3.417-.866-3.324.46-5.2,3.8-6.741,3.888-1.8,7.259-4.745,10.8-7.272,7.615-5.442,15.247-10.869,22.745-16.472,1.424-1.065,3-2.8,3.254-4.416,1.892-12.227,3.471-24.507,5.247-37.491q-5.256-1.47-10.46-2.932c-6.894-1.944-14.011-3.327-20.649-5.93a268.629,268.629,0,0,1-84.157-52.724c-7.15-6.559-15.579-11.724-23.426-17.523a11.481,11.481,0,0,1-1.078-.73c-6.17-5.788-12.331-11.59-18.7-17.58l3.45-9.224c-11.117-12.663-22-25.084-30.859-39.089a13.192,13.192,0,0,1-2.061-6.088c-.286-5.837-.272-11.7-.054-17.547.076-2.078.5-4.618,1.767-6.091,6.314-7.365,12.443-15.2,23.382-15.819a11.389,11.389,0,0,0,2.614-.844c2.728-7.275,5.358-14.632,8.25-21.887,3.1-7.795,3.477-7.172,11.62-8.065,3.235-.354,4.5,1.037,3.869,4.3-1.146,5.973-2.619,11.884-4.062,17.8-.61,2.494-1.481,4.631.082,7.4.986,1.743.564,4.746-.144,6.88-1.429,4.307-3.6,8.367-5.244,12.611-1.323,3.409-3.256,6.935-3.278,10.42-.038,6.7-1.721,12.432-6.779,17.447L76.9,663.8c5.045-3.229,7.966-.452,10.961,3.637,10.183,13.9,23.213,24.716,38.112,33.173a306.594,306.594,0,0,0,28.493,14.493c18.127,7.912,35.955,16.6,54.968,22.383,3.885,1.184,7.558,3.068,11.511,4.7.43-4.389-2.358-5.475-5.2-6.51-7.073-2.578-12.737-6.929-15.462-14.052-1.748-4.563-2.5-9.51-3.733-14.438l8.193-3.934c-1.65-2.154-4.04-2.456-6.088-3.27-5.486-2.181-5.492-2.154-5.255-8.576a7.7,7.7,0,0,0-.261-1.47c-3.458-1.982-7.133-3.869-10.564-6.126a39.209,39.209,0,0,1-7-5.794c-1.914-2.042-3.708-4.588-2.276-7.64,1.326-2.829,3.989-3.773,6.97-4.092,3.45-.368,6.875-.961,10.324-1.334a8.062,8.062,0,0,0,7-4.887c2.627-5.225,5.941-10.1,9.23-15.568-4.187-3.087-8.337-6.134-12.475-9.194-4.37-3.232-8.819-6.36-13.047-9.766a13.362,13.362,0,0,1-4.03-5.04,6.65,6.65,0,0,1,.3-5.328c.607-.966,3.254-1.478,4.585-1.018,6.559,2.262,13.112,4.637,19.418,7.515s12.306,6.39,18.5,9.66c6.521-5.426,13.287-9.581,21.324-11.511,14.966-3.6,28.435-.177,40.687,8.557a113.009,113.009,0,0,1,11.784,10.292,36.39,36.39,0,0,1,10.136,18.683c1.073,4.816-.2,10.332-1.222,15.372-.561,2.758-3.036,5.083-1.4,8.32.248.493-.378,1.846-.977,2.276-3.771,2.709-3.142,6.692-3.58,10.553a148.861,148.861,0,0,1-3.343,19.938c-.809,3.18-3.115,6.164-5.317,8.751a6.458,6.458,0,0,0-1.487,6.537,81.307,81.307,0,0,1,2.143,8.878c.8,5.159,2.785,9.709,6.779,13.033,5.862,4.873,6.847,12.377,10.327,18.517.915,1.614.158,4.266-.063,6.42-2.393,23.194-3.727,46.509-2.184,69.73,1.628,24.51,5.029,48.9,7.743,73.332.359,3.232,1.454,6.385,1.811,9.617a69.55,69.55,0,0,1,.694,12.938c-.425,5.391-1.56,6-7.027,5.685a7.244,7.244,0,0,0-6.208,2.469c-3.776,3.839-8.241,6.995-13.088,10.978,2.129,0,3.858.022,5.587,0,3.817-.055,5.4.877,4.618,4.313-1.048,4.637,2.747,9.211-.384,13.877-.485.721,1.772,3.7,3.213,5.195a49.483,49.483,0,0,0,6.978,5.892c2.96,2.1,4.019,4.757,3.934,8.353-.517,21.988-.8,43.984-1.329,65.973-.6,24.817-1.4,49.626-2.088,74.44a28.421,28.421,0,0,0,.332,3.43,19.366,19.366,0,0,0,3.128.763c20.4,1.519,40.834,2.733,61.2,4.629,7.073.659,14.022,2.867,20.948,4.664,1.378.359,3.281,2.018,3.352,3.175.079,1.239-1.478,2.981-2.769,3.793a9.537,9.537,0,0,1-4.947,1.242c-11.746-.12-23.491-.3-35.231-.651-8.478-.253-16.943-.907-25.419-1.2-21.972-.754-43.971-1.04-65.921-2.233-13.665-.746-27.257-2.826-40.889-4.253-3.243-.338-6.51-.493-9.769-.662q-23.769-1.221-47.538-2.423c-1.3-.068-2.578-.406-3.869-.6-3.226-.469-5.271-1.857-4.8-5.584a23.1,23.1,0,0,0-.346-4.37,34.826,34.826,0,0,0-3.618,1.767,39.554,39.554,0,0,1-17.044,6.093c-11.539,1.437-15.862,3.58-22.824,10.877,2.241.237,4.076.466,5.916.621q23.74,2.009,47.48,3.992c6.058.5,12.124.907,18.187,1.358a7.279,7.279,0,0,1,1.917.237c.588.215,1.533.681,1.541,1.057.106,4.37,4.31,5.023,6.472,7.5.3.341-.4,2.252-1.073,2.592a13.02,13.02,0,0,1-4.944,1.421c-28.746,1.917-56.786,7.983-84.773,14.34-13.57,3.082-27.063,6.491-40.622,9.614a19.31,19.31,0,0,1-6.42.242q-26.913-3.1-53.808-6.4c-7.332-.9-14.7-1.694-21.945-3.069-4.217-.8-8.288-2.516-12.317-4.095-3.011-1.182-5.464-3.659-5.181-6.853.31-3.55,3.51-5.437,6.815-6.153,6.8-1.473,13.649-2.712,20.5-3.9,18.413-3.2,36.843-6.316,55.256-9.521a57.378,57.378,0,0,0,5.734-1.62c.839-2.6,1.636-5.064,2.6-8.046-1.639-.681-3.169-1.288-4.675-1.947-4.321-1.881-7.871-4.517-9.676-9.143-2.4-6.145.338-9.894,6.94-9.156a23.069,23.069,0,0,1,4.359,1.266c2.037.659,4.062,1.361,6.281,2.11,2.1-7.3,3.839-14.242,6.11-21,1.933-5.761,4.386-11.356,6.8-16.943a10.133,10.133,0,0,1,3.074-4.076c3.229-2.36,6.673-1.263,7.64,2.595a14.451,14.451,0,0,1-.182,6.984c-2.619,9.652-5.513,19.233-8.326,28.833-.607,2.08-1.293,4.136-2.121,6.763,1.544-.1,2.853.144,3.863-.3,6.76-2.951,13.453-6.053,20.172-9.1,6.366-2.883,11.01-7.743,14.917-13.325,3.7-5.29,5.557-11.152,4.6-17.6l-8.3-2.916.185-1.677a41.047,41.047,0,0,1,4.6-.711c9.78-.433,19.573-.6,29.339-1.244,6.153-.4,11.775-2.739,17.52-6.611-2.352-14.474-4.909-29-7.035-43.59-2.194-15.062-4.008-30.181-5.922-45.283-1.233-9.706-2.2-19.426-6.047-28.615-2.538-6.061-1.026-7.792,5.677-7.487,5.652.259,11.307.484,16.965.6,23.94.506,47.878,1.084,71.818,1.4a222.162,222.162,0,0,0,42.212-3.686c7.613-1.364,13.66-5.29,19.208-10.186-.152-.588-.136-1.2-.362-1.31-14.694-7.019-27.126-17.267-39.508-27.591a25.258,25.258,0,0,0-2.7-1.74Zm5.366-221.962.172-.172a17.921,17.921,0,0,0-2.638,2.619c-7.229,10.863-14.463,21.724-21.528,32.694a98.475,98.475,0,0,0-4.735,9.358,41.138,41.138,0,0,0,17.572,9.785c9.791-22.96,11.972-25.111,27.785-27.428,2.913-4.166,6.009-8.367,8.857-12.728,2.924-4.479,2.38-6.88-2.094-9.608-4.25-2.592-8.628-4.974-12.949-7.449l-1.694-1.28-4.89-3.2C257.22,687.993,256.02,690.3,254.819,692.606Zm14.359-7.98,1.625,1.857q3.745,1.772,7.493,3.542,3.377,1.871,6.755,3.738c4.046,4.784,3.518,9.725.373,14.648a47.337,47.337,0,0,1-3.594,4.378l-2.783,7.057c4.43-2.273,2.516-4.993,2.793-7.112,1.631,1.239,3.264,2.475,4.936,3.744.515-.662,1.239-1.16,1.258-1.682.275-7.814,1.941-15.4,3.591-23a17.127,17.127,0,0,0,.079-1.952c.329-3.275-.961-5.119-4.215-6.306-4.468-1.631-8.7-3.912-13.006-5.982-10.185-4.9-20.344-9.862-30.543-14.732a13.105,13.105,0,0,0-3.224-.58c-1.672,5.788,2.075,9.881,3.343,14.534.909,3.327,3.166,4.971,6.376,5.606l-.163-.049c1.375,2.284,2.9,2.246,4.748.038-1.38-3.305-2.45-6.853-.275-11.95,1.694,4.906,3.515,8.233,7.645,9.284.136.035.245.338.3.534C263.6,683.566,266.464,683.986,269.178,684.625ZM288.8,678.1l4.432,2.671.553-1.484-5.116-1.045c-3.134-2.84-3.3-6.077-.757-9.227,2.951-3.648,6.221-7.041,10.1-11.381-4.776-17.153-17.256-27.665-34.61-33.331-4.392-1.435-8.824-1.19-13.42-.858l1.3,5.056-5.846,1.01c-.016,5.772-.8,7.139-4.511,8.19-5.189,1.465-8.892-.419-12.715-6.676l-3.5,2.026c2.328,3.191,4.811,5.976,6.592,9.156,4.648,8.293,12.01,13.7,19.894,18.158,10.2,5.777,20.88,10.716,31.417,15.887A37.666,37.666,0,0,0,288.8,678.1Zm-77.059,196.05a25.669,25.669,0,0,0,3.49-1.663c17.518-11.787,35.125-23.418,54.8-31.422,2.616-1.065,3.422-2.973,3.725-5.516.591-4.966,1.391-9.908,1.993-14.874,1.775-14.683,3.485-29.372,5.247-44.055a12.276,12.276,0,0,1,.915-4.427c.6-1.078,2.061-1.68,3.142-2.494a32.679,32.679,0,0,1,2.039,3.646c.21.5-.226,1.255-.31,1.9q-3.529,26.513-7.044,53.024c-.43,3.232-1.59,6.526-1.239,9.663.558,5.031-2.121,6.684-6,8.541-11.552,5.535-23.039,11.245-34.292,17.362-6.671,3.627-12.837,8.182-19.263,12.266-9.608,6.1-9.625,6.082-10.09,17.333-.014.359.329.732.466,1.016,6.507.664,13.017,1,19.4,2.061,11.144,1.851,19.859,8.427,28.327,15.388,10.082,8.29,19.99,16.8,31.409,23.328A43.607,43.607,0,0,0,309.61,940.8c-.362-2.355-.583-4.427-1.01-6.458-.942-4.465-2.333-8.862-2.93-13.368-2.018-15.3-3.82-30.627-5.609-45.956-3.7-31.681-3.417-63.427-.986-95.16.86-11.22-2.361-20.6-10.814-27.869-3.828-3.292-5.938-7.261-7.8-11.754a43.907,43.907,0,0,0-6.115-10.613c-4.2-5.219-8.312-5.418-13.559-1.359a26.616,26.616,0,0,0-3.256,3.183c-5.848,6.42-7.681,14.6-9.118,22.688-3.041,17.115-5.562,34.325-8.244,51.5-.626,4.027-1.046,8.084-1.468,11.395,1.979,1.318,3.831,1.93,4.378,3.134.359.787-1,2.581-1.914,3.654a14.821,14.821,0,0,1-3.137,2.32c-6.679,4.5-13.431,8.892-20.036,13.5-12.633,8.813-25.185,17.744-38.2,26.924L192.9,887.872c6.8-4.966,12.895-9.42,18.991-13.875Zm46.165,105.9H212.746c-3.352,8.334-3.352,8.334-12.385,7.877-1.084-.057-2.17-.117-3.256-.188-9.527-.623-12.135,1.468-13.344,10.741-.112.86-.114,1.734-.142,2.606-1.114,33.908-2.309,67.813-3.286,101.724-.313,10.828-.049,21.672-.049,32.217,8.928,2.992,89.249,8,101.89,6.6.509-9.276,1.075-18.533,1.514-27.8.479-10.2,1.16-20.415,1.2-30.627.1-27.616-.054-55.234-.242-82.851-.019-2.709-.983-5.41-1.514-8.141-5.8-.422-10.986-.947-16.178-1.149-8.688-.332-8.685-.245-8.446-9.213A7.761,7.761,0,0,0,257.909,980.05Zm-282.163,89.066c1.353-.926,2.26-1.481,3.093-2.126q27.9-21.539,55.785-43.1c13.6-10.5,27.137-21.092,40.875-31.414,3.627-2.725,4.58-5.72,3.964-10.038-2.679-18.756-4.051-37.575-1.348-57.037a44.943,44.943,0,0,0-4.13,2.546Q54.231,943.485,34.534,959.1c-9.374,7.438-18.656,15-28.049,22.416q-23.315,18.406-46.748,36.666c-4.057,3.158-8.394,5.954-13.1,9.265C-46.857,1043.039-34.708,1055.313-24.253,1069.117ZM221.132,787.425c1.62-8.549,3.191-16.635,4.675-24.735.972-5.3,2.246-7.272,4.6-6.349,3.738,1.465,2.366,4.653,1.876,7.3-2.646,14.316-5.467,28.6-8.067,42.92-1.389,7.643-2.45,15.342-3.659,23.015l1.163.792c2.856-1.846,5.65-3.8,8.593-5.5,2.548-1.473,3.24-3.545,3.572-6.387,1.851-15.947,3.951-31.869,6.012-47.791.716-5.53,1.571-11.04,2.352-16.488-5.38-2.578-9.311-5.636-15.084-5.8a57.734,57.734,0,0,1-18.294-3.847Q184.472,735.373,160.5,725.1c-21.664-9.235-42.4-19.965-60.326-35.784A205.71,205.71,0,0,1,84.83,674.6c-1.111-1.2-2.156-2.467-3.635-4.166A115.335,115.335,0,0,0,67.83,696.85c10.469,8.176,20.532,16.069,30.63,23.919,12.178,9.47,24.115,19.279,36.636,28.275C160.925,767.607,188.838,781.775,221.132,787.425ZM72.453,1152.732l.806,1.5a58.426,58.426,0,0,0,5.946-3.071c3.256-2.154,6.224-4.776,9.595-6.712,1.108-.637,3.088.242,4.669.43-.283,1.544-.234,3.259-.926,4.593-1.081,2.1-4.179,2.978-4.087,5.641,5.372-.4,10.439-.534,15.418-1.266a13.523,13.523,0,0,0,6.4-2.913,44.97,44.97,0,0,1,26.845-10.491,21.873,21.873,0,0,0,15.44-7.558c2.935-3.376,5.072-7.289,3.224-11.914-3.286-8.22-6.823-16.341-10.18-24.327H120.717c-.381,2.11-.648,3.809-1,5.489a42.474,42.474,0,0,1-20.97,29.181c-6.869,4.038-14.226,6.365-21.795,8.386-1.465.392-3.744.231-3.431,3.052l5.557,1.228C79.847,1149.329,75.4,1150.5,72.453,1152.732Zm-123.4-107.4c-5.364.969-9.954,2.962-14.155,2.341-14.182-2.1-27.028-7.956-38.6-16.415-3.812-2.785-6.4-6.494-6.311-11.552.049-2.712-1.056-4.473-4.258-4.792-.912,3.556,3.695,6.281.912,10.654-1.448-1.206-3.093-1.968-3.708-3.232a35.063,35.063,0,0,1-1.993-6.776c-.457-1.792-.773-3.641-3.45-3.855,1.329,4.775,2.527,9.085,3.828,13.769-5.7.563-11.008.163-16.48,3.82,2.946,0,4.863.31,6.63-.068,3.294-.705,5,.267,6.649,3.379a30.63,30.63,0,0,0,7.329,8.841,52.928,52.928,0,0,0,11.492,7.332c6.894,3.213,11.514,8.408,14.822,14.983,1.851,3.684,3.526,7.46,5.17,11.242a29.425,29.425,0,0,0,9.4,12.233c5.451,4.106,6.747,4.253,11.291-.735,7.558-8.3,15.086-16.616,22.919-25.247C-43.228,1056.034-47.268,1050.428-50.944,1045.337ZM61.685,1161.589c-.858,3.39-2.3,6.347-2.194,9.246.21,5.78-3.9,8.957-6.782,12.815-1.639,2.194-4.383,1.6-4.982-1.07a30.224,30.224,0,0,1-.387-9.48c.272-2.673,1.429-5.257,2.235-8.023-12.532-.24-62.572,8.59-66.512,11.318l69.425,12.173a31.6,31.6,0,0,0,13.488-.623c18.745-4.719,37.564-9.154,56.416-13.423,11.615-2.627,23.341-4.768,36.037-7.335-12.6-1.348-24.234-2.619-35.879-3.834-6.7-.7-13.581-.588-20.061-2.154-6.706-1.617-13.867,1.947-20.2-2.3-.727-.487-2.135-.065-3.2.087C73.5,1159.792,67.933,1160.647,61.685,1161.589ZM202.71,711.4c1.078,11.182,5.527,18.136,17.945,19.236,3.567-5.4,6.945-10.673,10.49-15.832,2.456-3.577,5.211-6.948,7.675-10.52a7.125,7.125,0,0,0,1.56-4.038c-.395-5.355-1.149-10.684-1.849-16.7l-20.8-10.616c-2.633.923-4.811,2.472-6.453,2.031-1.5-.4-2.423-2.962-3.787-4.827-1.056,1.451-2.053,2.826-3.058,4.2-1.721,2.342-3.572,4.5-6.929,3.861-3.256-.623-3.474-3.469-4.25-5.914-.109-.343-.572-.574-.272-.291H179.243l-.376,1.282q5.844,3.937,11.686,7.877c7.58,5.14,7.574,5.143,9.132,13.943,5.189,1.794,10.548,3.649,16.341,5.65C212.787,706.739,207.227,708.236,202.71,711.4ZM176.142,978.068c-.879,3.267-1.963,5.925-2.257,8.669-.67,6.251-1.179,12.538-1.353,18.822q-1.6,57.748-2.992,115.5c-.147,6.031-.019,12.067-.019,18.125,5.919-.261,6.178-.582,6.175-5.505,0-15.219-.21-30.445.128-45.659q.854-38.165,2.355-76.319a187.679,187.679,0,0,1,2.366-21.3c.558-3.649,3.2-5.65,6.766-7.2,4.963-2.156,9.783-1.212,14.727-.977,1.715.082,4.021,1.495,4.822-1.522-.24-.368-.455-1.013-.705-1.026C196.429,979.119,186.7,978.621,176.142,978.068Zm116.625,163.64c.37-21.281.662-42.362,1.13-63.438.387-17.4,1.1-34.793,1.44-52.193.229-11.732.158-23.472.022-35.207-.068-5.72-5.1-11.465-10.332-11.473-7.131-.014-14.261.6-21.547.958v4.765c4.9.245,9.45.275,13.954.738,7.754.792,10.727,3.183,11.528,10.733a332.082,332.082,0,0,1,2.268,33.8c.074,20.442-.721,40.881-1,61.325-.2,14.977-.1,29.96-2.513,44.812a10.71,10.71,0,0,0,.3,3.885C288.528,1142.748,290.1,1142.84,292.767,1141.708ZM291.3,965.642c-9.216,0-17.931-.667-26.513.125a471.223,471.223,0,0,1-79.4.281c-2.921-.223-5.875-.03-9.224-.03l.8,6.219c7.523,1.846,106.84,1.808,114.343-.027Zm6.809,176.436,1.462.738c.781-.523,2.056-.909,2.243-1.593a21.533,21.533,0,0,0,.528-5.159c.583-23.486,1.1-46.974,1.707-70.46.558-21.525,1.217-43.051,1.824-64.573.169-5.987.155-5.987-4.242-7.8Q299.876,1067.451,298.109,1142.078ZM155.932,1028.748c.272-7.348.291-14.721.9-22.043a127.484,127.484,0,0,1,2.725-18.628,25.525,25.525,0,0,1,9.238-14.61c2.924-2.224,2.9-4.359,1.941-7.7-8.726-.409-17.45-.82-26.769-1.255C151.276,986.032,151.23,1007.767,155.932,1028.748Zm-48.022-144.1.585,1.04c1.269-.642,2.5-1.35,3.806-1.914,4.969-2.162,9.921-4.367,14.966-6.333,1.029-.4,2.434.161,3.665.278l.324,1.623-10.7,5.636c1.96.193,3.618-.43,5.306-.525,5.56-.316,11.4-2.151,16.513,1.31,6.921,4.688,14.256,4.609,21.86,2.682,6.24-1.582,12.445-3.316,18.65-5.034.313-.084.5-.634.909-1.2-2.121-3.36-4.3-6.807-6.657-10.537-2.254,1.315-4.443,2.066-5.9,3.54-4.9,4.947-10.689,5.162-16.91,3.833-6.788-1.449-13.529-3.207-20.379-4.237-3.5-.528-7.629-.713-10.727.645C117.815,877.831,112.982,881.517,107.91,884.651Zm59.18,98.187c-1.089,2.281-2.679,4.46-3.172,6.864a134.125,134.125,0,0,0-2.614,17.379c-.515,7.155-.561,14.367-.422,21.547.144,7.6.882,15.187,1.1,22.786.161,5.617.8,11.452-.441,16.807-1.037,4.49-1.647,9.3.2,12.636,2.723,4.9,1.247,7.506-1.146,9.3,0,8.086.03,15-.011,21.923-.03,4.969.376,6.221,3.85,10.335C164.544,1075.8,165.745,1029.5,167.09,982.838ZM46.032,650.467l1.7-4.762c-1.966.229-4.005,1.013-4.22,2.143-.487,2.543-1.876,5.17.583,7.893,6.834,7.566,13.341,15.426,20.012,23.143.9,1.037,1.988,1.906,3.3,3.147,1.781-3.676,3.147-6.872,4.844-9.88,1.315-2.331.708-4.038-.866-5.854-2.981-3.447-5.848-6.989-8.8-10.46-4.394-5.165-4.492-6.044-.855-11.933,1.792-2.9,3.5-5.783,1.307-9.723C61.391,643.413,54.75,646.949,46.032,650.467Zm2.1,249.161c-3.019-5.758-6.047-11.492-9.034-17.248-2.905-5.6-5.8-11.2-8.642-16.834-2.935-5.829-5.78-11.7-8.693-17.542s-5.924-11.623-8.775-17.491c-2.755-5.671-5.176-11.509-8.081-17.1-2.867-5.522-3.657-12.211-9.077-16.54a14.314,14.314,0,0,0,.272,7.5C-.408,813.5,2.666,822.893,7.2,831.5c11.735,22.315,24.177,44.257,36.279,66.381C44.619,899.974,45.9,900.843,48.131,899.628Zm129.155-9.1c-10.433,3.978-20.178,5.753-30.32,4.375a12.113,12.113,0,0,0-3.218.436c-8.585,1.288-17.139,2.88-25.764,3.79-11.441,1.206-22.936,1.868-34.4,2.8-1.723.139-3.441.428-5.146.73-2.469.438-2.766,2.091-2.423,4.155,8.519.6,95.691-9.3,101.653-11.56Zm59.749-230.876c-5.377-2.941-10.03-5.677-14.852-8.067-3.94-1.952-7.348-.6-8.84,3.482a92.952,92.952,0,0,0-2.388,9.039c8.734,4.577,17.079,8.724,26.922,12.938C235.336,670.645,233.16,665.559,237.035,659.651Zm-390.513,439.176-16.472,29.927c8.666-1.389,16.431-2.63,24.58-3.937C-148.061,1116.2-150.555,1108.195-153.479,1098.826Zm-12.875-83.684-2.287.4c.3,1.971.468,3.972.918,5.908,4.128,17.763,8.105,35.563,12.56,53.244,1.974,7.839,4.944,15.424,7.46,23.124l.664-.261Q-156.7,1056.35-166.354,1015.143ZM77.272,579.517c-5.424,2.05-5.257,7.063-7.191,10.817a99.674,99.674,0,0,0-4.767,12.037c-1.517,4.22-2.853,8.508-4.4,13.161l5.568,2.908C70.2,605.023,73.735,592.27,77.272,579.517ZM38.134,1190.408Q5.2,1184.992-27.733,1179.58C-22.021,1184.617,22.655,1192.012,38.134,1190.408Zm-219.762-53.969H-153.6c-3.869-1.086-7.762-.844-11.612-1.157-3.676-.3-7.956,1.181-10.921-2.973,4.484-11.838,11.991-22.315,15.457-34.638Zm255.061-34.422c-5.609,8.642-11.931,30.279-12.377,41.2.841-.144,2.219-.122,2.3-.427C66.678,1129.652,69.888,1116.485,73.433,1102.017ZM203.1,887.717c-.86-.109-1.124-.231-1.282-.15-1.707.89-3.392,1.824-5.094,2.723-4.672,2.467-4.874,2.628-8.734-1.448-2.352-2.48-3.578-1.105-5.1.438.83,2.328,1.606,4.5,2.464,6.9,5.426-.509,10.711-1,16.355-1.536C202.22,892.117,202.658,889.936,203.1,887.717ZM56.98,631.92c-5.306-5-11.242-5.7-17.441-3.294-2.434.942-4.713,2.557-2.633,5.652ZM58.8,619.57c-7.765-3.5-18.31-1.233-21.757,4.528,3.861-.414,7.648-.912,11.451-1.2C52.155,622.625,56.114,623.4,58.8,619.57ZM43.437,1134.133c.509,8.146,5.358,9.764,10.64,12l1.718-6.657ZM38.515,647.916c2.4-7.931,9.17-6,14.087-8.345-3.967-3.629-8.051-1.859-11.854-.9C36.173,639.824,35.92,640.927,38.515,647.916ZM-142.52,1109.624l-1.334.245,8.146,25.713,1.285-.308a24,24,0,0,0-.645-4.364C-137.483,1123.793-140.024,1116.717-142.52,1109.624ZM50.7,1176.909l1.285.509c.9-1.372,2.306-2.644,2.608-4.138,1.209-5.99,2.077-12.048,3.071-18.078l-.724-.109Zm113.05-48.97c-3.313,6.954-3.42,9.009-.637,12.815C165.489,1136.573,164.666,1132.571,163.754,1127.939Zm42.212-472.076c-4.914,5.214-5.846,7.346-6.39,14.64C204.05,665.695,205.822,661.63,205.966,655.863Zm91.209,8.732-6.224,8.563c2.761.027,4.776.648,5.5-.057C298.591,671.012,300.217,668.4,297.175,664.595ZM59.12,909.4l10.9-1.533c-.659-1.242-1.536-2.894-2.333-4.392C64.413,905.735,61.984,907.418,59.12,909.4ZM243.672,686.055l1.378,9.053,4.672-5.984ZM138.924,891.433c-5.424-3.632-5.424-3.632-9.744.977C132.762,892.051,135.842,891.741,138.924,891.433Zm15.881,202.46c-4.245,1.114-4.2,2.064.468,8.838ZM48.477,611.291l.61,1.568c2.6-1.127,6.624,1.957,8.644-4.2ZM-123.2,1021.418l-5.094-5.908-1.212.673.357,5.535Zm-20.8,110.752.212-1.664c-3.94-1.519-7.961-.226-13.4.471C-151.851,1131.46-147.927,1131.817-144.007,1132.171ZM179.1,1170.492l-.664-.885q-2.842.837-5.679,1.672l.253.814Z" transform="translate(188.171 -548.544)" fill="#006cff"/>
      <path id="Trazado_1113" data-name="Trazado 1113" d="M299.243,631.317c5.189-4.65,7.814-10.9,10.327-17.125,2.031-5.034,3.616-10.262,5.189-15.465,4.4-14.555,13.692-24.556,27.888-29.827,13.564-5.037,30.924.615,36.764,13,2.864,6.077,6.327,11.953,8.4,18.285,1.206,3.687,1.451,8.655-.063,12.075-4.416,9.949-3.42,20.483-4.737,30.744a44.041,44.041,0,0,1-10.591,23.437c-3.428,4.035-7.229,6.118-12.554,4.579a33.752,33.752,0,0,0-3.809-.585c-.229,1.974-.438,3.765-.591,5.089.667.751.893,1.258,1.209,1.321,9.543,1.93,16.981,7.806,24.262,13.594,7.975,6.341,16.075,12.818,22.693,20.469,5,5.783,11.035,9.682,16.962,13.995a33.506,33.506,0,0,0,4.5,2.26c1.576-5.391,3.044-10.311,4.443-15.253.83-2.932,1.277-6,2.371-8.821a41.8,41.8,0,0,0,.166-30.978c-1.383-3.7-.869-8.157-.918-12.274-.019-1.41.452-3.471,1.44-4.139,3.809-2.57,3.681-6.483,4.441-10.275,1.792-8.949,3.651-17.9,5.935-26.731,1.465-5.663,3.371-6.891,8.928-6.134a137.121,137.121,0,0,1,15.906,3.316c3.194.83,4.362,3.441,3.882,6.643-.545,3.659-1.138,7.313-1.854,10.942-1.683,8.527-3.474,17.036-5.151,25.563a5.944,5.944,0,0,0,.1,3.147c3.368,8.53.7,16.121-3.112,23.76-1.277,2.559-2.2,5.933-1.7,8.636,2.126,11.384.918,22.566-1.075,33.736-1.146,6.423-2.184,12.941-4.217,19.1a65.171,65.171,0,0,1-7.455,15.075c-3.387,5.162-6.464,5.5-12.377,3.482q-13.89-4.737-27.9-9.142a101.726,101.726,0,0,1-30.791-15.3c-1.19-.89-2.51-1.609-4.283-2.734-9.034,29.835-9.954,60.182-11.4,91.119,19,3.088,37.973,6.229,56.966,9.244,19.056,3.025,38.131,5.924,57.737,8.963,0,4.345.229,7.985-.038,11.59-1.389,18.879-3.093,37.736-4.209,56.629-.226,3.8-1.906,6.657-3.6,9.475-.8,1.323-3.812,2-5.728,1.841-6.932-.572-13.828-1.585-20.73-2.5q-33.975-4.488-67.944-9.023c-3.39-.449-6.785-.874-10.575-1.361a11.916,11.916,0,0,0-.212,2.959c3.444,14.915,1.634,29.968.64,44.891-.98,14.735-3.049,29.426-5.225,44.052-4.307,28.936-6.763,57.949-4.993,87.207A76.848,76.848,0,0,0,354.7,1106.7c1.07,4.585.291,5.881-4.514,5.957-3.646.06-7.291.014-11.92.014,2.644,13.123,1.7,26.146,1.143,38.841,5.712,4.457,10.915,8.734,16.344,12.7,7.4,5.41,15.16,10.112,24.259,12.383,8.568,2.137,15.026,7.613,19.6,13.757,23.006,0,45.191.008,67.375,0q35.915-.021,71.826-.065c.651,0,1.454-.256,1.928.032,1.378.836,3.4,1.694,3.7,2.908a4.955,4.955,0,0,1-1.941,4.215c-4.4,2.684-8.884,4.65-14.46,4.881q-42.114,1.74-84.239,1.013c-13.447-.218-26.93,1.547-40.4,2.423a9.336,9.336,0,0,1-1.936.245c-5.089-.83-9.537.487-13.989,3.079-2.031,1.182-5.029,1.059-7.564.956-13.695-.55-27.4-1.059-41.069-2.018-9.744-.683-19.442-2.031-29.154-3.134-2.8-.316-5.636-1.348-8.369-1.1-5.707.515-8.7-3.305-11.773-6.8-1.108-1.26-1.173-3.629-1.3-5.519-.564-8.544,2.317-16.29,5.914-23.812a65.28,65.28,0,0,0,6.534-26.306c.294-8.917.849-17.825,1.214-26.739.079-1.917-.169-3.847-.275-5.93-1.092-.215-1.906-.381-2.72-.539-4.767-.931-5.508-1.68-4.822-6.483.8-5.6,2-11.133,3.009-16.7.229-1.244.419-2.494.855-5.11-5.636,6.818-8.495,13.581-11.307,20.344-2.205,5.3-3.578,5.862-8.593,2.867-1.865-1.114-3.646-2.369-6.186-4.032-7.316,13.129-16.75,24.918-19.6,40.66,5.69,5.565,7.4,13.562,8.432,21.52,1.026,7.871,4.408,12.8,12.361,14.58a14.461,14.461,0,0,1,10.082,7.691c3.662,7.3.286,15.457-7.751,18.669a14.249,14.249,0,0,1-6.327,1.34c-7.329-.735-15.146-.536-21.808-3.156-15.277-6.009-31.071-8.2-47.167-9.254-17.371-1.135-34.749-2.282-52.142-2.913-21.316-.776-42.656-.939-63.977-1.571a37,37,0,0,1-10.741-2.006c-3.333-1.141-4.051-4.041-3-8.154.719-2.821,2.845-2.823,5.119-2.818q28.408.065,56.814.068,29.384,0,58.763-.079c6.472-.008,12.943,0,21.1,0-2.442-2.889-3.91-4.6-5.355-6.341-3.9-4.683-7.931-9.26-11.631-14.093-4.348-5.679-3.787-10.387,1.35-15.6a19.482,19.482,0,0,0,2.793-3.5,35.888,35.888,0,0,1,18.92-15.282,6.912,6.912,0,0,0,3.194-1.821c8.108-11.294,17.52-21.735,23.009-34.76.493-1.171,1-2.336,1.574-3.684-2.047-1.936-4.005-3.632-5.78-5.5-3.194-3.371-3.354-5.1-.158-8.307,12.189-12.236,22.266-26.167,32.754-39.811,7.28-9.472,15.394-18.326,23.426-27.194,2.23-2.459,1.631-4.591,1.152-7.169-2.064-11.12-4.487-22.2-5.905-33.407s-1.827-22.552-2.608-33.843c-.163-2.366-.025-4.756-.025-7.411-2.328-.351-4.193-.934-6.028-.855-6.123.267-9.562-2.979-11.618-8.3a17.169,17.169,0,0,0-1.214-2.072c-19.072-2.8-38.379-5.9-57.769-8.342-7.966-1.007-10.177-4-9.227-11.645,2.02-16.191,4.457-32.329,6.575-48.509.928-7.12,1.481-14.286,2.227-21.43.561-5.38,1.8-6.216,7.218-5.241,8.535,1.533,17.085,2.984,26.7,4.658-1.163-4.729-1.846-8.928-3.243-12.873a26.515,26.515,0,0,1,.046-18.492c7.988-21.915,12.739-44.752,19.293-67.07,2.192-7.468,5.756-14.534,8.721-21.773.564-1.38,1.258-2.706,2.009-4.3-6.325-3.452-13.9-2.018-19.652-7.185a56.777,56.777,0,0,1,5.818.044,55.346,55.346,0,0,0,6.349.732c-5.584-3.545-11.917-4.536-18.247-4.7-7.6-.2-15.222.294-22.827.629a39.078,39.078,0,0,1-15.408-2.058c1.34-.909,1.925-1.658,2.529-1.669,13.259-.281,26.565-1.206,39.764-.406,7.171.436,14.291,3.482,21.182,6.031,3.765,1.389,6.183,1.514,9.034-1.74,6.6-7.523,15.187-12.326,24.42-15.83,3.52-1.337,7.446-1.6,12.513-2.616,3.441-4.337,2.388-10.645,2-17.27a26.852,26.852,0,0,1-3.259-.019c-4.043-.523-5.949-2.7-5.274-6.545a28.013,28.013,0,0,1,2.331-6.744c1.718-3.725,1.816-3.681.275-9.036a28.391,28.391,0,0,0-2.712,3.616c-4.756,9.208-11.718,15.718-21.141,20.45a96.286,96.286,0,0,1-36.149,10.2,24.56,24.56,0,0,1-3.4-.34c1.32-1.416,1.928-2.589,2.861-2.973a66.158,66.158,0,0,1,10.409-3.716c10.087-2.287,19.325-6.635,28.43-11.3,2.224-1.141,4.005-3.147,5.99-4.756ZM285,823.289c23.2,2.012,45.654,3.961,68.731,5.965a56.135,56.135,0,0,0,1.1-6.4c.395-7.172.37-14.373.986-21.523,1.021-11.9,1.906-23.853,3.774-35.637,2.279-14.37,5.522-28.585,8.323-42.874.711-3.624,1.2-7.3,2.053-10.888.242-1.021,1.391-1.83,2.124-2.734l1.718.3c1.418,7.661-.787,15.394-1.037,23.467l13.654,8.083c1.511-4.958,2.665-9.363,4.209-13.63s3.471-8.377,5.208-12.51c-12.38-15.514-28.582-28.743-40.26-32.743-1.819,3.322-4.242,2.366-6.4.1-1.487,1.421-2.527,2.535-3.684,3.5-5.105,4.255-9.363,4.419-14.746.359a42.711,42.711,0,0,1-5.731-5.32c-3.806-4.163-7.468-8.462-11.364-12.905a10.908,10.908,0,0,0-3.014.313C298.021,673.11,287,680,279.409,691.741c-8.786,13.586-13.2,28.765-17.093,44.192-.087.346.248.8.539,1.653,7.49,4.236,14.261,10.469,23.069,13.156,5.277-11.541,10.322-22.606,15.394-33.66.634-1.38,1.127-3,2.186-3.953.953-.849,3.2-1.672,3.8-1.184a5.953,5.953,0,0,1,1.789,4.2c0,1.391-1.056,2.8-1.721,4.171-5.587,11.547-11.108,23.126-16.859,34.591-1.152,2.292-3.188,4.141-5.192,6.671C288.415,781.243,287.612,801.8,285,823.289ZM469.9,853.513c-62.833-9.921-125.112-20.632-189.32-24.567,2.535,14.73,4.988,28.972,7.425,43.141,1.285.634,2.205,1.389,3.215,1.538,4.277.629,8.585,1.062,12.875,1.6,3.621.449,8.478.131,8.993,4.639.5,4.373-4.215,5.453-7.61,6.774-2.358.917-4.822,1.565-7.694,2.478,3.741,5.494,9.045,8.239,13.54,11.865.73.588,2.05.485,3.107.618,17.692,2.219,35.405,4.264,53.073,6.665,27.145,3.692,54.246,7.71,81.394,11.375,4.805.648,9.682,2.137,14.452,1.059C465.549,898.2,467.7,876.177,469.9,853.513ZM300.64,911.541a25.87,25.87,0,0,0,.525,4.155c3.39,10.082,6.725,20.183,10.305,30.2,5.6,15.663,6.959,31.863,5.7,48.243-2.614,34.08-7.125,67.892-15.707,101.06a59.148,59.148,0,0,0-.969,6.709c13.643,2.358,41.575,3.98,46.577,2.8-.362-3.444-.79-6.886-1.078-10.341-2.554-30.532-.449-60.9,4.315-91.035,3.341-21.141,4.185-42.4,5.214-63.688.422-8.737-1.067-17.24-2.9-25.743a19.529,19.529,0,0,0-2.747-.771c-10.145-1.19-20.286-2.431-30.453-3.4a6.839,6.839,0,0,0-4.438,1.832c-2.437,2.1-5.121,2.233-7.967,1.71C305.143,912.927,303.322,912.282,300.64,911.541Zm-3.066,5.552-.852.076c-.1,1.625-.28,3.251-.275,4.876a291.312,291.312,0,0,0,5,51.208c1.149,6.295.58,13.042,4.528,18.762.629.91.144,3.071-.506,4.286a50.838,50.838,0,0,1-5.279,8.157c-9.208,11.28-18.432,22.552-27.888,33.622-8.037,9.412-16.4,18.547-24.613,27.8-1.1,1.233-2.208,2.458-3.48,3.874,11.514,9.521,22.315,19.206,35.482,26.51,1.143-2.175,1.985-4.155,3.145-5.919,4.525-6.883,8.655-14.114,13.924-20.385,3.128-3.722,5.121-7.329,5.587-12,.172-1.726.564-3.431.751-5.157,2.05-18.795,4.351-37.57,6.031-56.4,1.44-16.115.564-32.1-4.43-47.728-2.243-7.019-3.667-14.3-5.328-21.5C298.606,923.859,298.163,920.458,297.574,917.093Zm8.5-36.111-.191-1.018c-2.469,0-4.947-.139-7.4.03a21.428,21.428,0,0,1-13.042-3.33,7.321,7.321,0,0,1-3.872-5.636c-.534-4.092-1.334-8.152-1.955-12.235-3.362-22.13-6.1-44.382-10.373-66.335-1.541-7.936-.6-14.16,3.425-20.643a112.8,112.8,0,0,0,5.62-11.046,44.676,44.676,0,0,0,1.669-4.691c-6.559-4.751-12.75-9.235-19.154-13.877-2.094,8.04-3.844,15.219-5.848,22.328-2.243,7.953-4.879,15.8-7,23.78a20.514,20.514,0,0,0-.566,8.914c1.394,7.027,3.186,14,5.257,20.861,5.154,17.071,10.681,34.028,15.808,51.1,2.676,8.925,5.658,17.782,5.143,27.433-.158,2.976,1.979,6.083,3.088,9.121.956,2.611,3.175,2.962,5.366,2.437a75.514,75.514,0,0,0,11.691-3.507,9.7,9.7,0,0,1,8.723.316c1.968.975,4.081,1.658,6.131,2.472l.681-1.3c-2.322-1.86-4.694-3.662-6.954-5.592-2.968-2.532-6.229-4.854-8.68-7.83-3.719-4.52-2.633-7.471,2.851-9.1,2.287-.678,4.68-.983,7-1.557A17.207,17.207,0,0,0,306.077,880.982Zm-51.409-5.034-1.536.049c-.6-1.163-1.65-2.312-1.683-3.49a10.369,10.369,0,0,1,1.089-5.056c6.333-11.585,4.046-22.93-.528-34.338-1.759-4.392-3.085-8.958-4.62-13.483l-27.975-2.491c-3.466,23.644-6.88,46.941-10.294,70.239l58.191,10.4c2.636-10.477-1.2-19.415-4.136-28.452-.392-1.206-1.835-2.069-2.793-3.093-1.084,1.146-2.448,2.137-3.188,3.474A51.656,51.656,0,0,0,254.668,875.948ZM392.26,744.539l48.51,17.09c3.814-5.835,7.084-11.408,8.263-17.989.994-5.568,2.374-11.087,3.033-16.69,1.018-8.628,2.723-17.414,1.96-25.939-.656-7.327-.259-13.57,3.618-19.84,2.5-4.038,4.076-8.628,2.862-13.785a5.71,5.71,0,0,0-1.985.191c-2.075,1.119-4.065,2.4-6.121,3.55-3.471,1.947-7.683,1.043-10.564-2.167-2.638-2.943-.591-5.121,1.062-7.474,1-1.43,1.729-3.052,2.807-5-9.608,1.034-10.738,2.036-9.159,10.036,1.073,5.443,3.338,10.646,4.961,15.987a13.615,13.615,0,0,1,.833,4.988,44.48,44.48,0,0,1-1.566,7.661q-5.521,20.118-11.163,40.2a7.28,7.28,0,0,1-.738,1.8c-1.127,1.849-2.919,1.81-4.04-.071-.841-1.413-1.274-3.392-2.5-4.2-7.046-4.642-14.272-9.009-21.814-13.706C395.979,726.831,393.6,735.021,392.26,744.539Zm-15.7-96.232c.335-7.779.136-14.12,1.007-20.311.879-6.259,2.821-12.372,4.452-19.2-4.446.436-8.288.811-13.483,1.318,4.408-5.674,9.35-4.868,14.152-5.225-8.536-3.349-17.572-5.257-23.932-12.848-5.072,7.267-12.031,11.283-18.958,15.375-3.735,2.205-7.784,4.2-10.82,7.179-2.652,2.6-4,6.562-9.184,5.443,3.226,2.557,7.084,4.125,7.983,6.719,1.046,3.019-.5,6.937-1,11.1,6.945,6.567,14.133,13.831,21.86,20.472,3.714,3.194,8.331,5.437,12.775,7.629,1.457.719,4.326.661,5.4-.31a24.1,24.1,0,0,0,8.141-14.784c-3.7,1.258-6.665,2.524-9.758,3.234a26.886,26.886,0,0,1-8.342.79c-3.651-.335-4.517-2.551-3.169-7.566,4.471,4.988,8.887,2.235,13.319.2a19.821,19.821,0,0,0,2.342-1.141C371.8,644.841,373.877,645.5,376.564,648.307ZM364.486,574.89c-5.756-.724-10.654-1.4-15.565-1.936-4.3-.471-7.966.994-11.569,3.4-12.434,8.285-16.488,21.131-20.025,35.838,3.787-1.3,6.9-1.9,9.54-3.368,5.873-3.264,11.514-6.943,17.232-10.482,5.274-3.265,9.635-7.34,12.149-13.2.564-1.321,1.876-2.323,3.207-3.9,3.145,9.4,9.257,13.921,19.306,14.876.112-4.906-2.592-8.718-5.2-12.238-1.1-1.479-4.108-1.566-6.268-2.219C364.457,580.8,362.6,579.394,364.486,574.89Zm-55.853,559.648c-1.587,5.647-1.026,21.5,1.127,28.337,4.718-1.2,9.581-2.137,14.226-3.716,3.518-1.2,7.011-3.482,7.721-7.291.926-4.966,1.84-10.1,1.01-15.446C324.4,1135.771,316.486,1135.153,308.634,1134.538Zm13.12-467.717c4.261,4.969,8.035,9.7,12.17,14.1,3.5,3.719,5.87,3.711,9.38.308,3.942-3.825,7.174-8.083,6.281-13.886-4.13-3.5-8.19-6.736-12.01-10.24-3.861-3.539-7.482-7.346-11.958-11.778C325.2,653.281,326.437,660.169,321.754,666.821Zm-69.888,450.611-13.945-10.112-11.852,14.931c2.238,4.422,4.351,8.7,6.575,12.919a9.785,9.785,0,0,0,2.091,2.478c4.141,3.828,10.213,2.407,11.92-2.878C248.441,1129.231,250.015,1123.625,251.866,1117.431Zm22.879,72.216a42.109,42.109,0,0,0-6.45.046c-13.025,2.045-23.853-2.793-33.644-10.692-12.244-9.875-22.486-21.64-31.763-34.286a16.507,16.507,0,0,0-2.271-2.08c-1.2,4.479-1.122,4.416,1.506,7.858,8.876,11.639,19.513,21.463,30.627,30.929C245.373,1192.174,259.749,1192.547,274.745,1189.647Zm31.392,5.625a13.386,13.386,0,0,0,2.287,1.032c1.468.365,2.973.6,4.471.83,20.926,3.235,42.016,2.913,63.079,2.535,4.876-.087,9.744-1.8,14.561-2.984,1-.245,1.751-1.468,2.614-2.241l-.37-1.389C364,1199.242,335.117,1196.89,306.137,1195.272Zm1.089-86.447L308,1118.1c8.413,2.875,16.527,1.448,25.1,1.587.2-2.818.354-5.067.55-7.833ZM279.093,773.7c-3.134,4.7-6.548,9.192-5.625,14.988,1.585,9.979,3.458,19.914,5.208,29.865C281.091,803.552,281.6,788.638,279.093,773.7Zm-16.5,329.681c2.091-2.829,3.616-4.887,5.391-7.286-5.846-4.473-11.4-8.726-17.371-13.3-1.457,3.665-2.554,6.428-3.888,9.782C252.038,1096.189,257.007,1099.571,262.6,1103.377ZM456.588,648.552c.937-7.082,1.748-13.221,2.608-19.729l-6.858-1.914c-1.04,6.548-1.979,12.467-2.932,18.473ZM258.583,1108.3c-4.724-3.295-9.584-6.684-14.746-10.281-.822,1.541-1.481,2.78-2.407,4.517,4.435,2.758,8.56,5.415,12.78,7.909C256.163,1111.6,257.943,1111.559,258.583,1108.3Zm50.334,17.011c4.933,4.264,19.366,4.909,25.155,1.487C324.885,1126.253,316.9,1125.782,308.917,1125.311ZM463.529,628.469a14.612,14.612,0,0,0,1.108-2.548,15.645,15.645,0,0,0,.229-2.9c-8.2-3.95-13.826-4.408-16.028-1.5C453.52,624.021,460.218,622.441,463.529,628.469Zm-10.719,28.4c6.842,1.258,6.856,1.247,6.654-5.244C456.991,652.962,452.382,651.144,452.809,656.867Zm-7.588-20.583c-1.334,4.207-3.327,8.3-2.461,14.409C446.1,645.312,445.069,640.694,445.221,636.283Zm-206.4,523.11,1.639-.455c-.8-2.02.468-4.9-4.22-6.545C237.355,1155.41,238.087,1157.4,238.822,1159.393Zm91.775,10.686-.3,1.16,3.014.858c.025-.444.177-1.225.054-1.271A25.582,25.582,0,0,0,330.6,1170.079Z" transform="translate(632.562 -559.172)" fill="#006cff"/>
      <path id="Trazado_1114" data-name="Trazado 1114" d="M547.831,729.208c-.751,1.65-1.067,3.872-2.339,4.852a28.163,28.163,0,0,1-14.7,6.216,6.807,6.807,0,0,1-7.52-4.776c-2.518-7.169-4.667-14.465-7.016-21.694-.591-1.813-1.372-3.564-2.227-5.761-7.144,1.563-13.374,4.694-19.219,8.282-10.572,6.488-29.413,7.408-41.134-2.309-6.665-5.524-8.476-10.727-5.8-18.955,2.222-6.817,4.484-13.638,6.246-20.578a50.058,50.058,0,0,0-.3-24.564c-1.549-6.257-6.673-8.478-12.089-9.54-10.1-1.977-20.36-2.717-30.4.3-7.436,2.238-14.414,2.627-21.212-1.928a34.961,34.961,0,0,1-15-22.092,65.194,65.194,0,0,1-.937-7.77c-1.378-13.21-7.131-23.257-19.317-29.775-14.229-7.613-29.26-8.192-44.5-6.12-15.506,2.107-30.85,5.4-46.272,8.13-1.887.335-3.823.389-6.368.635,1.751-5.581,5.268-8.171,10.229-9.088,11.122-2.053,22.29-3.874,33.366-6.148a111.2,111.2,0,0,1,28.558-2.205,70.407,70.407,0,0,1,28.721,7.716c14.286,7.3,21.634,19.037,23.7,34.5.806,6.042,1.018,12.2,4.9,17.343a47.713,47.713,0,0,0,4.081,5.062c4.315,4.31,9.4,6.153,15.484,4.329,11.321-3.4,22.737-3.041,34.27-1.141,13,2.14,19.377,7.986,21.4,20.828,1.438,9.1,1.451,18.19-1.492,27.126-1.969,5.979-3.556,12.083-5.453,18.087-1.13,3.572-.387,6.466,2.627,8.647,5.742,4.152,11.6,7.163,19.306,5.954A44.8,44.8,0,0,0,493.3,707.59c5.609-3.21,11.773-5.451,18.106-8.3-1.182-5.143-2.192-10.433-3.659-15.6-1.065-3.738.052-6.158,3.066-8.348,17.123-12.443,34.632-24.175,54.93-30.978,1.647-.553,3.343-1.538,4.971-1.459,3.153.155,5.124-1.3,6.725-4.25,1.713,1.239,3.3,2.018,4.4,3.235q20.138,22.29,40.143,44.7a9.975,9.975,0,0,1,2.265,3.153,4.459,4.459,0,0,1-.226,3.545c-.585.776-2.627,1.454-3.254,1.029-2.976-2.017-5.021-.166-6.995,1.41-12.573,10.052-25.07,20.2-37.611,30.3-3.044,2.453-6.033,5-9.262,7.185-4.345,2.935-8.811,3.392-13.262-.131a62.528,62.528,0,0,0-5.952-3.73c-.109-4-2.734-5.979-5.739-7.672-5.889,5.1-7.672,4.609-9.81-2.489-.373-1.239-1.182-2.657-.877-3.736,1.334-4.721-2.265-6.894-5.383-9.51,2.886,9.554,5.772,19.1,8.786,29.081,2.058-1.173,3.373-1.868,4.634-2.652,1.288-.8,2.42-1.96,3.8-2.466A22.247,22.247,0,0,1,547.831,729.208Zm-29.075-44.2c6.929,8.688,12.851,17.063,19.772,24.512,6.428,6.924,13.924,12.859,21.528,19.758a12.661,12.661,0,0,0,3.757-1.62c16.687-13.2,33.3-26.491,50.486-40.208l-34.311-40.018Zm-2.164,11.234,1.182-.234c-.58-2.483-1.065-4.994-1.762-7.444-1.2-4.242-.327-7.55,3.616-9.992,5.159-3.2,10.131-6.692,15.28-9.908,7.5-4.688,15.078-9.243,22.625-13.853-16.984,5.729-31.417,15.789-46.231,25.808C513.15,686.073,514.871,691.159,516.591,696.242Z" transform="translate(956.309 -564.166)" fill="#006cff"/>
      <path id="Trazado_1115" data-name="Trazado 1115" d="M495.386,696.294c-10.793-20.9-20.847-40.625-31.2-60.193-1.8-3.411-2.189-5.914.675-8.677,1.56-1.5,2.584-3.706,4.34-4.827,5.032-3.215,5.007-7.34,3.365-12.377-1.677-5.157-2.921-10.469-4.1-15.77a44.466,44.466,0,0,1-.46-6.956c12.339-2.464,24.011-4.735,35.65-7.166a59.867,59.867,0,0,0,7.414-2.488c6.526-2.3,13.017-4.71,19.584-6.888,2.758-.915,4.416.781,5.669,3.112,9.064,16.859,18.206,33.677,27.227,50.557,2.562,4.795,4.9,9.717,7.172,14.656,2.222,4.827,1.462,6.521-3.52,8.383-3.442,1.288-6.927,2.456-10.4,3.678,3.305,8.367,3.305,8.367,1.587,13.123,5.968,7.395,11.729,15.024,18.008,22.2,8.438,9.641,19.478,12.927,31.869,10.891,8.936-1.465,15.007-7.749,19.946-14.751a41.834,41.834,0,0,0,5.541-12.418,86.718,86.718,0,0,0,2.045-39.41,93.844,93.844,0,0,1-.814-29.244c1.816-12.96,8.386-21.487,21-25.555,15.9-5.127,32.013-5.873,48.363-3.155,4.664.776,6.856,1.979,10.637,4.786-1.979,2.592-4.784,1.454-7.087,1.408-8.914-.174-17.823-.964-26.731-.915a74.9,74.9,0,0,0-26.167,4.868c-7.6,2.87-11.915,8.021-13.6,16.05-2.529,12.037-1.119,23.913,1.13,35.645,2.614,13.662,1.016,26.9-2.483,40.009-3.4,12.758-12.143,21.525-23.366,27.679-7.18,3.937-15.361,3.286-23.026,1.761C582.3,702.053,573.388,695.7,567,685.872c-4.024-6.194-8.323-12.211-12.791-18.729-4.991,1.832-7.479-1.811-10.066-5.021C525.649,670.625,512.2,685.951,495.386,696.294ZM473.937,591.352c4.133,26.554,14.487,49.618,28.179,71.151,7.169-1.941,13.673-3.608,20.115-5.484,3.956-1.152,8.132-2.069,11.661-4.062,9.807-5.543,20.575-7.868,31.912-10.458-10.659-21.724-22.274-42.7-34.458-63.555-4.947,1.211-9.475,1.568-13.284,3.409-8.231,3.981-16.938,5.2-25.814,6.21C486.274,589.242,480.349,590.359,473.937,591.352ZM483.417,657l-.833.523q6.526,13.2,13.055,26.415c10.142-6.229,21.9-16.194,24.134-20.507-3.681.735-7.392,1.086-10.823,2.252-5.119,1.742-9.282.73-12.816-3.2-.735.373-1.329.607-1.854.947-4.435,2.854-4.795,2.8-7.583-1.388C485.587,660.374,484.509,658.684,483.417,657Zm-1.547-20.589c-1.9-4.544-3.684-8.8-5.9-14.1l-6.888,9.17c1.293,2.75,2.391,5.094,3.5,7.433,1.212,2.554,2.382,5.127,3.67,7.64,1.067,2.083,2.274,4.1,3.42,6.14C476.755,643.976,476.755,643.976,481.871,636.415Zm8.691,23.87c1.016-1.329,2.037-2.1,1.92-2.595-1.3-5.478-4.424-10-7.512-14.572-2.625,1.114-3.3,2.57-2.012,4.7C485.378,651.823,487.831,655.811,490.562,660.285Zm62.185-.074c-.8-5.987-.8-5.987-5.078-6.042C548.516,656.936,549.442,659.348,552.747,660.211Z" transform="translate(1309.521 -552.911)" fill="#006cff"/>
      <path id="Trazado_1116" data-name="Trazado 1116" d="M133.139,684.163c.915,2.369,1.832,4.737,2.932,7.588l3.782-.618c.986-3.019-1.007-6.439,2.358-8.958,1.22,2.306,2.271,4.3,3.414,6.458l4.672-2.186c3.311,2.314,2.219,4.7.512,6.88-2.521,3.224-5.573,2.8-8,.958-2.649,1.778-4.7,3.932-7.133,4.5-1.465.34-3.507-1.783-5.693-3.03-4.166,1.859.362,5.432-.395,7.991-2.42,3.03-4.435.319-6.864-.147-2.867,3.085-6.657,3.512-10.485,1.952-2.328-.947-4.043.379-4.155,1.677-.414,4.827-4.838,6.651-7.057,10.074-3.422,5.276-9.2,4.253-11.517-1.658a27.772,27.772,0,0,1-1.655-14c2.657-.76,5.061-1.448,8.383-2.4-.839,1.781-1.255,2.832-1.811,3.8-.52.9-1.187,1.723-2.233,3.213,2.129-.441,3.523-.732,4.849-1.007,2.668,3.844-6.1,5.154-1.914,9.281,6.406-3.872,6.924-4.928,5.576-11.231-1.016-4.74-1.013-4.729,4.079-5.693a4.776,4.776,0,0,0,1.647-.667c4.724-3.022,4.718-3.028,7.106,1.808a18.536,18.536,0,0,0,.942,1.7c.082.128.348.142,1.457.542,0-3.174-.332-6.123.114-8.949.3-1.92,1.25-4.55,2.7-5.285,2.3-1.163,3.735,1.337,4.972,3.136.607.879,1.19,1.775,2.325,3.474,2-3.545,3.7-6.559,5.394-9.573Z" transform="translate(663.211 -360.877)" fill="#006cff"/>
      <path id="Trazado_1117" data-name="Trazado 1117" d="M230.727,715.262c.55-2.518.847-4.443,1.4-6.292.751-2.5,1.511-5.56,4.933-4.922,3.117.58,4.5,3.025,4.111,6.766-1.394-.468-2.483-.836-4.155-1.4-.419,2.979-.822,5.832-1.44,10.224,6.257-6.341,10.733-3.311,15.318.041a64.708,64.708,0,0,0,6.861,3.825c.161,1.511.362,3.406.6,5.609.675.2,1.468.441,2.257.686,4.767,1.473,5.851,3.834,3.512,8.133a15.1,15.1,0,0,1-3.5,4.661c-1.34,1.067-3.569,2.224-4.925,1.8-2.352-.732-1.7-3.12-.92-5,.414-.991,1-1.909,1.628-3.082-1.955-1.089-3.763-2.094-5.573-3.1-2.777,2-5.285,5.541-8.751,1.073-.3-.381-1.22-.272-1.851-.406-7.286-1.538-7.286-1.538-9.213-8.364-3.771.433-8.073,1.211-10.126-3.115a7.386,7.386,0,0,1,.332-6.028C223.324,712.91,226.833,714.122,230.727,715.262Zm21.582,8.811-9.279-2.984,3.711,5.227h-7.814l-.212.672,6.137,2.821C247.318,727.915,249.48,726.251,252.309,724.073Z" transform="translate(892.005 -323.344)" fill="#006cff"/>
      <path id="Trazado_1118" data-name="Trazado 1118" d="M129.09,663.166c-4.343-2.075-7.841-3.362-8.606-9.061-.438-3.292-5.187-6-8.359-9.36,2.513-5.432,6.265-9.927,12.5-11.816,4.038-1.225,6.858.076,8.021,3.349,1.078,3.03-.022,5.7-3.4,7.536a53.616,53.616,0,0,1-5.753,2.323v6.118c1.514,1.024,2.921,1.977,4.713,3.191a15.715,15.715,0,0,0,.961-3.156c.253-3.406.621-6.679,4.863-7.384,3.444-.575,5.807,1.176,8.312,6.439-2.287-.223-4.217-.417-6.581-.648-.711,3.36-1.413,6.681-2.216,10.474l3.156,2.668c2.4-8.791,4.56-11.16,9.358-10.482,4.062.577,5.47,2.51,5.042,7.455-1-.215-1.941-.425-2.886-.615-.8-.163-1.6-.3-2.442-.466a8.627,8.627,0,0,0-1.026,1.9c-.286,1.269-.3,2.6-.61,3.863-.988,4.114-3.439,6.232-7.188,6.338-3.692.1-6.327-1.93-7.509-5.889A17.51,17.51,0,0,1,129.09,663.166ZM122.2,639.574l.939,1.729q2.03-1.09,4.06-2.186l-.776-1.527Z" transform="translate(705.478 -446.494)" fill="#006cff"/>
      <path id="Trazado_1119" data-name="Trazado 1119" d="M120.348,661.927h-5.562c-.825,3.733-1.473,7.534-2.578,11.2-.354,1.179-1.911,2.826-2.905,2.815-2.382-.027-2.366-2.3-1.974-3.945.749-3.128,1.862-6.17,2.943-9.635-1.31-.7-2.508-1.34-4.6-2.459a39.466,39.466,0,0,1,1.032,4.547c.3,3.507-1.827,6.616-5.244,7.013a6.057,6.057,0,0,1-4.362-1.683c-.482-.471.182-3.224,1.026-3.7,2.053-1.154,1.634-2.486,1.533-4.291-.226-4.092,1.242-5.227,5.206-5.78,7.588-1.062,14.9.547,22.165,2.151,1.655.368,3.637,2.638,4.1,4.392a81.222,81.222,0,0,1,2.233,14.06,4.861,4.861,0,0,1-2.426,3.934c-1.051.37-3.52-.8-4.059-1.925-1.7-3.531-3.757-3.893-7.316-2.72-3.51,1.157-5.279-1.293-3.768-4.857C117.042,668.094,118.646,665.3,120.348,661.927Z" transform="translate(679.318 -406.542)" fill="#006cff"/>
      <path id="Trazado_1120" data-name="Trazado 1120" d="M233.909,665.186a33.6,33.6,0,0,1,1.794,4.127c.324,1.138.741,3.137.278,3.428a5.928,5.928,0,0,1-4.032.683c-1.378-.283-2.595-1.361-4.629-2.518-.18,1.892-.027,3.324-.512,4.492a4.807,4.807,0,0,1-2.442,2.516,2.946,2.946,0,0,1-2.548-1.389C220,671,218,665.472,216.906,659.784c-.662-3.428,2.393-5.094,5.576-3.289a24.479,24.479,0,0,1,5.4,4.6c2.113,2.227,4,2.208,6.5-.46-2.042-3.257-4.174-6.657-6.308-10.055,4.392-4.168,14.34-4.577,18.016-.346,1.206,1.389,2.058,4.31,1.416,5.829A26.794,26.794,0,0,1,241.458,665C240.3,666.087,237.277,665.186,233.909,665.186Zm6.63-6.434c.553-2.2,1.517-3.82,1.056-4.626-1.2-2.11-3.27-1.723-5.927-1.013C237.366,655.08,238.578,656.484,240.538,658.752Z" transform="translate(885.822 -421.046)" fill="#006cff"/>
      <path id="Trazado_1121" data-name="Trazado 1121" d="M262.183,683.542c-3.322,4.879-9.995,1.315-13.766,6.564l10.145.817c-2.8,2.361-4.424,3.73-6.529,5.5,3.112-.153,5.731-.283,8.576-.425-1.979,5.984-6.172,8.625-11.446,7.09-2.769-.806-5.081-1.775-7.817.212-1.024.743-2.992.55-4.435.28-2.867-.531-5.965-1.756-6.159-4.887-.106-1.71,2.173-3.569,3.629-5.739-3.136-7.9-2.905-10.817,1.435-13.809,3.368-2.323,5.66-2.205,8.8.319-2.162,1.756-5.505,3.155-6.251,5.41-.926,2.788,1.8,5.35,3.975,7.689C248.613,681.8,252.381,680.122,262.183,683.542Z" transform="translate(909.826 -368.955)" fill="#006cff"/>
      <path id="Trazado_1122" data-name="Trazado 1122" d="M124.772,607.831a25.969,25.969,0,0,1,4.1-.977c9.137-.2,18.275-.264,27.409-.536,4.108-.122,8.2-.751,12.309-.918a83.323,83.323,0,0,1,11.032.087c10.722.983,20.788-.613,29.859-6.771a7.075,7.075,0,0,1,2.211-1.337c.958-.2,2.57-.291,2.9.218.594.915.964,2.611.49,3.447a12.874,12.874,0,0,1-3.6,3.626c-5.061,3.755-11.1,4.835-17.1,5.916a34.413,34.413,0,0,1-6.5.509c-9.518-.114-19.04-.248-28.553-.558-3.891-.125-7.76-.945-11.645-1.013-3.452-.063-6.913.485-10.371.752C133.449,610.57,129.531,611.2,124.772,607.831Z" transform="translate(727.265 -507.223)" fill="#006cff"/>
      <path id="Trazado_1123" data-name="Trazado 1123" d="M144.938,706.427c-.24,1.348-.041,3.057-.8,3.97-2.252,2.706-5.086,4.928-7.313,7.648-3.981,4.863-4.544,5.04-9.7,1.184a7.514,7.514,0,0,0-1.4-.6c-1.048,1.516-2.121,3.071-3.335,4.83l4.193,4.588c-1,3.243-2.788,2.636-4.541,1.405-1.672-1.174-3.2-2.559-4.786-3.855l.172.177c-.373-1.677-.634-3.39-1.138-5.026-2.167-7.052.2-10.558,7.528-11.035.852-.057,1.7-.084,2.894-.142.689,1.184,1.391,2.475,2.178,3.714.643,1.007,1.389,1.949,2.124,2.97,2.687-1.821,1.44-3.586.561-5.268-1.323-2.524-2.154-4.544,1.473-6.246,1.487-.694,2.061-3.327,3.452-5.788,2.546,2.091,4.77,3.915,6.992,5.742C143.974,705.27,144.456,705.847,144.938,706.427Zm-25.4,12.418,5.2-5.541C122.231,714.426,119.307,715.153,119.538,718.845Z" transform="translate(711.324 -331.983)" fill="#006cff"/>
      <path id="Trazado_1124" data-name="Trazado 1124" d="M249.067,700.732c-4.9-.019-7.583-3.646-6.594-8.87.5-2.671.964-5.35,1.418-8.026a5.181,5.181,0,0,1,5.516-4.375c4.748.177,10.139,6,10.158,10.975C259.584,695.638,254.371,700.754,249.067,700.732Zm-.316-13.347c-1.879,2.745-3.063,5.045-.487,7.528C253.679,691.679,253.706,691.429,248.751,687.385Z" transform="translate(929.672 -365.562)" fill="#006cff"/>
      <path id="Trazado_1125" data-name="Trazado 1125" d="M121.272,641.177c-.781,2.744-1.522,5.339-2.271,7.958-5.075-.882-3.161-5.086-4.977-7.806a20.18,20.18,0,0,1-3.741,1.565,3.5,3.5,0,0,1-2.832-.536,3.278,3.278,0,0,1-.436-2.867c1.647-4.283,13.956-11.454,18.492-10.6,1.468.275,3.523,1.585,3.836,2.8a6.341,6.341,0,0,1-1.233,5.189C126.377,638.667,123.823,639.65,121.272,641.177Z" transform="translate(696.415 -452.781)" fill="#006cff"/>
      <path id="Trazado_1126" data-name="Trazado 1126" d="M234.054,648.913c2.246.5,4.533.868,6.733,1.53,5.429,1.628,6.608,5.532,2.949,9.807a14.593,14.593,0,0,1-4.34,3.852,5.738,5.738,0,0,1-4.65,0c-1.93-1.111-1.043-2.981.063-4.487.506-.692,1.026-1.37,1.944-2.595-2.257-.686-4.264-1.122-6.129-1.9-4.963-2.064-5.881-6.877-1.655-10.139,2.1-1.62,4.969-2.377,7.607-3.077.7-.185,2.08,1.135,2.652,2.069.21.338-.866,1.824-1.65,2.32a13.865,13.865,0,0,1-3.425,1.111Z" transform="translate(902.133 -430.27)" fill="#006cff"/>
      <path id="Trazado_1127" data-name="Trazado 1127" d="M132.331,603.934c1.508-.449,3.022-1.288,4.528-1.274,4.972.041,9.943.4,14.915.618,4.773.21,9.559.253,14.316.645a39.6,39.6,0,0,1,8.9,1.628c2.219.722,4.405,2.154,3.175,5.922-5.317-3.046-11.125-1.968-16.8-2.4-6.447-.5-12.848-1.6-19.279-2.338-3.117-.354-6.262-.463-9.4-.681Z" transform="translate(740.286 -497.854)" fill="#006cff"/>
      <path id="Trazado_1128" data-name="Trazado 1128" d="M218.93,598.631c5.241-6.515,45.191-22.857,54.815-22.41-.457.58-.716,1.25-1.173,1.438q-25.84,10.59-51.725,21.068A5.148,5.148,0,0,1,218.93,598.631Z" transform="translate(889.467 -543.415)" fill="#006cff"/>
      <path id="Trazado_1129" data-name="Trazado 1129" d="M95.467,655.718c3.714-.912,5.151,5.652,8.813-.182,1.955,6.376.362,10.787-1.86,14.942-1.552,2.9-3.8,2.93-6.276.523a24.823,24.823,0,0,0-2.1-2.341,7.908,7.908,0,0,0-2.491-.719C91.509,662.953,93.4,659.051,95.467,655.718Z" transform="translate(670.046 -406.767)" fill="#006cff"/>
      <path id="Trazado_1130" data-name="Trazado 1130" d="M220.23,589.4c11.923,7.667,25.9,7.161,36.617,14.626l-.359,1.451c-1.179.117-2.486.629-3.515.289-9.282-3.049-18.547-6.156-27.733-9.483-1.729-.626-3.134-2.241-4.569-3.534C220.333,592.441,220.491,591.591,220.23,589.4Z" transform="translate(891.706 -520.702)" fill="#006cff"/>
      <path id="Trazado_1131" data-name="Trazado 1131" d="M184.451,592.2l-.972,1.111c-9.516,4.177-18.942,8.582-28.591,12.432-4.585,1.83-9.576,2.679-14.425,3.8-1.176.272-2.51-.131-4.03-1.38,3.918-1.116,7.868-2.145,11.751-3.379,4.141-1.315,8.285-2.666,12.306-4.3,3.82-1.552,7.471-3.518,11.217-5.252,3.9-1.8,7.822-3.545,12.05-5.456Z" transform="translate(747.354 -520.051)" fill="#006cff"/>
      <path id="Trazado_1132" data-name="Trazado 1132" d="M122.882,712.1c4.054,8.778,4.054,8.778-5.1,13.126-2.976-1.944-5.244-4.424-5.53-8.857h5l-1.99-8.778,1.359-.817,6.425,5.5Z" transform="translate(705.699 -318.495)" fill="#006cff"/>
      <path id="Trazado_1133" data-name="Trazado 1133" d="M130.318,711.961l-1.446-1.737c.373-2.619-.751-4.277-2.837-5.935a6.21,6.21,0,0,1-2-4.9c.357-2.371,2.184-4.079,5.66-3.556-.389,2.6-.147,4.484,3.009,5.66,5.078,1.89,5.165,5.042.849,8.394C132.548,710.668,131.4,711.275,130.318,711.961Z" transform="translate(725.944 -337.517)" fill="#006cff"/>
      <path id="Trazado_1134" data-name="Trazado 1134" d="M97.311,653.213c.455.629.907.966.915,1.312.169,6.954-2.693,13.006-5.908,18.89-.449.82-2.1.977-3.2,1.443-.392-1.1-1.4-2.445-1.078-3.259,2.4-6.012,5.053-11.92,7.683-17.839C95.835,653.5,96.477,653.485,97.311,653.213Z" transform="translate(663.879 -410.769)" fill="#006cff"/>
      <path id="Trazado_1135" data-name="Trazado 1135" d="M-86.933,762.224c-1.478,3.365-2.9,6.594-4.49,10.226-3.6.458-2.309-3.5-3.749-5.355l-3.463.871c-.174-4.253,1.636-7.136,5.2-8.555C-90.951,758.42-90.344,758.7-86.933,762.224Z" transform="translate(342.392 -228.681)" fill="#006cff"/>
      <path id="Trazado_1136" data-name="Trazado 1136" d="M223.412,592c1.408-1.628,1.941-2.862,2.663-2.981,4.678-.784,9.385-1.484,14.112-1.827,1.111-.079,2.331,1.321,3.5,2.039-.986.966-1.851,2.578-2.979,2.788C235.43,593,230.08,593.575,223.412,592Z" transform="translate(897.188 -524.509)" fill="#006cff"/>
      <path id="Trazado_1137" data-name="Trazado 1137" d="M-98.726,579.914c-2.587-3.643-.9-6.186.923-8.143a22.046,22.046,0,0,1,6.259-4.106c.444-.226,1.865.836,2.371,1.609.272.414-.226,1.685-.743,2.208C-92.62,574.2-95.443,576.8-98.726,579.914Z" transform="translate(339.97 -558.193)" fill="#006cff"/>
      <path id="Trazado_1138" data-name="Trazado 1138" d="M218.431,590.717c-.286-7.177,4.217-11.982,12.682-13.812C226.6,581.822,223,585.743,218.431,590.717Z" transform="translate(888.585 -542.221)" fill="#006cff"/>
      <path id="Trazado_1139" data-name="Trazado 1139" d="M-81.283,767.038c4.163,2.418,3.349,5.159,2.1,7.735-1.214,2.516-2.75,4.963-6.82,3.493Z" transform="translate(364.178 -214.687)" fill="#006cff"/>
      <path id="Trazado_1140" data-name="Trazado 1140" d="M-161.107,731c3.51-3.526,7.038-2.382,10.316-1.086,2.418.956,3.643,2.938,1.952,6.042C-152.776,734.368-156.721,732.772-161.107,731Z" transform="translate(234.793 -280.814)" fill="#006cff"/>
      <path id="Trazado_1141" data-name="Trazado 1141" d="M-25.527,698.6l1.446,1.258c.52,3.5,1.043,7,1.628,10.918-4.871-1.927-7.4-7.9-5.407-11.468C-27.575,698.8-26.33,698.825-25.527,698.6Z" transform="translate(463.151 -332.579)" fill="#006cff"/>
      <path id="Trazado_1142" data-name="Trazado 1142" d="M110.151,710.6c4.773,2.409,5.93,5.875,7.06,9.227a2.827,2.827,0,0,1-1.359,2.434,3.045,3.045,0,0,1-2.739-.874C111.052,718.619,110,715.464,110.151,710.6Z" transform="translate(702.053 -311.909)" fill="#006cff"/>
      <path id="Trazado_1143" data-name="Trazado 1143" d="M-103.074,576.135a14.035,14.035,0,0,1,13.956-11.825C-93.711,568.2-98.138,571.951-103.074,576.135Z" transform="translate(334.764 -563.916)" fill="#006cff"/>
      <path id="Trazado_1144" data-name="Trazado 1144" d="M143.032,607.636c6.074-2.557,7.939-2.233,11.321,1.56C149.251,610.536,147.1,610.288,143.032,607.636Z" transform="translate(758.72 -492.13)" fill="#006cff"/>
      <path id="Trazado_1145" data-name="Trazado 1145" d="M-157.758,726.625c4.707-.836,7.76,1.922,11.746,5.418C-151.768,732.629-154.8,729.759-157.758,726.625Z" transform="translate(240.562 -284.564)" fill="#006cff"/>
      <path id="Trazado_1146" data-name="Trazado 1146" d="M-89.4,689.137c-2.832-4.879-1.936-6.782,3.975-8.753C-84.05,684.648-88.055,686.121-89.4,689.137Z" transform="translate(355.657 -363.962)" fill="#006cff"/>
      <path id="Trazado_1147" data-name="Trazado 1147" d="M-82.611,765.875c1.2,5.993.8,6.73-4.83,8.792C-87.092,770.871-86.57,767.617-82.611,765.875Z" transform="translate(361.694 -216.691)" fill="#006cff"/>
      <path id="Trazado_1148" data-name="Trazado 1148" d="M220.6,596.442c2.393,2.167,4.789,4.334,7.732,7-6.031.411-7.858-.994-8.838-5.908Z" transform="translate(890.435 -508.566)" fill="#006cff"/>
      <path id="Trazado_1149" data-name="Trazado 1149" d="M223.353,589.018c2.028-4.13,4.716-4.841,8.841-3.648C229.879,588.566,227.178,589.238,223.353,589.018Z" transform="translate(897.086 -528.537)" fill="#006cff"/>
      <path id="Trazado_1150" data-name="Trazado 1150" d="M106.283,681.916c-.939.719-1.876,1.443-2.851,2.113-.022.017-.727-.721-.653-.852.553-.988,1.222-1.911,1.857-2.856Z" transform="translate(689.37 -364.071)" fill="#006cff"/>
      <path id="Trazado_1151" data-name="Trazado 1151" d="M-87.675,687.032c-1.315-3.145-.359-4.19,3.055-3.539Z" transform="translate(360.314 -358.925)" fill="#006cff"/>
      <path id="Trazado_1152" data-name="Trazado 1152" d="M440.072,605.093c.046,1.007.542,2.48.06,2.946-3.676,3.556-7.544,6.918-11.52,10.488-3.515-2.535-1.01-5.073.22-7.221,3.33-5.816,6.082-7.207,11.2-6.254Z" transform="translate(1247.578 -494.207)" fill="#006cff"/>
      <path id="Trazado_1153" data-name="Trazado 1153" d="M462.72,797.409l7.672-1.353c-1.876,4.974-7.381,7.942-14.869,8.658-1.331-2.437,1.138-3.243,2.05-4.7Q460.147,798.715,462.72,797.409Z" transform="translate(1296.373 -164.699)" fill="#006cff"/>
      <path id="Trazado_1154" data-name="Trazado 1154" d="M-13.921,616.862c-2.132,3.727-4.106,7.555-6.458,11.135-1.1,1.674-3.281,2.87-4.985,1.07-.879-.928-.825-3.09-.6-4.612a23.5,23.5,0,0,1,1.778-4.835l-.172.172c2.8-1.653,4.857-4.83,8.748-4.209Z" transform="translate(467.352 -475.73)" fill="#006cff"/>
      <path id="Trazado_1155" data-name="Trazado 1155" d="M-19.644,617.4l-.866-5.135c5.535,2.938,5.579,3.128,2.491,6.992Z" transform="translate(476.993 -481.315)" fill="#006cff"/>
      <path id="Trazado_1156" data-name="Trazado 1156" d="M428.266,665.534c-4.6-1.007-8.609-1.781-12.557-2.8-1.947-.5-3.964-1.775-2.94-4.038.474-1.045,2.859-1.941,4.2-1.74a74.39,74.39,0,0,1,11.884,2.872,4.077,4.077,0,0,1,2.2,3.267C430.945,664.062,429.132,664.835,428.266,665.534Z" transform="translate(1222.909 -404.366)" fill="#006cff"/>
      <path id="Trazado_1157" data-name="Trazado 1157" d="M439.017,612.089c-2.66,1.805-3.98,3.21-5.53,3.542-.82.177-2.687-1.348-2.949-2.388a2.954,2.954,0,0,1,3.134-3.806C435.012,609.462,436.328,610.693,439.017,612.089Z" transform="translate(1253.797 -486.18)" fill="#006cff"/>
      <path id="Trazado_1158" data-name="Trazado 1158" d="M350.539,774.516a47.674,47.674,0,0,1,4.487,1.71c4.609,2.314,5.23,6.344,1.606,9.943-4.55,4.519-13.611,5.47-18.759,1.925-.7-.479-1.664-1.122-1.775-1.808-.689-4.266-4.128-6.788-6.8-10.613,2.072-3.1,3.836-6.564,6.376-9.314,2.734-2.957,6.5-3.2,10.221-1.544,3.485,1.557,4.476,4.452,4.141,8.026A6.263,6.263,0,0,0,350.539,774.516Zm-9.622,8.375c6.935,1.9,6.935,1.9,10.526-1.759l-10.158-4.1C341.129,779.518,341.02,781.263,340.917,782.891Zm3.736-8.326c-.648-2.764-.765-4.3-1.459-5.505-.185-.324-2.276.112-3.218.664-.727.43-1.024,1.59-1.721,2.785C340.1,773.1,341.467,773.541,344.652,774.565Z" transform="translate(1079.6 -220.281)" fill="#006cff"/>
      <path id="Trazado_1159" data-name="Trazado 1159" d="M337.565,766.577c2.919-.705,4.514-1.489,6.023-1.345a6.632,6.632,0,0,1,4.228,2.009c.487.6-.278,3.243-1.138,3.689a7.424,7.424,0,0,1-5.3.656C340.1,771.143,339.387,769.1,337.565,766.577Z" transform="translate(1093.834 -217.828)" fill="#006cff"/>
      <path id="Trazado_1160" data-name="Trazado 1160" d="M470.117,684.7c1.152-3.733,2.448-7.6,8.375-7.5l-2.4,6.014c1.135,1.786,2.573,3.689,3.64,5.78,3.782,7.419-.594,16.088-8.359,16.812a8.591,8.591,0,0,1-8.424-3.8,22.958,22.958,0,0,1-1.925-3.387C456.376,688.728,459.112,684.421,470.117,684.7Zm4.435,9.426c-4.065-.931-6.205-1.424-8.955-2.053,1.089,3.229,1.41,6.366,4.862,6.428C471.528,698.524,472.636,696.264,474.552,694.127Z" transform="translate(1302.779 -369.445)" fill="#006cff"/>
      <path id="Trazado_1161" data-name="Trazado 1161" d="M485.341,810.883c-3.379-.068-4.863-1.805-4.672-5.483.177-3.471,2.557-5.244,6.79-5.061,3.907.169,6.295,2.132,6.186,5.08C493.531,808.487,489.757,810.97,485.341,810.883Z" transform="translate(1340.326 -157.345)" fill="#006cff"/>
      <path id="Trazado_1162" data-name="Trazado 1162" d="M-36.086,688.38a93.252,93.252,0,0,1,10.047.58,72.9,72.9,0,0,1,24.066,7.858c6.649,3.7,13.148,7.67,19.636,11.645a18.584,18.584,0,0,1,4.4,3.817,3,3,0,0,1,.117,2.88,3.342,3.342,0,0,1-2.818.863,11.516,11.516,0,0,1-3.477-1.7c-3.548-2.118-7.158-4.149-10.578-6.458a98.51,98.51,0,0,0-36.6-14.89c-1.89-.37-3.637-1.47-5.451-2.23Z" transform="translate(449.017 -350.188)" fill="#006cff"/>
      <path id="Trazado_1163" data-name="Trazado 1163" d="M-32.707,695.939c-1.8-.335-4.607-.068-5.225-1.105-3.074-5.162-5.6-10.659-8.217-16.085-.182-.379.444-1.146.871-2.151,1.168.479,2.723.613,3.284,1.427,3.191,4.645,6.24,9.4,9.1,14.25.558.953.052,2.529.041,3.817Z" transform="translate(432.771 -370.486)" fill="#006cff"/>
      <path id="Trazado_1164" data-name="Trazado 1164" d="M-42.842,686.9c-1.214.675-2.148,1.519-2.5,1.32-.73-.406-1.152-1.367-1.7-2.1.681-.327,1.386-.95,2.031-.89C-44.41,685.282-43.874,686.061-42.842,686.9Z" transform="translate(431.286 -355.62)" fill="#006cff"/>
      <path id="Trazado_1165" data-name="Trazado 1165" d="M-78.1,616.324c.15,2.439.648,3.918.231,5.064-1.1,3.011-2.559,5.894-3.948,8.791-.942,1.966-2.456,3.142-4.658,2.077-2.184-1.056-2.227-3.066-1.427-5A21.336,21.336,0,0,1-78.1,616.324Z" transform="translate(360.087 -474.316)" fill="#006cff"/>
      <path id="Trazado_1166" data-name="Trazado 1166" d="M-68.864,794.131c-1.419,1.4-3.156,2.592-4.2,4.231-4.452,6.973-15.3,11.985-23.682,10.659-.278-.044-.485-.523-1.149-1.282,6.921-2.358,14.678-2.385,20.627-9.26-3.831,0-6.744.117-9.638-.049a11.319,11.319,0,0,1-4.375-1.127,3.529,3.529,0,0,1-1.478-2.478,2.35,2.35,0,0,1,1.459-1.8c2.747-.384,5.609-.991,8.29-.588,5.688.858,11.2,1.277,16.616-1.938,4.732,5.285,10.654,6.21,17.066,5.244,1.922-5.576,2.314-5.976,7.792-5.4,3.5.37,7.577-.4,9.921,3.809-1.2,4.34-5.045,5.279-8.574,5.435a102.614,102.614,0,0,1-17.515-.735c-3.48-.444-6.788-2.227-10.175-3.406Z" transform="translate(343.684 -174.874)" fill="#006cff"/>
      <path id="Trazado_1167" data-name="Trazado 1167" d="M-9.4,624.884c-1-3.074-3.085-4.506-6.327-4.19-.561-2.3-3.038-4.389-.408-7.4.879.781,1.685,1.582,2.581,2.268s2.045,1.914,2.761,1.721c2.407-.651,3.147.692,3.608,2.434C-6.6,621.935-6.718,624-9.4,624.884Z" transform="translate(482.483 -479.541)" fill="#006cff"/>
      <path id="Trazado_1168" data-name="Trazado 1168" d="M-24.6,621.04c-4.217-2.693-4.585-6.474-3.142-12.195,2.181,4.672,3.961,8.026,2.957,12.135C-24.767,620.991-24.6,621.04-24.6,621.04Z" transform="translate(463.213 -487.2)" fill="#006cff"/>
      <path id="Trazado_1169" data-name="Trazado 1169" d="M207.874,690.1c1.843-.49,3.684-1,5.532-1.473,5.475-1.41,9.257,1.378,8.742,6.908a61.355,61.355,0,0,1-2.513,12.075,5.1,5.1,0,0,1-3.659,2.731c-.912.114-2.469-1.536-3.011-2.728-.583-1.271-.316-2.935-.43-4.629-1.549-.114-3.036-.123-4.49-.354a7.233,7.233,0,0,1-6-5.306c-2.4-7.5,4.759-18.255,12.649-18.969.863-.079,1.791.534,3.806,1.19-5.07,3.06-10.006,4.925-10.507,10.684-1.024,2.233-1.811,4.868.64,6.23s4.125-.814,5.8-2.766C209.518,692.82,209.518,692.82,207.874,690.1Z" transform="translate(859.56 -367.474)" fill="#006cff"/>
      <path id="Trazado_1170" data-name="Trazado 1170" d="M197.636,693.879a15.518,15.518,0,0,1-1.7,2.374c-1.789,1.631-3.523,1.035-3.744-1.1a64.114,64.114,0,0,1-.123-11.724c.25-3.071,2.924-3.972,5.1-1.819a26.533,26.533,0,0,1,3.259,4.83c1.715,2.7,3.191,5.633,7.34,7.046-.452-2.7-.934-4.713-1.1-6.755a31.1,31.1,0,0,1,0-7.117c.136-.89,1.645-1.936,2.7-2.189a2.931,2.931,0,0,1,2.388,1.628c1.029,4.65,2.434,9.358,2.448,14.051.019,5.552-5.475,8.242-10.338,5.519C201.8,697.476,200.064,695.758,197.636,693.879Z" transform="translate(842.825 -369.08)" fill="#006cff"/>
      <path id="Trazado_1171" data-name="Trazado 1171" d="M154.932,694.062c-1.135-.289-1.438-.275-1.519-.4-3.153-5-2.178-17.572,2.05-21.275a8.242,8.242,0,0,1,5.848-1.511,4.968,4.968,0,0,1,4.367,5.636c-.893,4.5,1.078,7.351,3.817,10.2a3.62,3.62,0,0,1,.634,1.13c.844,2.026,1.958,4.326-.324,5.886-2.559,1.751-3.831-.6-5.127-2.331a16.632,16.632,0,0,0-1.582-2.058c-2.543-2.464-4.893-1.985-6.534,1.3C156.01,691.734,155.5,692.859,154.932,694.062Z" transform="translate(773.402 -380.437)" fill="#006cff"/>
      <path id="Trazado_1172" data-name="Trazado 1172" d="M181.589,695.317c-2.148,2.54-4.217,1.593-6.02.378-4.166-2.81-8.391-4.446-13.815-.9-2.494-7.825.147-14.122,1.832-20.529l1.413-.193,2.442,3.986c2.385-1.236,3.4-5.535,7.7-3.341,1.465,4.639-3.071,7.005-4.612,10.926C174.357,688.529,180.954,688.829,181.589,695.317Z" transform="translate(789.21 -374.831)" fill="#006cff"/>
      <path id="Trazado_1173" data-name="Trazado 1173" d="M186.3,677.37q-4.893,3.21-9.788,6.417l.433.977c2.358-.226,4.716-.452,7.672-.732-1.318,5.347-6.507,4.22-10.136,7.694,3.681.152,5.715-1.639,7.969-1.841,1.13-.1,2.894.185,3.327.912s-.071,2.908-.781,3.286a42,42,0,0,1-9.962,4.264,4.65,4.65,0,0,1-5.421-5.07c.866-5.037,1.789-10.616,4.623-14.577,2.053-2.867,7.112-4.193,11.4-3.117Z" transform="translate(804.41 -372.871)" fill="#006cff"/>
      <path id="Trazado_1174" data-name="Trazado 1174" d="M186.407,682.317c0,3.97-.005,7.381,0,10.793,0,1.073.411,2.333-.025,3.164a5.081,5.081,0,0,1-2.7,2.173c-.354.122-1.8-1.353-1.838-2.145-.2-3.855-.09-7.727-.09-12.1l-4.231-1.9c.621-1.165.888-2.567,1.587-2.829,4.226-1.6,8.522-3.041,12.867-4.291a5.472,5.472,0,0,1,3.763.46,4.194,4.194,0,0,1,2.126,2.87c.005.79-1.478,2.017-2.508,2.3C192.895,681.476,190.3,681.7,186.407,682.317Z" transform="translate(818.15 -373.189)" fill="#006cff"/>
      <path id="Trazado_1175" data-name="Trazado 1175" d="M190.832,677.3c.741.844,1.489,1.3,1.5,1.773.112,5.17.182,10.343.1,15.511-.035,2.167-1.206,4.119-3.523,3.49-1.065-.286-2.317-2.606-2.235-3.929a128.447,128.447,0,0,1,1.827-14.1C188.665,679.085,189.939,678.311,190.832,677.3Z" transform="translate(833.886 -369.268)" fill="#006cff"/>
      <path id="Trazado_1176" data-name="Trazado 1176" d="M140.333,689.445l-7.937.871a8.269,8.269,0,0,1-.945,2.461c-.569.776-1.909,1.887-2.35,1.674-.994-.474-2.333-1.683-2.32-2.573q.135-9.1.866-18.177c.158-1.944,1.223-4.209,3.646-3.665,1.31.294,2.475,2.045,3.311,3.385.781,1.25,1.04,2.823,1.83,5.14,1.334-3.025,2.039-5.524,3.45-7.526.977-1.383,3.156-3.093,4.378-2.812,1.345.308,2.99,2.641,3.147,4.231.678,6.692.964,13.434,1.094,20.164a4.232,4.232,0,0,1-2.205,3.352,4.523,4.523,0,0,1-3.787-1.56C141.384,692.97,140.962,690.975,140.333,689.445Z" transform="translate(730.727 -384.962)" fill="#006cff"/>
      <path id="Trazado_1177" data-name="Trazado 1177" d="M182.351,595.732c.438-5.222.438-5.222,3.433-6.943,2.453,5.562,2.14,9.731-.86,11.389-2.674,1.481-5.532.711-8.429-2.671C178.621,596.864,180.486,596.3,182.351,595.732Z" transform="translate(816.366 -521.749)" fill="#006cff"/>
      <path id="Trazado_1178" data-name="Trazado 1178" d="M169.32,588.694c2.464-5.944,7.06-7.692,15.239-5.829-2.393.8-4.814,1.538-7.174,2.434S172.729,587.251,169.32,588.694Z" transform="translate(804.006 -533.179)" fill="#006cff"/>
      <path id="Trazado_1179" data-name="Trazado 1179" d="M187.519,587.689c-2.151,1.312-3.4,2.644-4.661,2.646-.89.005-2.72-2.189-2.5-2.693a5.579,5.579,0,0,1,3.18-2.957C184.292,584.482,185.547,586.129,187.519,587.689Z" transform="translate(822.985 -528.847)" fill="#006cff"/>
      <path id="Trazado_1180" data-name="Trazado 1180" d="M174.54,591.448c-1.182-2.047-2.3-3.153-2.282-4.234.014-.828,1.7-2.428,2.246-2.273,1.138.327,2.657,1.487,2.8,2.48C177.434,588.338,175.972,589.482,174.54,591.448Z" transform="translate(809.066 -528.396)" fill="#006cff"/>
      <path id="Trazado_1181" data-name="Trazado 1181" d="M185.5,574.736c-1.247,8.035-12.108,15.775-21.084,14.539C171.754,584.216,178.538,579.536,185.5,574.736Z" transform="translate(795.558 -545.958)" fill="#006cff"/>
      <path id="Trazado_1182" data-name="Trazado 1182" d="M369.056,618.493c-.147-6.779,7.389-13.9,12.908-13.512,4.563.321,8.217,5.682,5.69,9.33-2.23,3.224-1.7,6.017-1.119,9.186a4.332,4.332,0,0,1,.215,1.922c-.577,1.721-.942,4.255-2.151,4.805-1.171.534-3.809-.525-4.874-1.718-2.26-2.529-3.746-5.472-7.789-6.066C370.565,622.24,369.6,619.288,369.056,618.493Zm14.455-6.221c-.18-.354-.506-1.386-.727-1.361a7.752,7.752,0,0,0-7.836,4.34c-.114.144.542,1.163,1.032,1.459C378.18,618.047,383.214,615.2,383.511,612.272Z" transform="translate(1148.079 -493.883)" fill="#006cff"/>
      <path id="Trazado_1183" data-name="Trazado 1183" d="M484.643,595.011c-1.642,0-3.041.332-4.177-.073-1.979-.705-2.567-2.344-1.3-4.157a65.433,65.433,0,0,1,4.351-5.5c2.287-2.63,5.331-3.011,8.345-1.906,3.491,1.28,6.91,3.066,7.477,7.31.128.959-1.051,2.091-1.83,3.512-3.444-2.263-4.28-8.007-10.158-6.259,1.677,2.668,5.927,3.994,3.041,8.154l7.555.539c.613,3.629-1.917,4.2-4.144,4.612C490.336,601.894,487.123,599.651,484.643,595.011Z" transform="translate(1336.61 -532.074)" fill="#006cff"/>
    </g>
  </g>
</svg>
