<svg id="Capa_1" data-name="Capa 1" xmlns="http://www.w3.org/2000/svg" viewBox="0 0 743.57 262.17"><title>Iconos para servicios</title><path d="M724,209.44c2.62-1.76,5.4-3.64,8.19-5.5a16.22,16.22,0,0,1,2.27-1.33c1.64-.76,2.4-.18,2.23,1.62a10.47,10.47,0,0,1-.3,1.14c1.08-.55,1.86-1,2.7-1.35a11.6,11.6,0,0,1,2.92-1c1.4-.18,1.93.65,1.38,1.91-.21.49-.51,1-.67,1.25l2.46,1.31-1.46,2.29c.76.5,1.63,1.23.74,2.48-.1.14,0,.44,0,.66.38,2,.24,2.58-1.52,3.33a42.84,42.84,0,0,1-4.84,1.39c.55,5.5,1.7,11.24,2.52,17.12,1.34-.11,2.52-.25,3.7-.31a13.19,13.19,0,0,1,7.19,1.47,7.86,7.86,0,0,1,4,9.13A23.24,23.24,0,0,1,750,255.55q-7.51,8.08-14.91,16.28a24.34,24.34,0,0,0-2.78,3.89c-1.74,2.95-1.19,5.09,1.68,6.91.94.6,1.94,1.12,2.89,1.7,2.25,1.36,3.53,3.36,3.17,6s-1.07,5.47-1.69,8.19c-.4,1.79-.92,3.56-1.37,5.34a7,7,0,0,0,1.66,6.47c.41.49.87.93,1.28,1.42,2.88,3.43,5.9,6.75,8.57,10.33A45.36,45.36,0,0,0,765,335.64a36.87,36.87,0,0,0,13.9,3.37c6.91.49,13.73-.48,20.57-1.19a64.17,64.17,0,0,1,13.09-.11c-.6,1.21-1.56,1.14-2.33,1.25-5.06.74-10.11,1.55-15.19,2.09a118.34,118.34,0,0,1-13.15.87c-14.89-.07-26.54-6.58-35.52-18.28a130.14,130.14,0,0,0-8.6-10.29c-3.3-3.5-4.38-7.3-2.9-11.87.69-2.13,1.31-4.28,1.94-6.43a22.68,22.68,0,0,0,.65-2.55c.71-3.94.17-5.08-3.27-7.05-.76-.44-1.56-.82-2.28-1.32-2.89-2.05-3.76-5-2.19-8.2a23.17,23.17,0,0,1,3.13-4.8c3.25-3.75,6.62-7.38,10-11,1.91-2.06,3.9-4,5.85-6a20.24,20.24,0,0,0,5-8.92c1-3.74-.34-6.38-3.95-7.88-2.75-1.15-5.59-1-8.8-.62.18,1.32.28,2.48.49,3.61.53,2.88.28,3.15-2.58,2.39-.19,2-1.5,2.3-3.32,2.43-5.65.42-11.28,1.14-16.93,1.65-3.8.35-7.62.8-11.42.11l-11-20.17h-3.31a3.67,3.67,0,0,1-3.79-2.67c-.89-2.57-1.89-5.1-2.82-7.65-1.13-3.06-2.24-6.13-3.46-9.47a13.05,13.05,0,0,0-2.45,4.9,24.13,24.13,0,0,1,1.95,1.48c1.28,1.21,1.43,2.25.63,3.87-.36.71-.81,1.37-1.14,2.09a3.76,3.76,0,0,0-.27,1.29c0,.63.19,1.39-.08,1.86a2.63,2.63,0,0,0-.13,2.64c.47,1.08-.2,2-.95,2.78a18.82,18.82,0,0,1-1.79,1.44c-.32,1.62.56,2.16,1.83,2.65a16.09,16.09,0,0,1,3.49,2,2.3,2.3,0,0,1,1.06,2.9,2.52,2.52,0,0,1-3,1.47,8.22,8.22,0,0,0-.94-.05c.64,1.84,1.21,3.56,1.84,5.25,1.22,3.21,2.54,6.39,3.69,9.63,1.63,4.58,2.64,9.29,1,14.07s-3.45,9.45-5.35,14.11c-3,7.33-6.1,14.6-9.16,21.89-.15.37-.28.74-.44,1.16,1.65,2.86,4.3,4.51,7.17,5.73a5.26,5.26,0,0,0,3.46-.22,18.75,18.75,0,0,0,3.7-2.17c3.89-2.53,8-4.32,12.78-4.12s9.75,5.58,9.26,10.43a5.28,5.28,0,0,1-1.52,3.1,10.1,10.1,0,0,1-3.88,2.25c-4.67,1.39-7.58,4.87-10.46,8.42a4.14,4.14,0,0,0-.7,1.52c-1,3.82-.1,6.55,3.65,7.54,2.85.75,5.79,1.17,8.69,1.75,1.48.29,3,.54,4.45.94s2.85,1,4.57,1.57c2.19-1,4.65-2.12,7.15-3.17a4.85,4.85,0,0,1,2.23-.45c10.51,1,20.85,3.08,31.2,5.07a5.05,5.05,0,0,1,1.15.33c1.06.45,1.28,1,.68,2.07a14.27,14.27,0,0,1-4.13,4.91c-2.1,1.45-4,3.23-6.22,4.46a37.5,37.5,0,0,1-7.9,3.39c-1.31.38-3-.29-4.42-.65-5.35-1.34-10.68-2.76-16-4.14L708,350.46a7.63,7.63,0,0,0-1.4-.31c-1.51-.1-3.05,0-3.61-2-.11-.35-.72-.55-1.3-1,1.69-2.92,5-3,7.71-4.78-1.29-.36-2.3-.72-3.34-.92-2.66-.53-5.35-1-8-1.48a28.43,28.43,0,0,1-3-.81c-6-1.82-6.4-6.75-5.21-10.88a4.81,4.81,0,0,1,.8-1.73c3.13-4,6.52-7.7,11.64-9.2a13.91,13.91,0,0,0,2.67-1c1.93-1,2.42-2.26,1.91-4.39a8.47,8.47,0,0,0-10.32-6.26,21.8,21.8,0,0,0-8.22,3.76,20.47,20.47,0,0,1-3,2,7.56,7.56,0,0,1-8-.25c-.66-.41-1.33-.79-2.31-1.38a21.94,21.94,0,0,1,.66,2.12c.4,2.13-.57,3.42-2.73,3.6a27.25,27.25,0,0,1-3.83.14c-1.33-.07-1.64.64-1.75,1.83a25.29,25.29,0,0,1,3.16,1.6,12.6,12.6,0,0,1,3,2.64c1.4,1.86.82,3.64-1.4,4.3a50.24,50.24,0,0,1-5.87,1.12c-.86.15-1.74.19-2.68.29a3.66,3.66,0,0,0,1.25,3.38,24.17,24.17,0,0,0,8.51,5.25c2.58,1.06,5.2,2.05,7.79,3.1,2.19.88,4.22,2,4.93,4.32,2.37.26,4.6.4,6.78.78a9.67,9.67,0,0,1,3.32,1.28c1.64,1,1.56,2.43-.16,3.27-1.35.67-2.84,1.07-4.24,1.66-1.14.48-2.47.71-3.16,1.92,1,1.45,1.18,1.52,3.67,2.08.81-1.58,2.09-1.79,3.73-1.17s3.22.93,4.78,1.5a2.23,2.23,0,0,1,1.71,2.7,20.19,20.19,0,0,1,2.63,1.34,1.72,1.72,0,0,1,.7,1.35,1.56,1.56,0,0,1-1.1,1,11.53,11.53,0,0,1-3.26-.3c-.92-.23-1.65-.62-2.68,0a3.52,3.52,0,0,1-2.51-.16c-1.66-.56-3.26-1.3-4.88-2-.72-.32-1.47-.61-1.48-1.65,0-.28-.42-.61-.72-.81-.46-.3-1-.46-1.49-.76-2.52-1.63-2.52-4.22.08-5.71a22.93,22.93,0,0,1,3.56-1.41c1.09-.4,2.21-.77,3.84-1.33a18,18,0,0,0-8.62-1.85c-2.32,3.86-6.12,5.83-10.07,7.58a4.28,4.28,0,0,1-1.65.18c-7,0-14.08,0-21.12-.12-9.59-.12-19.18-.25-28.77-.47-3-.07-6.05-.52-9.08-.69-1.9-.11-3.82,0-5.93,0,.19.5.33,1,.55,1.43a17.62,17.62,0,0,1,1.64,7.2,4.93,4.93,0,0,1-3.86,5.13c-2.93.87-5.86,1-8.57-.73-3.17-2-6.26-4.16-9.47-6.12a69.49,69.49,0,0,0-7.76-4.25c-3.78-1.68-7.2-.22-10.3,2-1.33.94-1.53,2.58-1.61,4.12a17.89,17.89,0,0,1-1.72,6.69c-1.22,2.61-3.17,4.11-6.09,3.6-3.37-.58-6.7-1.39-10-2.24-5.18-1.33-10.31-2.89-15.51-4.14A24.14,24.14,0,0,0,522,365.71c-3,1.27-6,2.66-9.05,3.83A19.93,19.93,0,0,1,504,371.2v-2.32a3,3,0,0,1,.78-.38c4.89-.36,9.29-2.27,13.66-4.25a29.09,29.09,0,0,1,10.34-2.9,31.46,31.46,0,0,1,8.56.59c5.37,1.21,10.64,2.86,15.95,4.33,2.31.64,4.58,1.44,6.93,1.9,4.73.94,6.4-.2,7.45-4.91a34.85,34.85,0,0,0,.5-3.55,7.45,7.45,0,0,1,4.5-6.31c4.3-2,8.58-2.58,12.83,0,4,2.37,7.88,4.88,11.82,7.32,1.22.76,2.48,1.46,3.71,2.21a7.57,7.57,0,0,0,6.25.58,3,3,0,0,0,2.49-3.35c-.18-3.68-1.06-7.08-4-9.72a2.11,2.11,0,0,0-2.32-.65c-.61.2-1.2.44-1.81.62-2.22.64-2.94.28-3.88-1.87-.13-.28-.3-.54-.5-.89l-1.62.51c-1.86.58-3,0-3.93-1.7-4.29-7.84-8.62-15.67-12.92-23.51-2-3.72-4-7.47-6-11.2-.44-.8-.68-1.74-1.85-2-.84-.19-1-1-.55-1.75a5.61,5.61,0,0,1,.85-1.15c5.68-5.88,11.57-11.5,18.45-16a49.92,49.92,0,0,0,4.24-3.14,23.55,23.55,0,0,0,2.22-2.43c.55-.12,1.12.37,1.47,1.16,1.46,3.26,3.93,5.82,6,8.64,1.91,2.56,3.72,5.19,5.67,7.93l1.44-.88c0-.32.08-.51,0-.63-1.22-2.57-1.17-2.51.73-4.54,1.37-1.45,2.57-3.06,3.81-4.63q9.58-12.13,19.16-24.29l2.63-3.31a19.75,19.75,0,0,0-6.62-.62,27.25,27.25,0,0,0-9.37,2.81c-2.42,1.19-4.78,2.53-7.1,3.91-1.66,1-3.37.27-5,.35-.26,0-.85-.82-.76-1,.51-1.11.41-2.53,1.69-3.27,1-.6,2-1.36,3-2,1.88-1.33,2.35-1.26,4,.64,2.58-1,5.17-2,7.78-2.92a21,21,0,0,1,11.33-.93c.32.06.65.06,1,.13a3.15,3.15,0,0,0,3.84-1.6,10.8,10.8,0,0,1,1.13-1.39l-1.23-2c-2.24-.23-4.38-.39-6.5-.69a17.45,17.45,0,0,1-3.46-.9,2.51,2.51,0,0,1-1.58-2.69,2.09,2.09,0,0,1,2-2.08c1.63-.28,3.29-.36,5.24-.56l-2.08-4.08c-3,.14-6,.23-9,.45-1.47.11-2.93.39-3.9-1-.72-1.06-.37-2.58,1.22-4a24.1,24.1,0,0,1,4.15-2.79,24.62,24.62,0,0,1,3.09-1.3c-.47-1.45-.91-2.85-1.35-4.23a26.25,26.25,0,0,1-3.14-.77,2.32,2.32,0,0,1-1.36-3.65,25.23,25.23,0,0,1,2.56-3c-.47-.14-.94-.33-1.42-.43-3.08-.66-4.62-2.54-4.52-5.55.09-2.69,1.63-4.2,4.8-4.7a15.46,15.46,0,0,1,1.89-.3c2,0,2.91-1.14,3.54-2.92.71-2,1.73-3.9,2.67-6-.84-1-1.79-2-2.71-3.13s-1.63-2.19-2.59-3.14-.87-2.74-2.76-3.22c0,1,0,1.74,0,2.51-.2,2.37-1.81,3.62-4.14,3a41.57,41.57,0,0,1-4.45-1.71c-.59-.22-1.21-.37-1.81-.55l-.23.41a24.19,24.19,0,0,1,2,2.92,23.68,23.68,0,0,1,2.19,5.28c.63,2.93-1.2,4.65-4.14,4.14a14.51,14.51,0,0,1-9.29-5c-2.14-2.61-3.26-2.36-4.62.77-1,2.19-1.88,4.39-2.86,6.71l.53.55c1.79,1.89,1.77,2.47.12,4.45-1.23,1.46-2.36,3-3.55,4.51-2.23,2.83-2.77,3-6.2,1.52-4-1.66-8-3.25-11.89-5.05a38.34,38.34,0,0,1-5.06-3.19c-.76-.5-1.68-3.34-1.45-4.28.14-.54.38-1.05.62-1.72a14.56,14.56,0,0,1-.92-1.52,10.86,10.86,0,0,1-.52-1.64,31.29,31.29,0,0,1-9.53-6.31,22.46,22.46,0,0,1-6.12-9.58c-1-2.78,0-5,1.41-7.19a2.66,2.66,0,0,1,1.32-1c2.82-.84,5.54-2,8.59-2,3.92-.06,7.36,1.32,10.7,3.07a94.79,94.79,0,0,1,13.6,8.52c2,1.55,4,3.19,6,4.8,2.84-1.36,3.51-4.54,6.09-5.95a13.45,13.45,0,0,1-1.51-1.8A8.9,8.9,0,0,1,599,187.9c-.34-2.44,1.39-4.4,3.8-4a64,64,0,0,1,7.52,2.17l4.48-2.39c-.47-1.11-.94-2.11-1.31-3.15a3.54,3.54,0,0,1,.41-3.84c1.05-1.17,2.4-1.15,3.77-.83a9.25,9.25,0,0,1,5.44,4.08c3.14-.92,6.25-1.87,9.39-2.74a36.76,36.76,0,0,1,14-.68c5.8.64,11.54,1.68,17.31,2.54.55.08,1.11.13,1.67.16,3.13.14,3.37,0,4.83-3.2-2.71-.8-3.68-3.3-4.69-5.44-3.22-6.77-3-13.9,2.05-19.58,6-6.78,13.5-11.42,23-11.79a9.56,9.56,0,0,1,1,.07c.72,2.51-.95,4.29-2.13,6.31a34,34,0,0,1,3.92,2.73,37.5,37.5,0,0,1,3.2,3.86c1.23-.22,2.69-.6,4.17-.74s3,0,4.78,0c-.82,3.86-3.89,5.24-6.26,7.17a23.78,23.78,0,0,0,.51,3.18,3.81,3.81,0,0,1-1.37,4.28,40.71,40.71,0,0,0-3.43,3.09c.85-.34,1.71-.65,2.55-1a2.11,2.11,0,0,1,2.45.27,2,2,0,0,1,.45,2.43c-1.34,2.73-2.73,5.46-5.76,6.76l-3.1,1.3a15.49,15.49,0,0,0-7.31,5.44c.76.66,1.55,1.29,2.28,2,3.79,3.67,5.82,8.33,7.43,13.24,1.17,3.56,2.48,7.07,3.78,10.58a7.93,7.93,0,0,0,1.1,1.85,2.83,2.83,0,0,0,3.11,1.27c2.41-.53,4.85-1,7.26-1.51,3.89-.87,7.76-1.86,11.66-2.65A10.51,10.51,0,0,1,724,209.44ZM704.5,237.29a15.79,15.79,0,0,0,2.85,5.16c-.15-2.56-1.86-3.65-2.89-5.13a2,2,0,0,0,0-.69c-1.59-3.29-3.18-6.58-4.84-9.83-.16-.32-.79-.41-1.2-.6a108.82,108.82,0,0,0,5.43,10.49A3.07,3.07,0,0,0,704.5,237.29Zm12.94,104.17-1.89,1-9.48,3.79.07.56c1.13.28,2.25.6,3.38.84a132.73,132.73,0,0,1,19.6,5.36c.9.34,1.84.56,2.73.9a6,6,0,0,0,5.72-.68c4.85-2.9,9.45-6.3,15-8.11a5,5,0,0,0-1.73-.71c-8.93-1.73-17.86-3.46-26.8-5.12a5.47,5.47,0,0,0-2.78.24A34.1,34.1,0,0,0,717.44,341.46ZM574.5,208.16c.73-.62,1.52-1.18,2.19-1.86a2.89,2.89,0,0,1,3.3-.65,14,14,0,0,1,1.45.72l11.26-6.43c-1.64-1.51-3-2.91-4.57-4.17a74.42,74.42,0,0,0-13.92-8.86c-3-1.52-6.16-2.8-9.64-2.26a36.85,36.85,0,0,0-5.3,1.37c-2.75.84-3.69,2.78-2.78,5.55a18.39,18.39,0,0,0,5.7,8.71c2,1.61,4,3.17,6,4.71a4.78,4.78,0,0,0,3.52,1.18,2.41,2.41,0,0,1,2.77,2c-2-.75-2-.75-2.76,1C572.94,209.33,572.94,209.33,574.5,208.16ZM691.2,149.8h0c-.52-1.43-1.8-1.91-3-2.61-3.31,2.76-6.55,5.48-10.3,6.93.11,3,.25,5.91.31,8.76a7.83,7.83,0,0,1-.33,2.36c-.46,1.59-1.15,1.85-2.64,1.1-.84-.42-1.66-.89-2.47-1.33a3.45,3.45,0,0,0-.27,3.66c.5,1.33,1.57,1.51,3,1.43a21.93,21.93,0,0,0-2,3c-.45,1-.39,2.26-.9,3.21a37.72,37.72,0,0,1-3.39,5.17,2.69,2.69,0,0,1-2.06.77c-1.9-.16-3.79-.53-5.68-.85-6.93-1.17-13.84-2.44-20.91-2.49-7.72-.06-14.64,2.78-21.55,5.66l6.06,9c-.21,0,0,0,.1,0,.4-.07.78-.17,1.17-.27a70.33,70.33,0,0,1,20.43-2.06,16,16,0,0,1,3.52.61c.39.11.94,1,.83,1.2a2.34,2.34,0,0,1-1.33,1c-.4.13-.93-.14-1.4-.19l-3.35-.25c-1.19-.09-1.79.4-1.71,1.51a30.61,30.61,0,0,1,3.94,3.23c3.79,4.34,8.45,7.55,13.28,10.56a5.5,5.5,0,0,0,2.23.7c5.12.59,10.36-.34,15.48,1.33,1.09-2.28,2.09-4.45,3.17-6.58a30.22,30.22,0,0,1,2-3.28c.18-.26.74-.26,1.65-.54l-1.37,3.4c1.74,4.39,3.34,8.39,4.9,12.4,1.1,2.82,1.8,5.8,3.67,8.44,4.09.21,8-1,11.92-1.75.61-2.84-1.28-5.43-.12-8.28-.92.09-1.9-.1-2.43.3-1.5,1.17-2.55.44-3.53-.59a14.81,14.81,0,0,1-2-2.66A38.46,38.46,0,0,1,692,201.1a34.1,34.1,0,0,0-4.61-10.47,13.39,13.39,0,0,0-4.72-4.65c-3.67,2.25-7.25,4.49-10.89,6.65a4.52,4.52,0,0,1-6.16-1.28c-1.45-2.2-1.42-4.75-1.84-7.17,1.31-.42,1.58.31,1.79,1,.32,1.07.51,2.18.84,3.24.94,3.08,2.71,3.62,5.41,1.8,2.25-1.52,4.58-2.91,6.85-4.4a20.37,20.37,0,0,0,3.46-2.53A29,29,0,0,1,693.48,176a4.33,4.33,0,0,0,.88-.38c2.06-1.24,3-3.25,3.87-5.36a35.85,35.85,0,0,0-3.67,1.25,1.75,1.75,0,0,1-2.25-.84,1.8,1.8,0,0,1,.28-2.4,16.21,16.21,0,0,1,2.06-1.63c3.31-2.35,3.4-2.53,3-6.54a2.42,2.42,0,0,0-.06-.47c-.76-1.91.17-2.95,1.79-3.81a5.26,5.26,0,0,0,2.87-2.6c-2.2.41-4.22.21-5.76,1.89-.74.8-1.59.48-2.05-.57-.22-.51-.29-1.09-.54-1.59C693.25,151.7,692.81,150.25,691.2,149.8ZM669.3,305.66c.33-.6.51-.86.63-1.14,3.8-9.24,7.64-18.46,11.37-27.72a96.46,96.46,0,0,0,3.4-9.72,17.89,17.89,0,0,0,.79-6.35,32,32,0,0,0-1.81-7.42c-1.79-5.22-3.77-10.36-5.65-15.54-.55-1.5-1-3-1.56-4.64-2-.46-3.9-.87-5.81-1.41a3.69,3.69,0,0,0-3.18.42A25.77,25.77,0,0,1,659.9,235c-7.77,2-15.72,2.82-23.64,3.83a22.33,22.33,0,0,0-2.23.51c1.45,3,3,5.6,4.07,8.41.88,2.31,2.46,2.95,4.6,3q8.25.08,16.52.1a9.36,9.36,0,0,0,1.61-.33c0-2.95,0-5.82,0-8.68a21.11,21.11,0,0,1,.42-3.55c.07-.34.56-.6,1.18-1.22.8,3.26-.07,6.23.49,8.75a64.1,64.1,0,0,1,6.61,1.24c2.17.64,2.43,2,1.09,3.85a5.35,5.35,0,0,1-4.29,2.27c-1,0-2.05,0-3,0-.72,1.55.43,2.22.92,3.18.79,1.53,1.94,1.84,3.54,1.69a42.23,42.23,0,0,1,5.51-.08,6.62,6.62,0,0,1,4.92,2.16c1.46,1.63,1.32,3.21-.42,4.49a6.73,6.73,0,0,1-1.68.93c-2.46.88-4.95,1.7-7.69,2.64a2.67,2.67,0,0,1-.49,1.18c-1.91,1.9-2.42,4.45-3.31,6.82-2.34,6.2-4.62,12.43-6.92,18.65l-2.7,7.24C659.9,303.34,664.85,303.15,669.3,305.66Zm-22,11.78c-2.09-.82-3.93-1.4-5.62-2.25s-2.1-2.49-1.09-4.24a4,4,0,0,1,3.06-2.08c2.27-.28,4.55-.5,7-.76.35-1.06.75-2.31,1.21-3.72-.84-.14-1.36-.27-1.9-.32a15,15,0,0,1-6.1-2c-1.54-.87-1.69-1.62-1.65-3.36.06-3,5.05-6.59,8-5.57,1.63.57,3.27,1.1,5.13,1.73,3.25-8.86,6.51-17.72,9.8-26.68-1.81-.17-3.2-.18-4.42,1.39-9.84,12.73-21,24.28-32.1,35.91-2.29,2.41-4.55,4.35-8,2.42a10.8,10.8,0,0,0-3.1,6.32,3.06,3.06,0,0,0,.45,2.48c.68.94,1.65,1.91.14,3-.14.1,0,.59,0,.9a5.31,5.31,0,0,0,1.37,3.23c2.34,3.09,5,6,6.31,10.07-1.72,1-3.38,2.05-5.16,2.89a3.09,3.09,0,0,0-2,2.91,4.67,4.67,0,0,1-6.29,3.93c-1.61-.62-3.15-1.42-5-2.27,1.1,2.35-1.16,2.42-2.21,3.59a3.38,3.38,0,0,1,1.88,4,181.06,181.06,0,0,1,38.12-1.56c.19-3,.36-5.76.53-8.65-.87.23-1.47.43-2.09.56a23.07,23.07,0,0,1-9.75.28c-3.06-.71-3.86-3.05-2-5.61a10.67,10.67,0,0,1,5.54-4,37.68,37.68,0,0,1,11.94-2.28,15.94,15.94,0,0,0,2.6-.42c.28-1.82.52-3.45.76-5.07C650.5,320.77,648,320,647.26,317.44Zm-31.41-.09c-6-9.89-12.22-19.85-19.67-29-8,6.1-15.9,12.46-22.72,20.46L592.56,342ZM659,268.09l-19.12-3.38-27.11,35.12a25.65,25.65,0,0,0,1.74,2.06c2.46,2.36,5.61,3.29,8.78,4.17a2.07,2.07,0,0,0,2.26-.91c5.3-5.87,10.64-11.71,16-17.56l16.27-17.93C658.16,269.26,658.46,268.81,659,268.09Zm46.58-51.44c.79,4.49,1.51,8.72,2.29,12.95s.82,8.67,2.09,13.2l29-2.28c-1-8.11-1.94-16-2.89-23.87Zm-75.35,6c.44.1.62.21.73.16a41.77,41.77,0,0,1,10.92-2.57,45,45,0,0,1,13.37.1,76.81,76.81,0,0,1,18.09,5.36,9.46,9.46,0,0,0,1.69.4c.14-2.26.27-4.3.38-6.08-2.71-1.45-5.18-2.74-7.62-4.1q-2.71-1.53-5.34-3.21a4.46,4.46,0,0,0-3.18-.69c-5.85.81-11.7,1.57-17.56,2.33-2.61.34-5.23.64-7.84,1-.91.13-2,.07-2.31,1.3C631.12,218.63,630.69,220.63,630.25,222.62ZM690,141.32a21.91,21.91,0,0,0-8.57,2.15,21.55,21.55,0,0,0-10.75,9.93L669,151.9a16.66,16.66,0,0,0-1.76,16,11.34,11.34,0,0,0,4.15,5.72c.34-1,.56-1.66.78-2.32a7.32,7.32,0,0,1-2.35-5.62c.1-2.43,1.94-3.68,4.28-3l1.35.38a21.45,21.45,0,0,0,.21-8c0-.5-.66-1-1.08-1.41s-1-.86-.39-1.75a4.59,4.59,0,0,0,4.43-.11,32.48,32.48,0,0,0,10-8.06A21.45,21.45,0,0,0,690,141.32Zm-57.13,95.09c1-.1,1.84-.16,2.7-.28,3.25-.44,6.49-.85,9.72-1.36q7.8-1.25,15.57-2.63a10.54,10.54,0,0,0,4.68-1.75,76.1,76.1,0,0,0-13.1-2.07c-4.13-.37-8.29-.32-12.35-1.31-.54-.13-1.11-.11-1.66-.2a1.78,1.78,0,0,0-2,.94c-.62,1-1.31,2-2,3-.38.54-1,1.11-1.55.55a1.93,1.93,0,0,1-.22-1.68,31.14,31.14,0,0,1,1.55-3.37l-4-.34C630.07,228.74,631.12,232.9,632.89,236.41Zm28.05,17h-19.4c0,.07-.06.25,0,.37.63,1.2,1.22,2.43,2,3.57a1.93,1.93,0,0,1-.13,2.6c-.52.64-1,1.35-1.49,2.09,5.76,1.72,17.75,3.36,19.87,2.73a27.86,27.86,0,0,0-1.17-5.49C660.05,257.57,660.76,255.47,660.94,253.43Zm-28.19-40,24.57-3.74c-.48-.38-.71-.58-1-.75a65.44,65.44,0,0,1-10.83-9,25.69,25.69,0,0,0-4.06-3C638,202.21,634.92,207.27,632.75,213.45Zm17.4,101.67c5,2.06,10.06.53,14.89,2.09l3.47-9.3c-4.59-2.6-9.57-2.5-14.44-3.37C652.71,308.21,651.44,311.62,650.15,315.12Zm-60.52-98.4.47.29c2.47-2,2.82-5.65,5.27-7.61,1.85.9.4,2.11.73,3.26,2.12-2.76,2-6.56,4.64-8.76L598.35,199l-17.3,10,.26.49c.53-.26,1.09-.49,1.6-.79,1.46-.83,2.89-1.71,4.34-2.55.57-.34,1.18-.63,1.65.53-2.21,2.26-5.85,3-7.29,6.32,2-1.2,4-2.57,5.88-3.94a10.23,10.23,0,0,1,1.59-1.06,1.13,1.13,0,0,1,1,.18,1.08,1.08,0,0,1,0,1.06,13.53,13.53,0,0,1-2,1.7,6.84,6.84,0,0,0-2.86,3.61c1.95-1.36,3.78-2.84,5.61-4.33.56-.45,1.08-1.05,1.76-.12C591.6,212.27,590.61,214.49,589.63,216.72Zm32.17-22.36c-.73-3.69-3.5-5.84-5.54-8.55a46.51,46.51,0,0,0-11,6.54c2.27,1.68,4.36,3.27,6.49,4.79a1.72,1.72,0,0,0,1.33.2C616,196.4,618.82,195.39,621.8,194.36Zm17.56,29.34.19.73c3.54.44,7.07,1.06,10.62,1.29a85.14,85.14,0,0,1,16.94,2.81c2.46.66,4.95,1.22,7.43,1.79a5.25,5.25,0,0,0,1.19,0,25.92,25.92,0,0,0-7.9-4q-5.49-1.6-11-3c-5.35-1.38-10.76-1.07-16.16-.32C640.18,223,639.78,223.45,639.36,223.7Zm9,105.54c-4.87.83-9.39,1.6-13.12,4.65a3.62,3.62,0,0,0-1.64,3,12,12,0,0,0,2.6.41c2.3-.12,4.6-.39,6.9-.62,1-.1,2-.24,3.18-.38C646.86,334.2,647.53,331.93,648.33,329.24Zm6.66-6.12c-.12.19-.26.31-.29.45-.45,2.14-.19,4.48-1.91,6.25-.19.2-.11.78,0,1.13.32.95.73,1.87,1.16,3a8.35,8.35,0,0,0,2-.63c1.84-1.17,3.63-2.43,5.6-3.77-.27-1.69-.58-3.62-.88-5.53ZM612.3,200.7c-3.28,1.21-4.71,2-5.9,3.37,3.3,4.27,6.88,6.21,10.23,5.4C616.58,205.88,614.57,203.3,612.3,200.7Zm112.56,10.14c.34,1.27.6,2.29.89,3.4l10.44-.48c-.24-1.61-.44-2.92-.62-4.18,1.42-1.64,3.54-2.41,4.83-4.13-1.34.41-2.53,1.07-3.81,1.47-2.35.74-3.52,2.61-4.66,4.54-.16.26-.1.7-.3.88s-.89.67-1.16.55-1-.77-.91-1.14a4.38,4.38,0,0,1,.79-1.93c.72-1.11,1.54-2.15,2.31-3.21l-.33-.39ZM654.75,296.3c-1.56-.51-2.8-1-4.08-1.31-2.18-.49-3.86.45-5.2,2.12-1.08,1.34-.86,2.49.64,3.24a12,12,0,0,0,6.7,1.34Zm-44.58-97.73-6.79-4.91-3.6,3.22c1.16,2,1.57,4.23,3.61,5.52Zm-6.24,135.48a50.05,50.05,0,0,0-8,9.23c3.76-1,7.26-1.6,10.42-3.08Zm62.69-122.2c1.35,2,6.41,4.71,9.52,5.21.35-1.31.71-2.63,1.08-4C673.71,211.21,670.13,212.34,666.62,211.85ZM707,214.6l16.92-.47-2.3-3.08A60.11,60.11,0,0,0,707,214.6Zm-91.66,97.88c1.14-1.83,2.12-3.43,3.1-5l-6.47-4.11L610.46,305ZM634.54,194.1l-6.68,1.39a31,31,0,0,0,6.84,7.76C634.85,200.24,633,197.4,634.54,194.1Zm41.68,68c-2.07-1.9-5.58-2.39-9.32-1.32.45,1.33.9,2.65,1.31,3.88A13.73,13.73,0,0,0,676.22,262.11Zm-25.54,55.94a16.32,16.32,0,0,0,12.48,3.07c1.12-.18,1.33-1,.58-2.3Zm-78-104.33,4.09,2.1c1.39.71,2.79,1.41,4.25,2.14.18-1,.31-1.77.42-2.37-.94-.34-2.11-.42-2.54-1s0-1.67.09-2.38l-4.41-1c-.21.22-.67.65-1.07,1.14S573.06,213.12,572.7,213.72Zm77.18,96.51c-2-.31-5.55.13-6.61.89a7.22,7.22,0,0,0-1.27,1.6c2,1.6,4.11,1.89,6.39,2.29Zm-21.33-93.89c-1.35.2-2.45.31-3.52.52a2.21,2.21,0,0,0-2,1.78,3,3,0,0,0,1.07,3,3.11,3.11,0,0,0,3.18.49C627.69,220.27,628.09,218.44,628.55,216.34Zm-10.37,108.4c-1.13,3.63,0,6.55.53,9.4l4-2.77Zm44.58-.55c2,1.05,7.25.68,9.33-.71-1.29-2.2-3.34-3.08-5.81-3.77.62,2.37.36,2.9-1.49,3.53C664.09,323.48,663.18,323.32,662.76,324.19ZM582.44,218.8c2.63,1.25,5,2.44,7.49,3.52a1.07,1.07,0,0,0,1.62-1.06c0-.94-.11-1.87-.17-2.71a17.05,17.05,0,0,1-2.23,1.63c-1.16.6-1.88.17-1.92-1.15a12.12,12.12,0,0,1,.35-2.58c.08-.47.21-.93.36-1.54Zm21-27.87,4.75-3.59a10.1,10.1,0,0,0-5.22-1.6c-1.29-.11-1.87.63-1.79,1.93S602.28,189.9,603.49,190.93Zm106.22,53.6,0,.45a4.12,4.12,0,0,0,1.11.25q12.4-.85,24.82-1.76a1.66,1.66,0,0,0,.63-.3c.05,0,.05-.15.06-.23a1.41,1.41,0,0,0,0-.27ZM705.45,234l.59-.2-1.65-8.68-3.64.85Zm-88-51.49,4.38-1.89c-2.1-2.34-3.76-3-6.08-2.44C615.8,180,616,180.48,617.5,182.49Zm7,60.86h8.47c-.64-1.24-1.25-2.41-1.9-3.68C628.55,240.61,626.1,241.07,624.45,243.35Zm73.31,116c.77-1,1.36-1.83,2.17-2.9l-5.23-1.69-1.49,2.89ZM669.09,249a37.63,37.63,0,0,0-3.72-1c-2.25-.36-2.74.28-2.12,2.67C665.18,250.63,667.31,251.49,669.09,249Zm-9.72,97.88c4.3.65,8,1.28,11.81,1.76a23.1,23.1,0,0,0,3.8-.12c0-.2,0-.41,0-.61A110.62,110.62,0,0,0,659.37,346.88Zm-49.19-7.42-2.31-3.89c-.71-1.19-.49-2.93-2.4-3.92C606,335.22,606.77,338.14,610.18,339.46Zm60.25-30c-.48,1.16-.92,2.21-1.42,3.43h4.11A5.5,5.5,0,0,0,670.43,309.41ZM592.25,217.2l.28.25,2-1.65v2.62l2.44-2.56-3.16-1.36Zm8.12,130.88,4.15-1.08c-1.7-1.75-1.7-1.75-4.56-.21Zm36.14-148.67.56.13,2-4-3,.62C636.2,197.43,636.36,198.42,636.51,199.41Zm42.66,14.73c-.25,1.2-.46,2.24-.68,3.28,1.75.57,2-.74,2.33-1.57S680.45,214.45,679.17,214.14Zm58.45,1.56c1.75-.5,3.51-.24,5-1.46C740.16,213.58,738.66,214,737.62,215.7ZM632.83,252.85c2.39,1,3.9,1,5.36.18A11.51,11.51,0,0,0,632.83,252.85Zm31.4,7.78-.43.13c.15,1.31.26,2.64.5,3.94,0,.17.69.22,1.47.45C665.17,263.37,664.7,262,664.23,260.63Zm13.54-37.44,2.51-2-2.51-1.39Zm-55.29-26.27c-1.09.5-2.1.3-2.8,1.47l3,.56C622.58,198.16,622.54,197.73,622.48,196.92Zm59.86,38.79c-1-.76-1.48-1.58-2.73-1.23.33.82.62,1.51.94,2.3ZM627,227.22l-1.53,2.47,2.19.3Zm114-18.28-.2-.55-3.36,1.27.15.41Zm-2.22,2.91c0,.19,0,.37.08.55l2.87-.5-.07-.43ZM661.77,337c-.15-.4-.19-.77-.31-.79a2.31,2.31,0,0,0-.8.13c.06.2.06.52.17.57A3.11,3.11,0,0,0,661.77,337Z" transform="translate(-71.35 -109.07)"/><path d="M232.08,243.51a15,15,0,0,0-10.21-4.65,85.93,85.93,0,0,0-16.74.29c-4.68.58-9.38,1-14.07,1.52s-9.36,1.13-14,1.67a4.2,4.2,0,0,0-2.53,1.37c-3,2.83-3.42,6.4-3.38,10.13a108.1,108.1,0,0,0,1.57,16.92c1.28,7.47,2.17,15,3.35,22.5.6,3.78,1.49,7.52,2.19,11.29.16.8.65,2-.5,2.27-1.4.27-1.2-1.14-1.37-2q-2.72-13.63-5.42-27.27c-.22-1.08-.39-2.17-.65-3.63-1.69,1.21-3.16,2.22-4.58,3.29l-32.29,24.52c-2,1.52-2.73,1.44-4.45-.47-.58-.64-1.14-1.3-1.83-2.1a18.17,18.17,0,0,0-1.59,1.54c-2,2.41-3.87,4.87-5.86,7.26-2.49,3-5.13,3.18-8,.43a18,18,0,0,1-2.84-3.79,39.78,39.78,0,0,1-1.92-4.13,12.14,12.14,0,0,0-6.06-6.15c-2.45-1.19-4.56-3.1-7-4.81,1.35,4.09,2.8,8.14,4,12.25s2,8.21,3.24,12.27,2.64,8.2,4,12.38c2.32,0,4.55,0,6.78,0,5.12-.09,10.24-.21,15.35-.3a3.51,3.51,0,0,1,1.42.1,1.52,1.52,0,0,1,.86,1c0,.33-.43.81-.79,1a3.25,3.25,0,0,1-1.4.23c-11.59,0-23.19.49-34.78-.32q-10-.7-20-1.44c-.31,0-.62-.12-1.19-.24.17-2,1.38-3.55,2.22-5.2s1.91-3.51,2.82-5.29,1.62-3.48,2.51-5.18,1.86-3.27,3-5.27c-1.72-8.21-3.56-16.95-5.4-25.73,1.47-.84,2.74-1.66,4.09-2.3A4.89,4.89,0,0,1,82.9,277c2.63.14,5.25.39,7.87.63a1.69,1.69,0,0,1,.87.33,2,2,0,0,0,3,0,1.56,1.56,0,0,1,1.32-.33,33.14,33.14,0,0,1,4.69,2.15,2.77,2.77,0,0,1,1,1.81A4.91,4.91,0,0,0,104,285,30.7,30.7,0,0,0,116,290.13a18.67,18.67,0,0,0,4.4-.42c-.48-1.49-.86-2.59-1.19-3.7a2.14,2.14,0,0,1,1-2.74c5.47-4.28,10.69-8.87,16.1-13.24,10.07-8.15,20.2-16.22,30.31-24.32.91-.74,1.83-1.46,3.15-2.5-1.85,0-3.16-.06-4.46,0s-2.86.31-4.29.41c-1.62.11-1.79-.06-1.9-1.63,0-.56-.06-1.11-.08-1.62-.19-.15-.31-.32-.44-.33-2.47-.14-3.7-1.74-4.83-3.72-4.09-7.14-8.39-14.16-12.38-21.36a86,86,0,0,1-4.55-10.29,11.16,11.16,0,0,1-.63-4.22c.09-2.53,2.39-3.6,4.39-2a8.07,8.07,0,0,1,2.14,2.82c4.6,9.67,9.11,19.38,13.7,29.05,1.27,2.66,2.71,5.23,4.15,8l13.2-1.19,1.4-3a13.39,13.39,0,0,1-2.18-.27,1.24,1.24,0,0,1-.39-2.34,10.07,10.07,0,0,1,2.83-1.24c3.53-1,7-2.13,10.63-2.86a19.11,19.11,0,0,1,5.7,0c1.9.19,3.77.7,5.65,1.07,1.62.33,3.13.35,4.49-.9a10.68,10.68,0,0,1,2.44-1.25c-.31-1.22.17-1.91,1.4-2.48a25.69,25.69,0,0,0,4-2.67c2.8-2,5.6-4,8.36-6a3,3,0,0,0,1.19-1.62c.7-4.49,1.28-9,1.93-13.77l-3.84-1.08a78.45,78.45,0,0,1-7.59-2.18,98.75,98.75,0,0,1-30.91-19.36,101.34,101.34,0,0,0-8.6-6.44,3.51,3.51,0,0,1-.4-.27L163,164l1.26-3.39a117.15,117.15,0,0,1-11.33-14.36,4.87,4.87,0,0,1-.76-2.23c-.1-2.15-.1-4.3,0-6.45a3.91,3.91,0,0,1,.65-2.24c2.32-2.7,4.57-5.58,8.59-5.81a3.93,3.93,0,0,0,1-.31c1-2.67,2-5.37,3-8,1.14-2.86,1.28-2.63,4.27-3,1.19-.13,1.65.38,1.42,1.58-.42,2.2-1,4.37-1.49,6.54a3.2,3.2,0,0,0,0,2.72,3.54,3.54,0,0,1-.06,2.52c-.52,1.59-1.32,3.08-1.92,4.64a11.55,11.55,0,0,0-1.21,3.82,8.45,8.45,0,0,1-2.49,6.41l4.77,5c1.86-1.19,2.93-.17,4,1.33a43.93,43.93,0,0,0,14,12.19,111.66,111.66,0,0,0,10.46,5.32c6.66,2.91,13.21,6.1,20.19,8.22,1.43.44,2.78,1.13,4.23,1.73.16-1.61-.87-2-1.91-2.39a9,9,0,0,1-5.68-5.16,48.51,48.51,0,0,1-1.37-5.31l3-1.44a4.37,4.37,0,0,0-2.24-1.2c-2-.8-2-.79-1.93-3.15a2.62,2.62,0,0,0-.09-.54c-1.27-.73-2.62-1.42-3.88-2.25a13.86,13.86,0,0,1-2.57-2.13c-.71-.75-1.36-1.68-.84-2.81a2.9,2.9,0,0,1,2.56-1.5c1.27-.13,2.53-.35,3.79-.49A3,3,0,0,0,213,150c1-1.92,2.19-3.71,3.39-5.72-1.53-1.14-3.06-2.25-4.58-3.38s-3.24-2.33-4.79-3.58a4.93,4.93,0,0,1-1.48-1.86,2.44,2.44,0,0,1,.11-1.95,1.84,1.84,0,0,1,1.69-.38c2.41.83,4.81,1.71,7.13,2.76s4.52,2.35,6.8,3.55a19.22,19.22,0,0,1,7.83-4.23,17.63,17.63,0,0,1,14.94,3.15,40.69,40.69,0,0,1,4.33,3.78,13.31,13.31,0,0,1,3.72,6.86c.4,1.77-.07,3.79-.45,5.64-.2,1-1.11,1.87-.51,3.06.09.18-.14.68-.36.84-1.39,1-1.15,2.45-1.32,3.87a53,53,0,0,1-1.22,7.32,8.71,8.71,0,0,1-2,3.22,2.37,2.37,0,0,0-.54,2.4,30.88,30.88,0,0,1,.78,3.26,7.45,7.45,0,0,0,2.5,4.79c2.15,1.79,2.51,4.54,3.79,6.8.33.59.06,1.57,0,2.36a153.34,153.34,0,0,0-.8,25.61c.6,9,1.85,18,2.85,26.93.13,1.19.53,2.35.66,3.53a25.39,25.39,0,0,1,.26,4.76c-.16,2-.58,2.2-2.58,2.08a2.65,2.65,0,0,0-2.28.91,61.82,61.82,0,0,1-4.81,4h2.05c1.4,0,2,.32,1.7,1.59-.39,1.7,1,3.38-.14,5.09-.18.27.65,1.36,1.18,1.91a17.63,17.63,0,0,0,2.56,2.16,3.32,3.32,0,0,1,1.44,3.07c-.19,8.08-.29,16.16-.48,24.23-.23,9.12-.52,18.23-.77,27.34a10.56,10.56,0,0,0,.12,1.27,8,8,0,0,0,1.15.28c7.49.55,15,1,22.48,1.7a49,49,0,0,1,7.69,1.71c.51.13,1.21.74,1.23,1.16s-.54,1.1-1,1.4a3.47,3.47,0,0,1-1.82.45c-4.31,0-8.63-.11-12.94-.24-3.11-.09-6.22-.33-9.34-.44-8.07-.27-16.15-.38-24.21-.82-5-.27-10-1-15-1.56-1.19-.12-2.39-.18-3.58-.24l-17.46-.89c-.48,0-1-.15-1.43-.22-1.18-.17-1.93-.68-1.76-2a9.16,9.16,0,0,0-.12-1.61,11.88,11.88,0,0,0-1.33.65,14.48,14.48,0,0,1-6.26,2.24c-4.24.53-5.83,1.32-8.39,4,.83.08,1.5.17,2.18.22l17.43,1.47c2.23.18,4.46.33,6.68.5a2.76,2.76,0,0,1,.71.09c.21.07.56.25.56.38,0,1.61,1.59,1.85,2.38,2.76.11.12-.15.83-.39.95a4.82,4.82,0,0,1-1.82.52c-10.56.71-20.86,2.93-31.13,5.27-5,1.13-9.94,2.38-14.92,3.53a7.19,7.19,0,0,1-2.36.09q-9.89-1.14-19.76-2.35c-2.7-.33-5.4-.62-8.07-1.13a25.76,25.76,0,0,1-4.52-1.5,2.61,2.61,0,0,1-1.9-2.52,2.79,2.79,0,0,1,2.5-2.26c2.5-.54,5-1,7.53-1.43,6.76-1.18,13.53-2.32,20.3-3.5a21.05,21.05,0,0,0,2.1-.6c.31-.95.6-1.86,1-2.95-.6-.25-1.16-.47-1.72-.72a6.1,6.1,0,0,1-3.55-3.35c-.88-2.26.12-3.64,2.55-3.37a8.57,8.57,0,0,1,1.6.47c.75.24,1.49.5,2.3.77.78-2.68,1.42-5.23,2.25-7.71.71-2.12,1.61-4.17,2.5-6.22a3.6,3.6,0,0,1,1.13-1.5,1.65,1.65,0,0,1,2.8.95,5.33,5.33,0,0,1-.07,2.57c-1,3.54-2,7.06-3,10.59-.23.76-.48,1.52-.78,2.48a5,5,0,0,0,1.42-.11c2.48-1.08,4.94-2.22,7.4-3.34a13.63,13.63,0,0,0,5.48-4.89,8.8,8.8,0,0,0,1.69-6.47l-3-1.07.07-.62a16,16,0,0,1,1.69-.26c3.59-.16,7.18-.22,10.77-.46a12.83,12.83,0,0,0,6.44-2.42c-.87-5.32-1.81-10.65-2.59-16-.8-5.54-1.47-11.09-2.17-16.64-.46-3.56-.81-7.13-2.22-10.51-.94-2.22-.38-2.86,2.08-2.75q3.12.15,6.23.23c8.8.18,17.59.4,26.38.51A81.6,81.6,0,0,0,241.2,259a14.52,14.52,0,0,0,7.05-3.74c-.06-.22-.05-.44-.13-.48-5.4-2.58-10-6.35-14.51-10.14a8.51,8.51,0,0,0-1-.64Zm2-81.52.07-.07a5.93,5.93,0,0,0-1,1c-2.66,4-5.31,8-7.91,12a38.1,38.1,0,0,0-1.74,3.44,15.19,15.19,0,0,0,6.46,3.6c3.59-8.44,4.39-9.23,10.2-10.08,1.07-1.53,2.21-3.07,3.25-4.67s.88-2.53-.77-3.53-3.16-1.83-4.75-2.74l-.62-.47-1.8-1.17Zm5.28-2.93.59.68,2.76,1.3,2.48,1.37c1.48,1.76,1.29,3.57.13,5.38A16.58,16.58,0,0,1,244,169.4L243,172c1.63-.83.93-1.83,1-2.61l1.81,1.38c.19-.25.46-.43.46-.62a49.2,49.2,0,0,1,1.32-8.45,5.7,5.7,0,0,0,0-.72,2,2,0,0,0-1.55-2.31c-1.64-.6-3.19-1.44-4.77-2.2-3.74-1.8-7.48-3.62-11.22-5.41a4.31,4.31,0,0,0-1.19-.21c-.61,2.12.77,3.62,1.23,5.33a2.74,2.74,0,0,0,2.35,2.06l-.07,0c.51.84,1.07.83,1.75,0a5.05,5.05,0,0,1-.1-4.39c.62,1.8,1.29,3,2.81,3.41,0,0,.09.12.11.2C237.28,158.67,238.33,158.82,239.33,159.06Zm7.21-2.4,1.62,1,.21-.55-1.88-.38a2.24,2.24,0,0,1-.28-3.39c1.08-1.34,2.28-2.59,3.71-4.18-1.76-6.3-6.34-10.16-12.71-12.24a12.58,12.58,0,0,0-4.93-.32l.48,1.86-2.15.37c0,2.12-.29,2.62-1.66,3-1.9.54-3.26-.15-4.67-2.45l-1.28.74a36.54,36.54,0,0,1,2.42,3.36c1.71,3.05,4.41,5,7.31,6.67,3.74,2.13,7.67,3.94,11.54,5.84A14.19,14.19,0,0,0,246.54,156.66Zm-28.31,72a8.87,8.87,0,0,0,1.28-.61c6.44-4.33,12.91-8.6,20.13-11.54a2.15,2.15,0,0,0,1.37-2c.22-1.83.51-3.64.73-5.47.66-5.39,1.28-10.78,1.93-16.18a4.5,4.5,0,0,1,.34-1.62c.22-.4.75-.62,1.15-.92a11.74,11.74,0,0,1,.75,1.34c.08.18-.08.46-.11.7q-1.31,9.74-2.59,19.47a15.72,15.72,0,0,0-.46,3.55c.21,1.85-.78,2.46-2.2,3.14-4.24,2-8.46,4.13-12.59,6.38-2.45,1.33-4.72,3-7.08,4.5-3.53,2.24-3.53,2.23-3.7,6.37,0,.13.12.27.17.37,2.39.24,4.78.37,7.12.76,4.1.68,7.3,3.09,10.41,5.65a85.51,85.51,0,0,0,11.53,8.57,16.08,16.08,0,0,0,7.77,2.05c-.14-.87-.22-1.63-.37-2.37-.35-1.64-.86-3.26-1.08-4.92-.74-5.61-1.4-11.24-2.06-16.87a181.5,181.5,0,0,1-.36-35,11.53,11.53,0,0,0-4-10.23,10.79,10.79,0,0,1-2.87-4.32,15.78,15.78,0,0,0-2.25-3.9c-1.54-1.91-3.05-2-5-.5a10.11,10.11,0,0,0-1.19,1.17c-2.15,2.36-2.82,5.36-3.35,8.34-1.12,6.28-2,12.6-3,18.91-.23,1.48-.38,3-.54,4.19.73.48,1.41.71,1.61,1.15.13.29-.37.95-.7,1.34a5.12,5.12,0,0,1-1.15.85c-2.46,1.66-4.94,3.27-7.36,5-4.64,3.24-9.25,6.52-14,9.89l4.81,7.83,7-5.1Zm17,38.9H218.6c-1.23,3.06-1.23,3.06-4.55,2.89l-1.19-.06c-3.5-.23-4.46.53-4.91,3.94,0,.32,0,.64,0,1-.41,12.45-.85,24.9-1.2,37.36-.12,4,0,8,0,11.83,3.28,1.1,32.78,2.94,37.42,2.43.19-3.41.4-6.81.56-10.21.17-3.75.42-7.5.44-11.25,0-10.14,0-20.29-.09-30.43a16.55,16.55,0,0,0-.56-3c-2.13-.16-4-.35-5.94-.42-3.19-.13-3.19-.09-3.1-3.39A3.63,3.63,0,0,0,235.19,267.56ZM131.55,300.27c.5-.34.83-.54,1.14-.78l20.49-15.83c5-3.85,10-7.74,15-11.53a3.48,3.48,0,0,0,1.46-3.69,74.09,74.09,0,0,1-.5-20.95,15.08,15.08,0,0,0-1.51.94q-7.26,5.7-14.49,11.44c-3.45,2.73-6.86,5.5-10.31,8.23q-8.57,6.76-17.17,13.47c-1.49,1.16-3.08,2.18-4.81,3.4C123.25,290.7,127.71,295.2,131.55,300.27Zm90.13-103.46c.6-3.14,1.17-6.11,1.72-9.08.36-1.95.82-2.67,1.69-2.33,1.37.53.86,1.7.68,2.68-1,5.25-2,10.5-3,15.76-.51,2.81-.9,5.64-1.34,8.45l.42.29c1.05-.67,2.08-1.39,3.16-2a2.68,2.68,0,0,0,1.31-2.34c.68-5.86,1.45-11.71,2.21-17.56.26-2,.58-4,.87-6-2-1-3.43-2.07-5.55-2.13a21.3,21.3,0,0,1-6.71-1.42c-6-2.24-11.9-4.64-17.77-7.14-8-3.39-15.57-7.33-22.16-13.14a77.78,77.78,0,0,1-5.63-5.41c-.41-.44-.79-.9-1.34-1.53a42.39,42.39,0,0,0-4.9,9.71c3.84,3,7.54,5.9,11.24,8.78,4.48,3.48,8.86,7.08,13.46,10.39C199.57,189.53,209.82,194.74,221.68,196.81ZM167.07,331l.3.55a23.62,23.62,0,0,0,2.18-1.13c1.2-.79,2.29-1.76,3.53-2.47.4-.23,1.13.09,1.71.16a5.77,5.77,0,0,1-.34,1.69c-.4.77-1.53,1.09-1.5,2.07,2-.15,3.83-.2,5.66-.47a4.91,4.91,0,0,0,2.35-1.07,16.61,16.61,0,0,1,9.86-3.85,8,8,0,0,0,5.67-2.77c1.08-1.24,1.87-2.68,1.19-4.38-1.21-3-2.51-6-3.74-8.94H184.8c-.14.78-.24,1.4-.37,2a15.58,15.58,0,0,1-7.7,10.72,31.39,31.39,0,0,1-8,3.08c-.54.14-1.38.08-1.26,1.12l2,.45C169.79,329.74,168.15,330.17,167.07,331Zm-45.32-39.45c-2,.36-3.65,1.09-5.2.86a31.77,31.77,0,0,1-14.18-6,5,5,0,0,1-2.32-4.24,1.52,1.52,0,0,0-1.56-1.76c-.33,1.3,1.36,2.31.34,3.91-.54-.44-1.14-.72-1.37-1.18a13.75,13.75,0,0,1-.73-2.49c-.17-.66-.28-1.34-1.26-1.42.48,1.75.92,3.34,1.4,5.06-2.09.2-4,.06-6.05,1.4a13.34,13.34,0,0,0,2.43,0,1.93,1.93,0,0,1,2.44,1.25,11.21,11.21,0,0,0,2.7,3.24,19.42,19.42,0,0,0,4.22,2.7,11.36,11.36,0,0,1,5.44,5.5c.68,1.35,1.3,2.74,1.9,4.13a10.86,10.86,0,0,0,3.45,4.49c2,1.51,2.48,1.56,4.15-.27,2.78-3.05,5.54-6.1,8.42-9.27Zm41.37,42.7a13.12,13.12,0,0,0-.81,3.4c.08,2.12-1.43,3.28-2.49,4.7A1,1,0,0,1,158,342a11,11,0,0,1-.14-3.48,17,17,0,0,1,.82-3c-4.6-.09-23,3.15-24.43,4.16l25.5,4.47a11.68,11.68,0,0,0,4.95-.23q10.34-2.6,20.73-4.93c4.26-1,8.57-1.75,13.23-2.7-4.63-.49-8.9-1-13.18-1.4a58.07,58.07,0,0,1-7.37-.79c-2.46-.6-5.09.71-7.42-.85-.26-.18-.78,0-1.17,0Zm51.8-165.35c.39,4.11,2,6.66,6.59,7.07,1.31-2,2.55-3.92,3.85-5.82.9-1.31,1.91-2.55,2.82-3.86a2.63,2.63,0,0,0,.57-1.49c-.14-2-.42-3.92-.68-6.13l-7.64-3.9c-1,.34-1.76.91-2.37.75s-.89-1.09-1.39-1.78l-1.12,1.54c-.63.87-1.31,1.66-2.55,1.42s-1.27-1.27-1.56-2.17c0-.13-.21-.21-.1-.11h-5l-.14.47,4.29,2.9c2.78,1.89,2.78,1.89,3.35,5.12l6,2.07C218.62,167.18,216.57,167.73,214.92,168.89Zm-9.76,97.94a21.91,21.91,0,0,0-.83,3.19c-.25,2.29-.43,4.6-.5,6.91q-.59,21.21-1.1,42.42c0,2.22,0,4.43,0,6.66,2.18-.1,2.27-.21,2.27-2,0-5.59-.07-11.18,0-16.77q.32-14,.86-28a68.93,68.93,0,0,1,.87-7.83c.21-1.34,1.18-2.07,2.49-2.64,1.82-.79,3.59-.45,5.41-.36.63,0,1.47.55,1.77-.56-.09-.13-.17-.37-.26-.38ZM248,326.94c.14-7.82.25-15.56.42-23.3.14-6.39.4-12.78.53-19.17.08-4.31.05-8.62,0-12.93,0-2.11-1.87-4.22-3.79-4.22-2.62,0-5.24.22-7.92.35v1.75c1.81.09,3.48.1,5.13.27,2.85.3,3.94,1.17,4.23,3.95a122.75,122.75,0,0,1,.84,12.41c0,7.51-.27,15-.37,22.52-.08,5.5,0,11-.92,16.46a3.85,3.85,0,0,0,.11,1.43C246.43,327.32,247,327.35,248,326.94Zm-.54-64.67c-3.38,0-6.58-.25-9.74.05a174.19,174.19,0,0,1-29.16.1c-1.07-.08-2.16,0-3.39,0l.3,2.28c2.76.68,39.24.67,42,0Zm2.5,64.8.54.27c.29-.19.76-.33.82-.58a8,8,0,0,0,.2-1.9c.21-8.62.4-17.25.63-25.87.2-7.91.44-15.82.67-23.72.06-2.2.05-2.2-1.56-2.87Q250.61,299.67,250,327.07Zm-52.22-41.62c.1-2.7.11-5.41.33-8.1a46.43,46.43,0,0,1,1-6.84,9.32,9.32,0,0,1,3.39-5.37c1.07-.81,1.06-1.6.71-2.82l-9.83-.46C196,269.76,196,277.74,197.73,285.45ZM180.1,232.52l.21.38c.47-.23.92-.49,1.4-.7,1.82-.79,3.64-1.6,5.5-2.32.37-.15.89.05,1.34.1l.12.59-3.93,2.07a9.92,9.92,0,0,0,1.95-.19c2-.11,4.19-.79,6.07.48,2.54,1.72,5.23,1.69,8,1,2.3-.58,4.58-1.22,6.85-1.85.12,0,.19-.24.34-.44l-2.45-3.87a10.54,10.54,0,0,0-2.16,1.3c-1.8,1.81-3.93,1.89-6.22,1.41-2.49-.54-5-1.18-7.48-1.56a7.57,7.57,0,0,0-3.94.24A46.68,46.68,0,0,0,180.1,232.52Zm21.73,36.07a11.45,11.45,0,0,0-1.16,2.52,47.46,47.46,0,0,0-1,6.38c-.19,2.63-.21,5.28-.16,7.91.06,2.79.33,5.58.41,8.37a24.48,24.48,0,0,1-.17,6.18c-.38,1.64-.6,3.41.08,4.64,1,1.8.46,2.75-.42,3.41,0,3,0,5.51,0,8.05a4.4,4.4,0,0,0,1.42,3.8C200.9,302.73,201.34,285.72,201.83,268.59ZM157.37,146.51l.62-1.75c-.72.08-1.47.37-1.55.79-.18.93-.69,1.9.22,2.9,2.51,2.78,4.9,5.66,7.35,8.5.33.38.73.7,1.21,1.15.65-1.35,1.16-2.52,1.78-3.63a1.67,1.67,0,0,0-.32-2.15c-1.09-1.26-2.15-2.56-3.23-3.84-1.61-1.9-1.65-2.22-.31-4.38.65-1.07,1.28-2.12.48-3.57C163,143.92,160.57,145.22,157.37,146.51Zm.77,91.51q-1.66-3.17-3.32-6.33t-3.17-6.18c-1.08-2.14-2.13-4.3-3.2-6.45s-2.17-4.27-3.22-6.42-1.9-4.23-3-6.28-1.34-4.49-3.33-6.08A5.32,5.32,0,0,0,139,203a91.17,91.17,0,0,0,4.07,10c4.31,8.2,8.88,16.26,13.33,24.38C156.85,238.15,157.32,238.47,158.14,238Zm47.44-3.34a22.28,22.28,0,0,1-11.14,1.61,4.41,4.41,0,0,0-1.18.16c-3.15.47-6.3,1.06-9.46,1.39-4.21.44-8.43.69-12.64,1a17.55,17.55,0,0,0-1.89.27c-.91.16-1,.76-.89,1.52,3.13.22,35.15-3.41,37.34-4.24Zm21.94-84.8c-2-1.08-3.68-2.08-5.45-3a2.15,2.15,0,0,0-3.25,1.28,33.92,33.92,0,0,0-.88,3.32c3.21,1.68,6.28,3.2,9.89,4.75C226.9,153.92,226.1,152.05,227.52,149.88ZM84.09,311.19l-6,11,9-1.45C86.08,317.57,85.16,314.63,84.09,311.19Zm-4.73-30.74-.84.15c.11.72.17,1.46.34,2.17,1.52,6.52,3,13.06,4.61,19.55.73,2.88,1.82,5.67,2.74,8.5l.25-.1Q82.91,295.58,79.36,280.45Zm89.48-160c-2,.75-1.93,2.59-2.64,4a38.31,38.31,0,0,0-1.75,4.42c-.56,1.56-1,3.13-1.62,4.84l2,1.07C166.25,129.82,167.54,125.14,168.84,120.45ZM154.47,344.82l-24.19-4C132.37,342.7,148.78,345.41,154.47,344.82ZM73.75,325h10.3a21.46,21.46,0,0,0-4.27-.42c-1.35-.11-2.92.43-4-1.09,1.65-4.35,4.4-8.2,5.68-12.73Zm93.68-12.64c-2.06,3.17-4.38,11.12-4.54,15.13.31-.05.81,0,.84-.16C165,322.51,166.13,317.67,167.43,312.36Zm47.63-78.71c-.32,0-.41-.09-.47-.06l-1.87,1c-1.72.91-1.79,1-3.21-.53-.86-.91-1.31-.4-1.87.16.3.86.59,1.66.9,2.54l6-.57C214.73,235.26,214.9,234.46,215.06,233.65Zm-53.67-94a5.68,5.68,0,0,0-6.41-1.21c-.89.34-1.73.94-1,2.07Zm.67-4.54c-2.85-1.28-6.72-.45-8,1.66,1.42-.15,2.81-.33,4.21-.44S161.07,136.57,162.06,135.16Zm-5.64,189c.18,3,2,3.59,3.9,4.41l.63-2.44Zm-1.81-178.58c.88-2.91,3.37-2.2,5.17-3.06-1.46-1.34-3-.69-4.35-.33C153.75,142.6,153.65,143,154.61,145.57ZM88.12,315.15l-.49.09,3,9.45.47-.12a8.46,8.46,0,0,0-.24-1.6C90,320.36,89,317.76,88.12,315.15Zm71,24.72.48.18a5.06,5.06,0,0,0,.95-1.52c.45-2.2.77-4.42,1.13-6.64l-.26,0C160.61,334.52,159.85,337.19,159.08,339.87Zm41.53-18c-1.22,2.55-1.26,3.31-.24,4.71C201.24,325.05,200.94,323.58,200.61,321.88Zm15.5-173.39a6.82,6.82,0,0,0-2.35,5.38A7.44,7.44,0,0,0,216.11,148.49Zm33.5,3.21-2.28,3.14c1,0,1.75.24,2,0A2,2,0,0,0,249.61,151.7Zm-87.43,89.91,4-.56c-.24-.46-.57-1.06-.86-1.61Zm67.78-82,.51,3.33,1.71-2.2ZM191.49,235c-2-1.33-2-1.33-3.58.36Zm5.83,74.37c-1.56.4-1.54.75.17,3.24Zm-39-177.26.22.58c1-.42,2.43.72,3.18-1.55ZM95.21,282.76l-1.87-2.17-.44.24.13,2Zm-7.64,40.67.08-.61c-1.45-.56-2.93-.08-4.92.18Zm118.67,14.08-.24-.33-2.09.62.1.3Z" transform="translate(-71.35 -109.07)"/><path d="M413.59,135.57c1.91-1.71,2.87-4,3.79-6.29.75-1.85,1.33-3.77,1.91-5.68a16,16,0,0,1,10.24-10.95c5-1.85,11.36.22,13.5,4.77a58.07,58.07,0,0,1,3.09,6.72,6.79,6.79,0,0,1,0,4.43c-1.63,3.66-1.26,7.53-1.74,11.29a16.26,16.26,0,0,1-3.89,8.61c-1.26,1.48-2.66,2.25-4.62,1.69a11.36,11.36,0,0,0-1.39-.22c-.09.72-.16,1.38-.22,1.87.24.27.33.46.44.48,3.51.71,6.24,2.87,8.91,5a60.86,60.86,0,0,1,8.34,7.51,34.06,34.06,0,0,0,6.23,5.14,11.4,11.4,0,0,0,1.65.83c.58-2,1.12-3.78,1.63-5.6.31-1.07.47-2.2.87-3.24a15.3,15.3,0,0,0,.06-11.37,14,14,0,0,1-.33-4.51,2,2,0,0,1,.53-1.52c1.4-.95,1.35-2.38,1.63-3.78.66-3.28,1.34-6.57,2.18-9.81.54-2.09,1.24-2.54,3.28-2.26a51.34,51.34,0,0,1,5.84,1.22,2,2,0,0,1,1.43,2.44c-.21,1.34-.42,2.69-.69,4-.61,3.13-1.27,6.26-1.89,9.39a2.13,2.13,0,0,0,0,1.15c1.24,3.14.26,5.92-1.14,8.73a5.5,5.5,0,0,0-.63,3.17,34.17,34.17,0,0,1-.39,12.39,50.17,50.17,0,0,1-1.55,7,24.22,24.22,0,0,1-2.74,5.54c-1.24,1.89-2.37,2-4.54,1.28q-5.11-1.74-10.25-3.36a37.42,37.42,0,0,1-11.31-5.62c-.44-.33-.92-.59-1.57-1-3.32,10.95-3.66,22.1-4.19,33.46,7,1.14,13.95,2.29,20.92,3.4s14,2.18,21.21,3.29c0,1.6.08,2.93,0,4.26-.51,6.93-1.14,13.86-1.55,20.8a7.45,7.45,0,0,1-1.32,3.48,2.66,2.66,0,0,1-2.11.67c-2.54-.21-5.08-.58-7.61-.91l-25-3.32-3.88-.5a4.66,4.66,0,0,0-.08,1.09c1.27,5.48.6,11,.24,16.49s-1.12,10.81-1.92,16.18a154,154,0,0,0-1.84,32,29.14,29.14,0,0,0,.79,4.71c.39,1.68.11,2.16-1.66,2.19-1.34,0-2.68,0-4.38,0,1,4.82.63,9.6.42,14.27,2.1,1.63,4,3.2,6,4.66a25.7,25.7,0,0,0,8.91,4.55,13,13,0,0,1,7.2,5H475.2l26.38,0c.24,0,.54-.1.71,0,.51.31,1.25.62,1.36,1.07a1.83,1.83,0,0,1-.71,1.54,10.8,10.8,0,0,1-5.31,1.8q-15.48.63-30.94.37c-4.94-.08-9.9.57-14.84.89a3,3,0,0,1-.71.09,7.44,7.44,0,0,0-5.14,1.13,5.34,5.34,0,0,1-2.78.35c-5-.2-10.06-.39-15.08-.74-3.58-.25-7.14-.75-10.71-1.15a15,15,0,0,0-3.07-.4c-2.1.18-3.2-1.22-4.33-2.5a3.77,3.77,0,0,1-.48-2c-.2-3.14.86-6,2.18-8.75a24.15,24.15,0,0,0,2.4-9.66c.11-3.27.31-6.54.44-9.82,0-.7-.06-1.41-.1-2.18l-1-.2c-1.75-.34-2-.61-1.77-2.38.3-2.05.73-4.09,1.11-6.13.08-.46.15-.91.31-1.88a27.22,27.22,0,0,0-4.15,7.48c-.81,1.94-1.32,2.15-3.16,1-.68-.41-1.34-.87-2.27-1.48-2.69,4.82-6.15,9.15-7.2,14.93,2.09,2,2.72,5,3.1,7.91s1.62,4.7,4.54,5.35a5.3,5.3,0,0,1,3.7,2.83,4.88,4.88,0,0,1-2.84,6.85,5.2,5.2,0,0,1-2.33.49c-2.69-.26-5.56-.19-8-1.15a56.37,56.37,0,0,0-17.32-3.4c-6.38-.42-12.77-.84-19.15-1.07-7.83-.29-15.67-.35-23.5-.58a13.66,13.66,0,0,1-3.95-.74c-1.22-.42-1.48-1.48-1.1-3,.27-1,1-1,1.88-1q10.44,0,20.87,0l21.58,0h7.75c-.9-1.06-1.44-1.69-2-2.33-1.43-1.72-2.91-3.4-4.27-5.18-1.6-2.08-1.39-3.81.5-5.73a7.35,7.35,0,0,0,1-1.28,13.19,13.19,0,0,1,7-5.61A2.6,2.6,0,0,0,385,314c3-4.15,6.44-8,8.45-12.77.19-.43.37-.86.58-1.35-.75-.71-1.47-1.34-2.12-2-1.17-1.24-1.23-1.88-.06-3.06,4.48-4.49,8.18-9.61,12-14.62,2.68-3.48,5.66-6.73,8.61-10a2.6,2.6,0,0,0,.42-2.64c-.76-4.08-1.65-8.15-2.17-12.27s-.67-8.28-1-12.43c-.06-.87,0-1.74,0-2.72a12.41,12.41,0,0,0-2.21-.31c-2.25.09-3.51-1.1-4.27-3.05a5.77,5.77,0,0,0-.44-.76c-7-1-14.1-2.17-21.22-3.07-2.93-.37-3.74-1.47-3.39-4.27.74-5.95,1.64-11.88,2.41-17.82.35-2.62.55-5.25.82-7.87.21-2,.66-2.28,2.65-1.93,3.14.57,6.28,1.1,9.81,1.71-.43-1.73-.68-3.28-1.19-4.72a9.76,9.76,0,0,1,0-6.8c2.93-8,4.68-16.43,7.08-24.63.81-2.74,2.12-5.34,3.2-8,.21-.5.47-1,.74-1.58-2.32-1.27-5.1-.74-7.21-2.64.71,0,1.43,0,2.13,0a19.77,19.77,0,0,0,2.33.27,12.8,12.8,0,0,0-6.7-1.73c-2.79-.07-5.59.11-8.38.23a14.41,14.41,0,0,1-5.66-.75c.49-.34.71-.61.93-.62,4.87-.1,9.75-.44,14.6-.15,2.64.16,5.25,1.28,7.78,2.22,1.39.51,2.27.55,3.32-.64a21.85,21.85,0,0,1,9-5.81,29.77,29.77,0,0,1,4.6-1c1.26-1.6.87-3.92.73-6.35a9.48,9.48,0,0,1-1.2,0c-1.48-.19-2.18-1-1.93-2.4a10.7,10.7,0,0,1,.85-2.48c.63-1.36.67-1.35.1-3.31a10.52,10.52,0,0,0-1,1.32,16.84,16.84,0,0,1-7.77,7.51A35.29,35.29,0,0,1,397,144.46a9.49,9.49,0,0,1-1.24-.13c.48-.52.71-1,1-1.09a24.15,24.15,0,0,1,3.82-1.36A44.69,44.69,0,0,0,411,137.73a14,14,0,0,0,2.2-1.75Zm-5.23,70.51,25.24,2.19a19.26,19.26,0,0,0,.4-2.35c.15-2.63.14-5.28.37-7.9.37-4.37.7-8.76,1.38-13.09.84-5.28,2-10.5,3.06-15.75.26-1.33.44-2.68.75-4,.09-.37.52-.67.78-1l.64.11c.52,2.81-.29,5.65-.39,8.62l5,3c.55-1.82,1-3.44,1.54-5s1.28-3.07,1.92-4.59c-4.55-5.7-10.5-10.56-14.79-12-.67,1.22-1.56.87-2.35,0-.55.52-.93.93-1.35,1.28-1.88,1.57-3.44,1.63-5.42.14a15.58,15.58,0,0,1-2.1-2c-1.4-1.53-2.75-3.11-4.18-4.74a3.83,3.83,0,0,0-1.1.12c-4.64,1.79-8.69,4.32-11.48,8.64-3.22,5-4.85,10.56-6.27,16.23,0,.12.09.29.2.6,2.75,1.56,5.23,3.85,8.47,4.84,1.94-4.24,3.79-8.31,5.65-12.37a4.36,4.36,0,0,1,.81-1.45c.34-.31,1.17-.61,1.39-.43a2.18,2.18,0,0,1,.66,1.54,4.08,4.08,0,0,1-.63,1.53c-2.06,4.24-4.08,8.49-6.2,12.7a15.84,15.84,0,0,1-1.9,2.45C409.61,190.64,409.32,198.19,408.36,206.08Zm67.91,11.1c-23.08-3.64-45.95-7.58-69.53-9,.93,5.41,1.83,10.64,2.72,15.84a5,5,0,0,0,1.18.57c1.58.23,3.16.39,4.73.59,1.33.16,3.12,0,3.31,1.7s-1.55,2-2.8,2.49c-.86.33-1.77.57-2.82.91,1.37,2,3.32,3,5,4.36.27.21.75.17,1.14.22,6.5.82,13,1.57,19.49,2.45,10,1.36,19.93,2.83,29.9,4.18,1.76.24,3.55.78,5.31.39C474.67,233.6,475.46,225.51,476.27,217.18ZM414.1,238.5a8.37,8.37,0,0,0,.2,1.52c1.24,3.7,2.47,7.41,3.78,11.09a42.39,42.39,0,0,1,2.1,17.72A212.67,212.67,0,0,1,414.41,306a20.54,20.54,0,0,0-.36,2.46c5,.87,15.27,1.47,17.11,1-.14-1.26-.29-2.53-.4-3.8a139.12,139.12,0,0,1,1.59-33.43,218.58,218.58,0,0,0,1.91-23.39,36.34,36.34,0,0,0-1.06-9.46,6.34,6.34,0,0,0-1-.28c-3.73-.44-7.45-.9-11.19-1.25a2.53,2.53,0,0,0-1.63.67,3.22,3.22,0,0,1-2.92.63C415.76,239,415.09,238.77,414.1,238.5Zm-1.12,2-.32,0c0,.6-.1,1.2-.1,1.79a107.82,107.82,0,0,0,1.84,18.81c.42,2.31.21,4.79,1.66,6.89a1.93,1.93,0,0,1-.18,1.58,18.44,18.44,0,0,1-1.94,3c-3.38,4.15-6.77,8.29-10.25,12.35-2.95,3.46-6,6.81-9,10.21l-1.27,1.43c4.23,3.49,8.19,7.05,13,9.73.42-.8.73-1.52,1.15-2.17a79.13,79.13,0,0,1,5.12-7.49,7.77,7.77,0,0,0,2.05-4.4c.06-.64.21-1.27.28-1.9.75-6.9,1.59-13.8,2.21-20.71a43.92,43.92,0,0,0-1.63-17.53c-.82-2.58-1.34-5.26-1.95-7.9C413.36,243,413.19,241.77,413,240.53Zm3.12-13.26-.07-.37c-.91,0-1.82-.05-2.72,0a7.87,7.87,0,0,1-4.79-1.22,2.69,2.69,0,0,1-1.42-2.07c-.2-1.51-.49-3-.72-4.5-1.23-8.13-2.24-16.3-3.81-24.36a9.72,9.72,0,0,1,1.26-7.58,40.68,40.68,0,0,0,2.06-4.06,15.35,15.35,0,0,0,.62-1.72l-7-5.1c-.77,2.95-1.41,5.59-2.15,8.2-.82,2.92-1.79,5.8-2.57,8.73a7.77,7.77,0,0,0-.21,3.28c.52,2.58,1.17,5.14,1.94,7.66,1.89,6.27,3.92,12.5,5.8,18.77,1,3.28,2.08,6.53,1.89,10.08-.06,1.09.73,2.23,1.14,3.35a1.49,1.49,0,0,0,2,.89,27.54,27.54,0,0,0,4.29-1.29,3.56,3.56,0,0,1,3.2.12c.73.36,1.5.61,2.26.91l.25-.48c-.86-.68-1.73-1.34-2.56-2.05a25.06,25.06,0,0,1-3.19-2.88c-1.36-1.66-1-2.74,1.05-3.34.84-.25,1.72-.36,2.57-.57A7.16,7.16,0,0,0,416.1,227.27Zm-18.88-1.85-.57,0c-.22-.43-.6-.85-.61-1.28a3.72,3.72,0,0,1,.4-1.86c2.32-4.25,1.48-8.42-.2-12.61-.64-1.61-1.13-3.29-1.7-4.95l-10.27-.92c-1.27,8.69-2.53,17.24-3.78,25.8l21.37,3.82c1-3.85-.44-7.13-1.52-10.45-.14-.44-.67-.76-1-1.14a7,7,0,0,0-1.17,1.28A18.29,18.29,0,0,0,397.22,225.42Zm50.53-48.26,17.82,6.27a18.05,18.05,0,0,0,3-6.6c.36-2.05.87-4.07,1.11-6.13.37-3.17,1-6.4.72-9.53-.24-2.69-.09-5,1.33-7.29a6.51,6.51,0,0,0,1.05-5.06,2,2,0,0,0-.73.07c-.76.41-1.49.88-2.25,1.3a3.1,3.1,0,0,1-3.88-.79c-1-1.08-.21-1.88.39-2.75a19.34,19.34,0,0,0,1-1.83c-3.53.38-3.94.75-3.36,3.68.39,2,1.23,3.91,1.82,5.88a5.07,5.07,0,0,1,.31,1.83,15.94,15.94,0,0,1-.58,2.81q-2,7.39-4.1,14.77a2.7,2.7,0,0,1-.27.66c-.41.68-1.07.66-1.48,0-.31-.52-.47-1.24-.92-1.54-2.59-1.71-5.24-3.31-8-5A24.29,24.29,0,0,0,447.75,177.16ZM442,141.81c.12-2.85.05-5.18.37-7.46s1-4.54,1.63-7l-4.95.48c1.62-2.08,3.44-1.78,5.2-1.91-3.14-1.23-6.45-1.93-8.79-4.72-1.86,2.67-4.42,4.14-7,5.64a20.53,20.53,0,0,0-4,2.64c-1,1-1.47,2.41-3.37,2,1.18.94,2.6,1.51,2.93,2.47s-.18,2.55-.36,4.08c2.55,2.41,5.19,5.08,8,7.51a22,22,0,0,0,4.7,2.81,2.21,2.21,0,0,0,2-.12,8.85,8.85,0,0,0,3-5.43c-1.36.46-2.45.93-3.58,1.19a10,10,0,0,1-3.07.29c-1.34-.12-1.66-.94-1.16-2.78,1.64,1.83,3.26.82,4.89.07a6.84,6.84,0,0,0,.86-.42C440.24,140.54,441,140.78,442,141.81Zm-4.44-27c-2.11-.27-3.91-.52-5.71-.71a6.2,6.2,0,0,0-4.25,1.24c-4.57,3.05-6.06,7.76-7.36,13.17a23.41,23.41,0,0,0,3.51-1.24c2.15-1.2,4.23-2.55,6.33-3.85a10.75,10.75,0,0,0,4.46-4.85,7.37,7.37,0,0,1,1.17-1.43c1.16,3.45,3.4,5.11,7.1,5.46a7.31,7.31,0,0,0-1.92-4.49c-.4-.55-1.5-.58-2.3-.82C437.54,117,436.86,116.5,437.55,114.85ZM417,320.4c-.58,2.07-.38,7.9.41,10.41,1.74-.44,3.52-.79,5.23-1.37a3.87,3.87,0,0,0,2.83-2.68,16.48,16.48,0,0,0,.37-5.67Zm4.82-171.79c1.56,1.83,2.95,3.57,4.47,5.18,1.28,1.37,2.15,1.36,3.44.11,1.45-1.4,2.64-3,2.31-5.1-1.52-1.28-3-2.47-4.41-3.76s-2.75-2.7-4.39-4.32C423.13,143.64,423.58,146.17,421.86,148.61ZM396.19,314.12l-5.12-3.72-4.36,5.49c.83,1.62,1.6,3.19,2.42,4.74a3.52,3.52,0,0,0,.77.91,2.59,2.59,0,0,0,4.37-1.06C394.93,318.45,395.51,316.39,396.19,314.12Zm8.4,26.52a15.6,15.6,0,0,0-2.37,0c-4.78.75-8.76-1-12.35-3.93a66.38,66.38,0,0,1-11.67-12.59,7.14,7.14,0,0,0-.83-.77c-.45,1.65-.42,1.63.55,2.89a75.05,75.05,0,0,0,11.25,11.36C393.8,341.57,399.08,341.71,404.59,340.64Zm11.53,2.07a5.71,5.71,0,0,0,.84.38c.54.13,1.09.22,1.64.3,7.69,1.19,15.44,1.07,23.17.93a25.17,25.17,0,0,0,5.35-1.09c.37-.09.64-.54,1-.83l-.14-.51C437.37,344.16,426.77,343.3,416.12,342.71Zm.4-31.75.29,3.4c3.09,1.06,6.07.53,9.22.59.07-1,.13-1.87.2-2.88ZM406.19,187.87c-1.15,1.72-2.41,3.37-2.07,5.5.59,3.67,1.27,7.32,1.92,11A50.58,50.58,0,0,0,406.19,187.87ZM400.13,309l2-2.67-6.38-4.89L394.3,305Zm71.25-167c.34-2.6.64-4.85,1-7.24l-2.52-.71c-.38,2.41-.73,4.58-1.08,6.79ZM398.66,310.76,393.24,307l-.88,1.66c1.62,1,3.14,2,4.69,2.9C397.77,312,398.42,312,398.66,310.76ZM417.14,317c1.81,1.57,7.12,1.8,9.24.55Zm56.79-182.48a3.12,3.12,0,0,0,.49-2c-3-1.45-5.08-1.62-5.89-.55C470.25,132.89,472.71,132.31,473.93,134.53ZM470,145c2.52.46,2.52.45,2.45-1.93C471.53,143.52,469.84,142.85,470,145Zm-2.78-7.56c-.49,1.54-1.23,3-.91,5.29C467.53,140.71,467.15,139,467.21,137.4ZM391.4,329.53l.6-.17c-.29-.74.17-1.8-1.55-2.4Zm33.71,3.92-.12.43,1.11.31c0-.16.07-.45,0-.46C425.79,333.61,425.45,333.54,425.11,333.45Z" transform="translate(-71.35 -109.07)"/><path d="M623.8,169.69c-.27.61-.39,1.43-.86,1.78a10.35,10.35,0,0,1-5.39,2.29,2.51,2.51,0,0,1-2.77-1.76c-.92-2.63-1.71-5.31-2.57-8-.22-.67-.51-1.31-.82-2.12a22.57,22.57,0,0,0-7.06,3c-3.88,2.38-10.8,2.72-15.11-.85-2.45-2-3.11-3.94-2.13-7,.82-2.5,1.65-5,2.3-7.56a18.37,18.37,0,0,0-.12-9c-.56-2.3-2.45-3.11-4.44-3.5a22.91,22.91,0,0,0-11.16.11c-2.73.82-5.3,1-7.79-.71a12.82,12.82,0,0,1-5.51-8.11,22.57,22.57,0,0,1-.35-2.86c-.5-4.85-2.62-8.54-7.09-10.93-5.23-2.8-10.75-3-16.34-2.25s-11.33,2-17,3c-.69.12-1.4.14-2.34.23A4.47,4.47,0,0,1,521,112.2c4.08-.75,8.19-1.42,12.25-2.26a41.11,41.11,0,0,1,10.49-.81A25.74,25.74,0,0,1,554.3,112c5.25,2.68,8,7,8.71,12.67.29,2.22.37,4.48,1.8,6.37a17.94,17.94,0,0,0,1.5,1.86,5.39,5.39,0,0,0,5.68,1.59,27.47,27.47,0,0,1,12.59-.42c4.77.79,7.12,2.93,7.86,7.65a20.89,20.89,0,0,1-.55,10c-.72,2.2-1.3,4.44-2,6.65a2.58,2.58,0,0,0,1,3.17c2.11,1.53,4.26,2.63,7.09,2.19a16.4,16.4,0,0,0,5.83-1.91c2.06-1.18,4.33-2,6.66-3.05-.44-1.88-.81-3.83-1.35-5.72a2.52,2.52,0,0,1,1.13-3.07c6.29-4.57,12.72-8.88,20.17-11.38a5.58,5.58,0,0,1,1.83-.53,2.49,2.49,0,0,0,2.47-1.56,10.36,10.36,0,0,1,1.61,1.18q7.4,8.19,14.75,16.42a3.82,3.82,0,0,1,.83,1.16,1.65,1.65,0,0,1-.08,1.3c-.22.29-1,.54-1.2.38-1.09-.74-1.84-.06-2.57.52-4.62,3.69-9.21,7.42-13.81,11.13-1.12.9-2.22,1.83-3.4,2.64a3.81,3.81,0,0,1-4.88,0,22.19,22.19,0,0,0-2.18-1.37c0-1.47-1-2.2-2.11-2.82-2.16,1.87-2.82,1.69-3.6-.91-.14-.46-.44-1-.32-1.38.49-1.73-.84-2.53-2-3.49,1.06,3.51,2.12,7,3.23,10.68.75-.43,1.24-.68,1.7-1a8.5,8.5,0,0,1,1.39-.91A8.3,8.3,0,0,1,623.8,169.69Zm-10.68-16.23c2.55,3.19,4.72,6.27,7.26,9,2.37,2.54,5.12,4.73,7.91,7.26a4.49,4.49,0,0,0,1.38-.6c6.13-4.84,12.23-9.73,18.54-14.76l-12.6-14.7Zm-.79,4.13.43-.09c-.21-.91-.39-1.84-.64-2.74a2.9,2.9,0,0,1,1.32-3.67c1.9-1.17,3.72-2.45,5.61-3.63,2.76-1.73,5.54-3.4,8.31-5.09-6.23,2.1-11.53,5.8-17,9.48C611.06,153.85,611.7,155.72,612.33,157.59Z" transform="translate(-71.35 -109.07)"/><path d="M734.27,161.74c-4-7.68-7.66-14.92-11.46-22.11-.66-1.25-.8-2.17.25-3.19.57-.55,1-1.36,1.59-1.77,1.85-1.18,1.84-2.7,1.24-4.55s-1.08-3.84-1.51-5.79a16.3,16.3,0,0,1-.17-2.55c4.54-.91,8.82-1.74,13.1-2.64a20.67,20.67,0,0,0,2.72-.91c2.4-.84,4.78-1.73,7.19-2.53,1-.33,1.63.29,2.09,1.14,3.32,6.2,6.68,12.37,10,18.57.94,1.76,1.79,3.57,2.63,5.39s.54,2.39-1.29,3.07c-1.27.48-2.55.91-3.82,1.36,1.21,3.07,1.21,3.07.58,4.82,2.19,2.71,4.31,5.51,6.61,8.15a12.12,12.12,0,0,0,11.71,4c3.28-.54,5.51-2.85,7.32-5.42a15.24,15.24,0,0,0,2-4.56,31.91,31.91,0,0,0,.75-14.48,34.51,34.51,0,0,1-.3-10.74c.67-4.76,3.08-7.89,7.71-9.38A37.06,37.06,0,0,1,811,116.46a7.64,7.64,0,0,1,3.9,1.76c-.72,1-1.75.53-2.6.51-3.27-.06-6.55-.35-9.82-.33a27.41,27.41,0,0,0-9.61,1.79,7.43,7.43,0,0,0-5,5.89c-.93,4.42-.41,8.78.41,13.09a32.58,32.58,0,0,1-.91,14.7c-1.25,4.68-4.46,7.9-8.58,10.16-2.64,1.45-5.64,1.21-8.46.65a14.84,14.84,0,0,1-9.79-6.77c-1.47-2.28-3.05-4.49-4.69-6.88-1.84.67-2.75-.66-3.7-1.84C745.38,152.31,740.45,157.94,734.27,161.74Zm-7.88-38.55c1.52,9.76,5.32,18.23,10.35,26.14,2.63-.72,5-1.33,7.39-2a19.89,19.89,0,0,0,4.28-1.49c3.6-2,7.56-2.89,11.72-3.84-3.91-8-8.18-15.68-12.65-23.34a25.12,25.12,0,0,0-4.88,1.25,28.61,28.61,0,0,1-9.48,2.28C730.92,122.42,728.75,122.83,726.39,123.19Zm3.48,24.12-.3.19q2.4,4.84,4.79,9.7c3.73-2.29,8-5.95,8.87-7.53a31.15,31.15,0,0,0-4,.83,4,4,0,0,1-4.71-1.18c-.27.14-.48.22-.68.35-1.63,1.05-1.76,1-2.78-.51Zm-.56-7.57c-.7-1.66-1.36-3.23-2.17-5.17l-2.53,3.37c.48,1,.88,1.87,1.28,2.73s.88,1.88,1.35,2.8.84,1.51,1.26,2.26C727.43,142.52,727.43,142.52,729.31,139.74Zm3.19,8.77c.37-.49.75-.77.7-.95a16.51,16.51,0,0,0-2.76-5.35c-1,.41-1.21.94-.74,1.72C730.59,145.4,731.49,146.87,732.5,148.51Zm22.84,0c-.3-2.19-.3-2.19-1.87-2.21C753.78,147.28,754.12,148.17,755.34,148.48Z" transform="translate(-71.35 -109.07)"/><path d="M363.84,227.81l1.08,2.79,1.38-.23c.37-1.11-.36-2.36.87-3.29.45.85.84,1.58,1.25,2.38l1.72-.81c1.22.85.82,1.73.19,2.53a1.93,1.93,0,0,1-2.94.35,9.46,9.46,0,0,1-2.62,1.65c-.54.13-1.29-.65-2.09-1.11-1.53.68.13,2-.15,2.93-.89,1.12-1.63.12-2.52-.05a3.27,3.27,0,0,1-3.85.72c-.85-.35-1.48.14-1.52.61-.16,1.78-1.78,2.45-2.6,3.7-1.25,1.94-3.37,1.57-4.23-.6a10.22,10.22,0,0,1-.6-5.15l3.07-.88c-.3.66-.46,1-.66,1.4s-.44.63-.82,1.18l1.78-.37c1,1.41-2.24,1.89-.7,3.41,2.35-1.42,2.54-1.81,2.05-4.13-.38-1.74-.38-1.73,1.49-2.09a1.9,1.9,0,0,0,.61-.24c1.73-1.11,1.73-1.12,2.61.66.1.21.22.43.34.63a2.83,2.83,0,0,0,.54.2,22.35,22.35,0,0,1,0-3.29,2.82,2.82,0,0,1,1-1.94c.84-.43,1.37.49,1.82,1.15l.86,1.28c.73-1.31,1.35-2.41,2-3.52Z" transform="translate(-71.35 -109.07)"/><path d="M483.71,253c.21-.92.32-1.63.52-2.31.28-.92.55-2,1.81-1.81s1.65,1.11,1.51,2.49l-1.52-.52c-.16,1.1-.31,2.15-.53,3.76,2.29-2.33,3.94-1.22,5.62,0a23.14,23.14,0,0,0,2.52,1.41c.06.55.14,1.25.22,2.06l.83.25c1.75.54,2.15,1.41,1.29,3a5.6,5.6,0,0,1-1.28,1.71,2.48,2.48,0,0,1-1.81.66c-.87-.27-.63-1.14-.34-1.83.15-.37.37-.71.6-1.14l-2-1.14c-1,.74-1.94,2-3.21.4-.11-.14-.45-.1-.68-.15-2.68-.57-2.68-.57-3.39-3.07-1.38.16-3,.44-3.72-1.15a2.71,2.71,0,0,1,.13-2.21C481,252.16,482.28,252.6,483.71,253Zm7.93,3.24-3.41-1.1,1.37,1.92h-2.87l-.08.25,2.25,1Z" transform="translate(-71.35 -109.07)"/><path d="M377.88,188.66c-1.6-.77-2.88-1.24-3.16-3.33-.17-1.21-1.91-2.21-3.08-3.44a7.43,7.43,0,0,1,4.59-4.34c1.49-.45,2.52,0,2.95,1.23a2.15,2.15,0,0,1-1.25,2.77,18.86,18.86,0,0,1-2.11.85v2.25l1.73,1.17a5.49,5.49,0,0,0,.35-1.16c.1-1.25.23-2.45,1.79-2.71,1.26-.21,2.13.43,3.05,2.36l-2.41-.23c-.27,1.23-.52,2.45-.82,3.84l1.16,1c.88-3.23,1.68-4.1,3.44-3.85,1.49.21,2,.92,1.85,2.74l-1.06-.23-.9-.17a2.83,2.83,0,0,0-.37.7c-.11.47-.12,1-.23,1.42a2.66,2.66,0,0,1-2.64,2.33,2.68,2.68,0,0,1-2.76-2.17A5.6,5.6,0,0,1,377.88,188.66ZM375.35,180l.34.64,1.49-.81-.28-.56Z" transform="translate(-71.35 -109.07)"/><path d="M365.06,202.87H363c-.3,1.38-.54,2.77-.94,4.12-.13.43-.71,1-1.07,1-.88,0-.87-.84-.72-1.45.27-1.15.68-2.26,1.08-3.54-.49-.25-.92-.49-1.69-.9a16.18,16.18,0,0,1,.38,1.67,2.1,2.1,0,0,1-3.53,2c-.18-.18.07-1.19.38-1.36.75-.42.6-.91.56-1.58-.08-1.5.45-1.92,1.91-2.12a22.77,22.77,0,0,1,8.14.79A2.57,2.57,0,0,1,369,203.1a29.94,29.94,0,0,1,.82,5.17,1.77,1.77,0,0,1-.89,1.44,1.69,1.69,0,0,1-1.5-.7c-.62-1.3-1.38-1.43-2.68-1s-1.94-.48-1.39-1.79C363.84,205.14,364.43,204.11,365.06,202.87Z" transform="translate(-71.35 -109.07)"/><path d="M482.61,198.74a13.76,13.76,0,0,1,.66,1.52c.12.42.27,1.15.1,1.26a2.15,2.15,0,0,1-1.48.25,7.54,7.54,0,0,1-1.7-.92,6.13,6.13,0,0,1-.19,1.65,1.71,1.71,0,0,1-.89.92,1.11,1.11,0,0,1-.94-.51,49.65,49.65,0,0,1-1.8-6.15c-.25-1.26.88-1.87,2.05-1.21a9.06,9.06,0,0,1,2,1.69c.78.82,1.47.81,2.39-.17l-2.32-3.69c1.61-1.53,5.27-1.68,6.62-.13a2.56,2.56,0,0,1,.52,2.14,9.91,9.91,0,0,1-2.22,3.29C485,199.08,483.85,198.74,482.61,198.74Zm2.44-2.36c.2-.81.55-1.4.39-1.7-.45-.77-1.21-.63-2.18-.37Z" transform="translate(-71.35 -109.07)"/><path d="M501.81,224.62c-1.22,1.79-3.67.48-5.05,2.41l3.72.3-2.39,2,3.15-.15c-.73,2.19-2.27,3.16-4.21,2.6-1-.3-1.86-.65-2.87.08a2.41,2.41,0,0,1-1.63.1c-1-.2-2.19-.64-2.26-1.8,0-.62.8-1.31,1.33-2.1-1.15-2.91-1.06-4,.53-5.08a2.29,2.29,0,0,1,3.23.12c-.79.65-2,1.16-2.3,2-.33,1,.67,2,1.46,2.82C496.83,224,498.21,223.36,501.81,224.62Z" transform="translate(-71.35 -109.07)"/><path d="M384.29,146a9.22,9.22,0,0,1,1.51-.36c3.35-.08,6.71-.1,10.06-.2,1.51,0,3-.27,4.53-.34a30.41,30.41,0,0,1,4.05,0,16.16,16.16,0,0,0,11-2.49,2.59,2.59,0,0,1,.82-.49c.35-.07.94-.11,1.06.08a1.45,1.45,0,0,1,.18,1.26,4.81,4.81,0,0,1-1.32,1.34c-1.86,1.37-4.08,1.77-6.28,2.17a12.71,12.71,0,0,1-2.39.19c-3.5,0-7-.1-10.49-.21-1.42-.05-2.85-.35-4.27-.37-1.27,0-2.54.18-3.81.27A6.05,6.05,0,0,1,384.29,146Z" transform="translate(-71.35 -109.07)"/><path d="M385.84,246.6c-.08.5,0,1.13-.29,1.46-.83,1-1.87,1.81-2.69,2.81-1.46,1.79-1.66,1.85-3.56.44a2.84,2.84,0,0,0-.51-.23l-1.23,1.78,1.54,1.68c-.36,1.19-1,1-1.66.52s-1.18-.94-1.76-1.42l.06.07c-.14-.62-.23-1.25-.42-1.85-.79-2.59.07-3.88,2.77-4.05l1.06-.05c.25.43.51.91.8,1.36s.51.72.78,1.09c1-.67.53-1.32.21-1.93-.49-.93-.8-1.67.54-2.3.54-.25.75-1.22,1.26-2.12.94.76,1.76,1.43,2.57,2.11Zm-9.32,4.56,1.9-2C377.5,249.54,376.43,249.81,376.52,251.16Z" transform="translate(-71.35 -109.07)"/><path d="M504.29,232.18c-1.8,0-2.79-1.34-2.43-3.26.19-1,.36-2,.52-2.95a1.91,1.91,0,0,1,2-1.6,4.53,4.53,0,0,1,3.73,4A4.06,4.06,0,0,1,504.29,232.18Zm-.12-4.9c-.69,1-1.13,1.85-.18,2.76C506,228.85,506,228.76,504.17,227.28Z" transform="translate(-71.35 -109.07)"/><path d="M371.68,178.27c-.29,1-.56,2-.84,2.92-1.86-.32-1.16-1.86-1.83-2.86a6.93,6.93,0,0,1-1.37.57,1.26,1.26,0,0,1-1-.2,1.17,1.17,0,0,1-.16-1c.6-1.57,5.13-4.2,6.79-3.89a2,2,0,0,1,1.41,1,2.32,2.32,0,0,1-.45,1.9A12.28,12.28,0,0,1,371.68,178.27Z" transform="translate(-71.35 -109.07)"/><path d="M488.66,189.38c.82.18,1.66.32,2.47.56,2,.6,2.43,2,1.08,3.6a5.36,5.36,0,0,1-1.59,1.42,2.12,2.12,0,0,1-1.71,0c-.71-.41-.38-1.1,0-1.65l.72-.95a22.34,22.34,0,0,1-2.25-.7c-1.83-.76-2.16-2.52-.61-3.72a7.63,7.63,0,0,1,2.79-1.13c.26-.07.77.42,1,.76.07.12-.32.67-.61.85a5,5,0,0,1-1.26.41Z" transform="translate(-71.35 -109.07)"/><path d="M391.85,148a5.76,5.76,0,0,1,1.66-.47c1.83,0,3.66.15,5.48.23s3.51.09,5.26.23a14.5,14.5,0,0,1,3.27.6,1.54,1.54,0,0,1,1.17,2.18c-2-1.12-4.09-.73-6.17-.89-2.37-.18-4.72-.59-7.08-.86-1.15-.13-2.3-.17-3.45-.25Z" transform="translate(-71.35 -109.07)"/><path d="M478.45,129.36c1.92-2.4,16.6-8.4,20.13-8.24-.17.22-.26.46-.43.53q-9.5,3.88-19,7.74A2.14,2.14,0,0,1,478.45,129.36Z" transform="translate(-71.35 -109.07)"/><path d="M352.51,200.51c1.37-.33,1.89,2.08,3.24-.06a6.54,6.54,0,0,1-.68,5.48c-.57,1.07-1.4,1.08-2.31.19a8.94,8.94,0,0,0-.77-.85,2.65,2.65,0,0,0-.91-.27A8.15,8.15,0,0,1,352.51,200.51Z" transform="translate(-71.35 -109.07)"/><path d="M479.75,134.31c4.38,2.81,9.51,2.63,13.45,5.37l-.13.53a3.66,3.66,0,0,1-1.29.11c-3.41-1.12-6.82-2.26-10.19-3.49a5.86,5.86,0,0,1-1.68-1.29C479.79,135.42,479.85,135.11,479.75,134.31Z" transform="translate(-71.35 -109.07)"/><path d="M413.59,135.57l-.36.41c-3.49,1.54-7,3.15-10.5,4.57a36.2,36.2,0,0,1-5.3,1.39,1.72,1.72,0,0,1-1.48-.5c1.44-.41,2.89-.79,4.32-1.24s3-1,4.52-1.58,2.74-1.3,4.12-1.93,2.87-1.3,4.43-2Z" transform="translate(-71.35 -109.07)"/><path d="M375.68,253.64c1.49,3.23,1.49,3.23-1.88,4.82a4,4,0,0,1-2-3.25h1.84l-.73-3.22.5-.3,2.36,2Z" transform="translate(-71.35 -109.07)"/><path d="M385.84,246.6l-.53-.63a2.17,2.17,0,0,0-1-2.18,2.28,2.28,0,0,1-.73-1.81c.13-.87.8-1.49,2.08-1.3-.15.95-.06,1.65,1.1,2.08,1.87.69,1.9,1.85.31,3.08A13.34,13.34,0,0,1,385.84,246.6Z" transform="translate(-71.35 -109.07)"/><path d="M350.93,198.12c.16.23.33.36.33.48a13.77,13.77,0,0,1-2.17,6.94c-.16.3-.77.36-1.17.53-.15-.4-.52-.9-.4-1.2.88-2.2,1.86-4.37,2.82-6.55C350.38,198.23,350.62,198.22,350.93,198.12Z" transform="translate(-71.35 -109.07)"/><path d="M165.18,305c-.55,1.23-1.07,2.42-1.65,3.75-1.33.17-.85-1.28-1.38-2l-1.27.32a2.94,2.94,0,0,1,1.91-3.14C163.7,303.64,163.92,303.74,165.18,305Z" transform="translate(-71.35 -109.07)"/><path d="M482.93,133.86c.52-.6.72-1.05,1-1.09,1.72-.29,3.45-.55,5.18-.67.41,0,.86.48,1.29.75-.36.35-.68.94-1.1,1A14.43,14.43,0,0,1,482.93,133.86Z" transform="translate(-71.35 -109.07)"/><path d="M160,117.05a2.09,2.09,0,0,1,.33-3,8.41,8.41,0,0,1,2.3-1.51c.17-.08.69.31.87.59s-.08.62-.27.82C162.2,115,161.16,115.91,160,117.05Z" transform="translate(-71.35 -109.07)"/><path d="M477.94,126.89c-.1-2.64,1.55-4.4,4.66-5.08Z" transform="translate(-71.35 -109.07)"/><path d="M175.25,312c1.53.88,1.23,1.89.78,2.84s-1,1.82-2.51,1.28Z" transform="translate(-71.35 -109.07)"/><path d="M98.41,274.42c1.29-1.29,2.59-.87,3.79-.4a1.39,1.39,0,0,1,.72,2.22Z" transform="translate(-71.35 -109.07)"/><path d="M232.08,243.51l.53.46c.2,1.29.39,2.57.6,4-1.79-.71-2.72-2.9-2-4.21C231.33,243.58,231.79,243.59,232.08,243.51Z" transform="translate(-71.35 -109.07)"/><path d="M369.66,255.51a5,5,0,0,1,2.59,3.39,1,1,0,0,1-.49.89,1.12,1.12,0,0,1-1-.32A5.84,5.84,0,0,1,369.66,255.51Z" transform="translate(-71.35 -109.07)"/><path d="M156.45,113.56a5.15,5.15,0,0,1,5.12-4.34Z" transform="translate(-71.35 -109.07)"/><path d="M402.55,151.5c2.23-.94,2.92-.82,4.16.57A4.2,4.2,0,0,1,402.55,151.5Z" transform="translate(-71.35 -109.07)"/><path d="M101.76,271.44c1.73-.31,2.85.71,4.32,2C104,273.64,102.85,272.59,101.76,271.44Z" transform="translate(-71.35 -109.07)"/><path d="M169.14,228.51c-1-1.79-.71-2.49,1.46-3.22C171.11,226.86,169.64,227.4,169.14,228.51Z" transform="translate(-71.35 -109.07)"/><path d="M173.85,310.78c.44,2.21.3,2.48-1.77,3.23C172.21,312.62,172.4,311.42,173.85,310.78Z" transform="translate(-71.35 -109.07)"/><path d="M479.42,141.35l2.84,2.57c-2.22.15-2.89-.36-3.25-2.17Z" transform="translate(-71.35 -109.07)"/><path d="M482.87,131.29c.75-1.52,1.73-1.78,3.25-1.34A3.27,3.27,0,0,1,482.87,131.29Z" transform="translate(-71.35 -109.07)"/><path d="M363.58,225.82c-.34.26-.69.53-1,.77,0,0-.27-.26-.24-.31.2-.36.44-.7.68-1.05Z" transform="translate(-71.35 -109.07)"/><path d="M171.49,229.58c-.49-1.15-.14-1.53,1.12-1.3Z" transform="translate(-71.35 -109.07)"/><path d="M691.2,149.8c0,.37.2.91,0,1.08-1.36,1.31-2.78,2.54-4.24,3.86-1.29-.94-.37-1.87.08-2.66,1.23-2.13,2.24-2.64,4.12-2.29Z" transform="translate(-71.35 -109.07)"/><path d="M717.44,341.46l2.82-.5c-.69,1.83-2.71,2.92-5.46,3.19-.49-.9.42-1.2.75-1.73Z" transform="translate(-71.35 -109.07)"/><path d="M237.89,160.91c-.78,1.37-1.51,2.78-2.37,4.09-.41.62-1.21,1.06-1.83.39a2.3,2.3,0,0,1-.23-1.69,8.72,8.72,0,0,1,.66-1.78l-.07.07c1-.61,1.79-1.78,3.22-1.55Z" transform="translate(-71.35 -109.07)"/><path d="M239.33,159.06l-.32-1.89c2,1.08,2.05,1.15.91,2.57Z" transform="translate(-71.35 -109.07)"/><path d="M677.81,205c-1.69-.37-3.17-.65-4.62-1-.71-.18-1.45-.65-1.08-1.48a1.78,1.78,0,0,1,1.55-.64A27.41,27.41,0,0,1,678,202.9a1.5,1.5,0,0,1,.81,1.2C678.79,204.46,678.12,204.74,677.81,205Z" transform="translate(-71.35 -109.07)"/><path d="M693.1,155.32c-1,.66-1.46,1.18-2,1.3-.3.07-1-.49-1.08-.88a1.07,1.07,0,0,1,1.15-1.39C691.63,154.36,692.11,154.81,693.1,155.32Z" transform="translate(-71.35 -109.07)"/><path d="M596.62,312.64a16.89,16.89,0,0,1,1.65.63c1.69.85,1.92,2.33.59,3.65a6,6,0,0,1-6.89.71c-.26-.18-.61-.42-.65-.67-.26-1.57-1.52-2.49-2.5-3.9a27.55,27.55,0,0,1,2.34-3.42,3.12,3.12,0,0,1,3.76-.56,2.6,2.6,0,0,1,1.52,2.94A2.28,2.28,0,0,0,596.62,312.64Zm-3.53,3.07c2.54.7,2.54.7,3.86-.64l-3.73-1.51C593.17,314.48,593.13,315.12,593.09,315.71Zm1.37-3a8.56,8.56,0,0,0-.54-2c-.06-.11-.83.05-1.18.25s-.37.58-.63,1Z" transform="translate(-71.35 -109.07)"/><path d="M597.08,310.62a8.75,8.75,0,0,1,2.22-.49,2.42,2.42,0,0,1,1.55.74,1.44,1.44,0,0,1-.42,1.35,2.71,2.71,0,0,1-1.94.24C598,312.3,597.75,311.55,597.08,310.62Z" transform="translate(-71.35 -109.07)"/><path d="M722.51,224.87c.43-1.38.9-2.8,3.08-2.76l-.88,2.21c.41.66.94,1.35,1.33,2.12a4.16,4.16,0,0,1-3.07,6.18,3.15,3.15,0,0,1-3.09-1.4,9.47,9.47,0,0,1-.71-1.24C717.47,226.34,718.47,224.76,722.51,224.87Zm1.63,3.46-3.29-.76c.4,1.19.52,2.34,1.79,2.36C723,229.94,723.44,229.11,724.14,228.33Z" transform="translate(-71.35 -109.07)"/><path d="M741.89,349.11c-1.24,0-1.78-.66-1.71-2s.94-1.93,2.49-1.86,2.32.78,2.27,1.86S743.52,349.14,741.89,349.11Z" transform="translate(-71.35 -109.07)"/><path d="M223,233.29a34.8,34.8,0,0,1,3.69.21,26.79,26.79,0,0,1,8.84,2.89c2.44,1.36,4.83,2.81,7.21,4.27a6.82,6.82,0,0,1,1.62,1.41,1.09,1.09,0,0,1,0,1.05,1.2,1.2,0,0,1-1,.32,4.21,4.21,0,0,1-1.28-.62c-1.3-.78-2.63-1.53-3.88-2.38A36.35,36.35,0,0,0,224.77,235a11.38,11.38,0,0,1-2-.82Z" transform="translate(-71.35 -109.07)"/><path d="M218.29,228.61c-.66-.12-1.69,0-1.92-.41-1.13-1.89-2.06-3.91-3-5.9-.07-.14.16-.43.32-.79.43.17,1,.22,1.21.52,1.17,1.71,2.29,3.45,3.34,5.23.2.35,0,.93,0,1.41Z" transform="translate(-71.35 -109.07)"/><path d="M214,230.75c-.45.25-.79.56-.92.48s-.42-.5-.62-.77c.25-.12.51-.34.74-.32S213.64,230.44,214,230.75Z" transform="translate(-71.35 -109.07)"/><path d="M174.92,161.23a6,6,0,0,1,.09,1.86c-.41,1.11-.94,2.17-1.45,3.23-.35.72-.91,1.16-1.72.76s-.81-1.12-.52-1.83A7.91,7.91,0,0,1,174.92,161.23Z" transform="translate(-71.35 -109.07)"/><path d="M172.29,336.52a10.32,10.32,0,0,0-1.55,1.55,9.58,9.58,0,0,1-8.69,3.92c-.11,0-.18-.19-.43-.47,2.55-.87,5.39-.88,7.58-3.4-1.41,0-2.48,0-3.54,0a4.26,4.26,0,0,1-1.61-.41,1.32,1.32,0,0,1-.54-.91.85.85,0,0,1,.54-.66,10.45,10.45,0,0,1,3-.22c2.09.31,4.11.47,6.1-.71,1.74,1.94,3.92,2.28,6.27,1.92.71-2,.85-2.19,2.86-2,1.29.14,2.79-.15,3.65,1.4-.44,1.59-1.86,1.94-3.15,2a38.36,38.36,0,0,1-6.43-.27,19.37,19.37,0,0,1-3.74-1.26Z" transform="translate(-71.35 -109.07)"/><path d="M245.11,162.46a2,2,0,0,0-2.33-1.54c-.2-.84-1.11-1.61-.15-2.72.33.29.62.58,1,.83s.75.71,1,.63c.88-.23,1.15.26,1.32.9C246.13,161.37,246.09,162.13,245.11,162.46Z" transform="translate(-71.35 -109.07)"/><path d="M232.45,158.23c-1.55-1-1.69-2.38-1.16-4.48.8,1.72,1.46,2.95,1.09,4.46Z" transform="translate(-71.35 -109.07)"/><path d="M463.4,227.57c.68-.18,1.36-.37,2-.54,2-.52,3.4.51,3.21,2.54a23.26,23.26,0,0,1-.92,4.43,1.88,1.88,0,0,1-1.35,1c-.33.05-.91-.56-1.11-1a5.31,5.31,0,0,1-.15-1.7c-.57,0-1.12,0-1.65-.13a2.64,2.64,0,0,1-2.21-1.95c-.88-2.75,1.75-6.7,4.65-7a5,5,0,0,1,1.4.43c-1.87,1.13-3.68,1.81-3.86,3.93-.38.82-.67,1.79.23,2.29s1.52-.3,2.13-1C464,228.57,464,228.57,463.4,227.57Z" transform="translate(-71.35 -109.07)"/><path d="M453.5,228.37a5.05,5.05,0,0,1-.63.87c-.66.6-1.29.38-1.37-.4a23.86,23.86,0,0,1-.05-4.31c.09-1.13,1.08-1.46,1.88-.67a10.42,10.42,0,0,1,1.19,1.78,5,5,0,0,0,2.7,2.59c-.17-1-.34-1.73-.4-2.48a12.08,12.08,0,0,1,0-2.62c.05-.33.61-.71,1-.8a1.07,1.07,0,0,1,.87.6,24.17,24.17,0,0,1,.9,5.16,2.4,2.4,0,0,1-3.79,2A20.15,20.15,0,0,1,453.5,228.37Z" transform="translate(-71.35 -109.07)"/><path d="M412.31,224.27c-.41-.11-.52-.1-.55-.15-1.16-1.84-.8-6.46.75-7.81a3,3,0,0,1,2.15-.56,1.82,1.82,0,0,1,1.6,2.07,3.94,3.94,0,0,0,1.4,3.75,1.2,1.2,0,0,1,.24.41c.31.74.72,1.59-.12,2.16s-1.41-.22-1.89-.85a5.44,5.44,0,0,0-.58-.76c-.93-.9-1.79-.73-2.4.48C412.71,223.41,412.52,223.82,412.31,224.27Z" transform="translate(-71.35 -109.07)"/><path d="M427.91,226.79c-.79.93-1.55.58-2.21.13-1.53-1-3.08-1.63-5.07-.33-.92-2.87.05-5.18.67-7.54l.52-.07.9,1.47c.87-.46,1.25-2,2.82-1.23.54,1.7-1.12,2.57-1.69,4C425.26,224.29,427.68,224.4,427.91,226.79Z" transform="translate(-71.35 -109.07)"/><path d="M435.22,220.91l-3.59,2.36.16.36,2.82-.27c-.49,2-2.39,1.55-3.73,2.83,1.35.05,2.1-.61,2.93-.68.41,0,1.06.07,1.22.34a1.22,1.22,0,0,1-.29,1.2,15.42,15.42,0,0,1-3.65,1.57,1.71,1.71,0,0,1-2-1.86,13.09,13.09,0,0,1,1.69-5.36,4.19,4.19,0,0,1,4.19-1.14Z" transform="translate(-71.35 -109.07)"/><path d="M440.31,222.61v4c0,.39.15.86,0,1.16a1.84,1.84,0,0,1-1,.8c-.13,0-.66-.5-.67-.79-.08-1.42,0-2.84,0-4.44l-1.55-.7c.23-.43.33-.94.58-1,1.56-.59,3.13-1.12,4.73-1.58a2,2,0,0,1,1.38.17,1.52,1.52,0,0,1,.78,1.06c0,.29-.54.74-.92.84C442.69,222.3,441.74,222.39,440.31,222.61Z" transform="translate(-71.35 -109.07)"/><path d="M447.72,222.21c.27.31.54.48.55.65,0,1.9.06,3.8,0,5.7,0,.8-.44,1.51-1.29,1.28a1.74,1.74,0,0,1-.82-1.44,45.59,45.59,0,0,1,.67-5.18C446.92,222.87,447.39,222.58,447.72,222.21Z" transform="translate(-71.35 -109.07)"/><path d="M391.28,220.91l-2.92.32a2.85,2.85,0,0,1-.34.9c-.21.29-.7.69-.87.62-.36-.18-.85-.62-.85-.95q0-3.35.32-6.67c.06-.72.45-1.55,1.34-1.35.48.11.91.75,1.21,1.24a10,10,0,0,1,.68,1.89,17.35,17.35,0,0,1,1.26-2.76c.36-.51,1.16-1.14,1.61-1a2.1,2.1,0,0,1,1.16,1.56c.25,2.46.35,4.93.4,7.4a1.57,1.57,0,0,1-.81,1.24,1.69,1.69,0,0,1-1.39-.58A7.12,7.12,0,0,1,391.28,220.91Z" transform="translate(-71.35 -109.07)"/><path d="M438.17,136.25c.16-1.92.16-1.92,1.26-2.55.9,2,.78,3.57-.32,4.18s-2,.26-3.1-1Z" transform="translate(-71.35 -109.07)"/><path d="M428.84,129.47c.91-2.19,2.59-2.83,5.6-2.15-.88.3-1.77.57-2.64.9S430.09,128.93,428.84,129.47Z" transform="translate(-71.35 -109.07)"/><path d="M442.49,130.69c-.79.48-1.25,1-1.71,1s-1-.81-.92-1a2.11,2.11,0,0,1,1.17-1.09C441.31,129.51,441.77,130.11,442.49,130.69Z" transform="translate(-71.35 -109.07)"/><path d="M432.62,132.23c-.44-.75-.85-1.15-.84-1.55s.62-.89.82-.84c.42.12,1,.55,1,.91S433.14,131.51,432.62,132.23Z" transform="translate(-71.35 -109.07)"/><path d="M431.68,119.64c-.46,3-4.45,5.8-7.74,5.34Z" transform="translate(-71.35 -109.07)"/><path d="M628.58,154.84c-.06-2.49,2.71-5.1,4.74-5,1.67.12,3,2.09,2.09,3.43a4,4,0,0,0-.42,3.37,1.49,1.49,0,0,1,.08.71c-.21.63-.34,1.56-.79,1.76a2.05,2.05,0,0,1-1.79-.63c-.83-.93-1.37-2-2.86-2.23C629.13,156.22,628.77,155.14,628.58,154.84Zm5.3-2.28c-.06-.13-.18-.51-.26-.5a4.34,4.34,0,0,0-1.7.34,4.42,4.42,0,0,0-1.18,1.25s.2.43.38.54C631.93,154.68,633.77,153.63,633.88,152.56Z" transform="translate(-71.35 -109.07)"/><path d="M740.27,132.19a5.08,5.08,0,0,1-1.53,0,.91.91,0,0,1-.48-1.52,24,24,0,0,1,1.6-2,2.6,2.6,0,0,1,3.06-.7c1.29.47,2.54,1.12,2.75,2.68.05.35-.39.77-.67,1.29-1.27-.83-1.57-2.94-3.73-2.3.61,1,2.17,1.47,1.11,3l2.78.2c.22,1.33-.7,1.54-1.52,1.69C742.36,134.72,741.18,133.89,740.27,132.19Z" transform="translate(-71.35 -109.07)"/></svg>